{
.appVersion = "1075";
copyright = "Copyright © 2018 by Cadson Demak Co.,Ltd.. All rights reserved.";
customParameters = (
{
name = vendorID;
value = CDK;
},
{
name = description;
value = "Copyright (c) 2018, Cadson Demak (info@cadsondemak.com)";
},
{
name = license;

glyphs = (
{
glyphname = A;
lastChange = "2018-02-15 15:28:17 +0000";
layers = (
{
anchors = (
{
name = bottom;
position = "{385, 0}";
},
{
name = ogonek;
position = "{723, 10}";
},
{
name = top;
position = "{647, 700}";
}
);
layerId = "0B1DFD06-3317-40CA-B510-4969A0718C16";
paths = (
{
closed = 1;
nodes = (
"183 -11 OFFCURVE",
"243 57 OFFCURVE",
"363 251 CURVE SMOOTH",
"421 345 OFFCURVE",
"527 519 OFFCURVE",
"589 615 CURVE SMOOTH",
"592 619 OFFCURVE",
"594 621 OFFCURVE",
"596 621 CURVE SMOOTH",
"598 621 OFFCURVE",
"599 619 OFFCURVE",
"599 617 CURVE SMOOTH",
"601 590 OFFCURVE",
"602 362 OFFCURVE",
"604 286 CURVE",
"593 286 OFFCURVE",
"536 283 OFFCURVE",
"478 283 CURVE SMOOTH",
"424 283 OFFCURVE",
"303 294 OFFCURVE",
"273 306 CURVE",
"267 301 OFFCURVE",
"258 285 OFFCURVE",
"259 270 CURVE SMOOTH",
"260 254 OFFCURVE",
"315 245 OFFCURVE",
"375 245 CURVE SMOOTH",
"450 245 OFFCURVE",
"549 246 OFFCURVE",
"573 246 CURVE SMOOTH",
"598 246 OFFCURVE",
"609 240 OFFCURVE",
"612 212 CURVE SMOOTH",
"620 137 OFFCURVE",
"631 101 OFFCURVE",
"650 57 CURVE SMOOTH",
"665 20 OFFCURVE",
"695 -6 OFFCURVE",
"725 -6 CURVE SMOOTH",
"765 -6 OFFCURVE",
"821 38 OFFCURVE",
"841 67 CURVE SMOOTH",
"846 75 OFFCURVE",
"848 86 OFFCURVE",
"848 96 CURVE SMOOTH",
"847 103 OFFCURVE",
"846 109 OFFCURVE",
"844 114 CURVE",
"814 79 OFFCURVE",
"778 52 OFFCURVE",
"750 52 CURVE SMOOTH",
"677 52 OFFCURVE",
"664 211 OFFCURVE",
"655 334 CURVE SMOOTH",
"648 433 OFFCURVE",
"647 539 OFFCURVE",
"648 610 CURVE SMOOTH",
"648 658 OFFCURVE",
"654 705 OFFCURVE",
"671 735 CURVE",
"664 737 OFFCURVE",
"650 740 OFFCURVE",
"640 740 CURVE SMOOTH",
"621 740 OFFCURVE",
"610 735 OFFCURVE",
"595 711 CURVE SMOOTH",
"529 604 OFFCURVE",
"411 404 OFFCURVE",
"318 259 CURVE SMOOTH",
"215 98 OFFCURVE",
"142 36 OFFCURVE",
"74 36 CURVE SMOOTH",
"31 36 OFFCURVE",
"9 62 OFFCURVE",
"9 114 CURVE",
"-8 106 OFFCURVE",
"-26 82 OFFCURVE",
"-24 53 CURVE SMOOTH",
"-21 13 OFFCURVE",
"12 -11 OFFCURVE",
"64 -11 CURVE SMOOTH"
);
}
);
width = 844;
}
);
note = A;
unicode = 0041;
},
{
glyphname = B;
lastChange = "2018-02-17 06:53:56 +0000";
layers = (
{
layerId = "0B1DFD06-3317-40CA-B510-4969A0718C16";
paths = (
{
closed = 1;
nodes = (
"645 -17 OFFCURVE",
"708 99 OFFCURVE",
"708 203 CURVE SMOOTH",
"708 319 OFFCURVE",
"582 370 OFFCURVE",
"512 376 CURVE",
"513 366 LINE",
"625 401 OFFCURVE",
"676 485 OFFCURVE",
"676 563 CURVE SMOOTH",
"676 680 OFFCURVE",
"551 707 OFFCURVE",
"356 707 CURVE SMOOTH",
"267 707 OFFCURVE",
"226 710 OFFCURVE",
"159 710 CURVE SMOOTH",
"98 710 OFFCURVE",
"93 717 OFFCURVE",
"85 724 CURVE",
"82 715 OFFCURVE",
"78 694 OFFCURVE",
"79 678 CURVE SMOOTH",
"80 662 OFFCURVE",
"93 655 OFFCURVE",
"110 655 CURVE SMOOTH",
"139 655 OFFCURVE",
"239 675 OFFCURVE",
"296 675 CURVE SMOOTH",
"304 675 OFFCURVE",
"307 673 OFFCURVE",
"307 668 CURVE SMOOTH",
"307 666 OFFCURVE",
"307 664 OFFCURVE",
"306 662 CURVE SMOOTH",
"261 445 OFFCURVE",
"235 305 OFFCURVE",
"183 96 CURVE SMOOTH",
"175 63 OFFCURVE",
"165 43 OFFCURVE",
"146 15 CURVE",
"151 10 OFFCURVE",
"161 7 OFFCURVE",
"170 7 CURVE SMOOTH",
"191 7 OFFCURVE",
"190 18 OFFCURVE",
"217 18 CURVE SMOOTH",
"249 18 OFFCURVE",
"304 -17 OFFCURVE",
"447 -17 CURVE SMOOTH"
);
},
{
closed = 1;
nodes = (
"327 26 OFFCURVE",
"241 57 OFFCURVE",
"239 86 CURVE SMOOTH",
"238 101 OFFCURVE",
"241 128 OFFCURVE",
"245 150 CURVE SMOOTH",
"268 284 OFFCURVE",
"304 445 OFFCURVE",
"335 564 CURVE SMOOTH",
"358 653 OFFCURVE",
"361 676 OFFCURVE",
"424 676 CURVE SMOOTH",
"523 676 OFFCURVE",
"614 650 OFFCURVE",
"614 551 CURVE SMOOTH",
"614 455 OFFCURVE",
"551 387 OFFCURVE",
"450 387 CURVE SMOOTH",
"424 387 OFFCURVE",
"394 390 OFFCURVE",
"378 391 CURVE",
"371 385 OFFCURVE",
"370 373 OFFCURVE",
"371 361 CURVE SMOOTH",
"372 345 OFFCURVE",
"377 338 OFFCURVE",
"383 337 CURVE",
"415 341 OFFCURVE",
"451 341 OFFCURVE",
"481 341 CURVE SMOOTH",
"584 341 OFFCURVE",
"645 287 OFFCURVE",
"645 212 CURVE SMOOTH",
"645 95 OFFCURVE",
"575 26 OFFCURVE",
"439 26 CURVE SMOOTH"
);
}
);
width = 806;
}
);
note = B;
unicode = 0042;
},
{
glyphname = C;
lastChange = "2018-02-18 18:22:48 +0000";
layers = (
{
anchors = (
{
name = bottom;
position = "{423, 0}";
},
{
name = top;
position = "{546, 700}";
}
);
hints = (
{
horizontal = 1;
origin = "{0, 12}";
target = "{0, 21}";
},
{
horizontal = 1;
origin = "{0, 6}";
target = "{0, 27}";
},
{
origin = "{0, 9}";
target = "{0, 24}";
},
{
origin = "{0, 33}";
target = "{0, 0}";
},
{
origin = "{0, 18}";
target = "{0, 15}";
}
);
layerId = "0B1DFD06-3317-40CA-B510-4969A0718C16";
paths = (
{
closed = 1;
nodes = (
"740 504 LINE",
"742 551 OFFCURVE",
"753 609 OFFCURVE",
"766 644 CURVE",
"736 690 OFFCURVE",
"651 716 OFFCURVE",
"566 716 CURVE SMOOTH",
"325 716 OFFCURVE",
"135 491 OFFCURVE",
"135 246 CURVE SMOOTH",
"135 70 OFFCURVE",
"253 -17 OFFCURVE",
"394 -17 CURVE SMOOTH",
"595 -17 OFFCURVE",
"783 157 OFFCURVE",
"783 258 CURVE SMOOTH",
"783 284 OFFCURVE",
"772 295 OFFCURVE",
"756 295 CURVE",
"691 124 OFFCURVE",
"545 31 OFFCURVE",
"395 31 CURVE SMOOTH",
"286 31 OFFCURVE",
"193 105 OFFCURVE",
"193 250 CURVE SMOOTH",
"193 461 OFFCURVE",
"358 674 OFFCURVE",
"559 674 CURVE SMOOTH",
"660 674 OFFCURVE",
"698 644 OFFCURVE",
"709 577 CURVE SMOOTH",
"712 558 OFFCURVE",
"715 513 OFFCURVE",
"715 500 CURVE"
);
}
);
width = 800;
}
);
note = C;
unicode = 0043;
},
{
glyphname = D;
lastChange = "2018-02-16 07:52:44 +0000";
layers = (
{
anchors = (
{
name = bottom;
position = "{424, 0}";
},
{
name = center;
position = "{486, 350}";
},
{
name = top;
position = "{569, 700}";
}
);
layerId = "0B1DFD06-3317-40CA-B510-4969A0718C16";
paths = (
{
closed = 1;
nodes = (
"627 -13 OFFCURVE",
"798 123 OFFCURVE",
"798 367 CURVE SMOOTH",
"798 618 OFFCURVE",
"638 707 OFFCURVE",
"445 707 CURVE SMOOTH",
"340 707 OFFCURVE",
"266 694 OFFCURVE",
"145 694 CURVE SMOOTH",
"115 694 OFFCURVE",
"76 713 OFFCURVE",
"73 713 CURVE SMOOTH",
"71 713 OFFCURVE",
"70 710 OFFCURVE",
"70 705 CURVE SMOOTH",
"70 687 OFFCURVE",
"84 644 OFFCURVE",
"99 644 CURVE SMOOTH",
"167 645 OFFCURVE",
"227 665 OFFCURVE",
"295 665 CURVE SMOOTH",
"299 665 OFFCURVE",
"308 663 OFFCURVE",
"310 657 CURVE",
"297 558 OFFCURVE",
"189 161 OFFCURVE",
"172 96 CURVE SMOOTH",
"165 73 OFFCURVE",
"160 64 OFFCURVE",
"149 50 CURVE",
"160 43 OFFCURVE",
"171 35 OFFCURVE",
"190 35 CURVE SMOOTH",
"243 35 OFFCURVE",
"304 -13 OFFCURVE",
"432 -13 CURVE SMOOTH"
);
},
{
closed = 1;
nodes = (
"359 30 OFFCURVE",
"300 49 OFFCURVE",
"251 82 CURVE SMOOTH",
"239 90 OFFCURVE",
"234 100 OFFCURVE",
"234 111 CURVE SMOOTH",
"234 115 OFFCURVE",
"235 119 OFFCURVE",
"236 124 CURVE SMOOTH",
"269 287 OFFCURVE",
"321 478 OFFCURVE",
"370 651 CURVE",
"377 670 OFFCURVE",
"403 670 OFFCURVE",
"428 670 CURVE SMOOTH",
"608 670 OFFCURVE",
"741 599 OFFCURVE",
"741 371 CURVE SMOOTH",
"741 169 OFFCURVE",
"600 30 OFFCURVE",
"426 30 CURVE SMOOTH"
);
}
);
width = 841;
}
);
note = D;
unicode = 0044;
},
{
glyphname = E;
lastChange = "2018-02-18 14:55:43 +0000";
layers = (
{
anchors = (
{
name = bottom;
position = "{329, 0}";
},
{
name = ogonek;
position = "{702, 43}";
},
{
name = top;
position = "{505, 700}";
},
{
name = topleft;
position = "{106, 700}";
}
);
layerId = "0B1DFD06-3317-40CA-B510-4969A0718C16";
paths = (
{
closed = 1;
nodes = (
"469 -13 OFFCURVE",
"573 -5 OFFCURVE",
"671 15 CURVE SMOOTH",
"691 19 OFFCURVE",
"705 30 OFFCURVE",
"709 44 CURVE SMOOTH",
"712 55 OFFCURVE",
"716 101 OFFCURVE",
"727 113 CURVE",
"725 120 OFFCURVE",
"722 122 OFFCURVE",
"719 118 CURVE",
"638 42 OFFCURVE",
"450 32 OFFCURVE",
"331 32 CURVE SMOOTH",
"265 32 OFFCURVE",
"224 37 OFFCURVE",
"220 86 CURVE SMOOTH",
"217 140 OFFCURVE",
"238 225 OFFCURVE",
"276 372 CURVE SMOOTH",
"301 465 OFFCURVE",
"327 553 OFFCURVE",
"361 645 CURVE SMOOTH",
"366 658 OFFCURVE",
"374 662 OFFCURVE",
"392 662 CURVE SMOOTH",
"469 662 OFFCURVE",
"581 658 OFFCURVE",
"664 647 CURVE SMOOTH",
"687 644 OFFCURVE",
"692 630 OFFCURVE",
"696 615 CURVE",
"706 614 LINE",
"708 636 OFFCURVE",
"730 678 OFFCURVE",
"734 688 CURVE",
"730 695 OFFCURVE",
"722 703 OFFCURVE",
"714 703 CURVE SMOOTH",
"614 703 OFFCURVE",
"362 702 OFFCURVE",
"318 702 CURVE SMOOTH",
"251 702 OFFCURVE",
"174 704 OFFCURVE",
"107 709 CURVE",
"100 702 OFFCURVE",
"90 664 OFFCURVE",
"91 645 CURVE",
"95 644 LINE",
"136 657 OFFCURVE",
"210 660 OFFCURVE",
"276 660 CURVE SMOOTH",
"281 660 OFFCURVE",
"285 658 OFFCURVE",
"287 655 CURVE SMOOTH",
"295 633 OFFCURVE",
"234 403 OFFCURVE",
"227 374 CURVE SMOOTH",
"190 228 OFFCURVE",
"159 113 OFFCURVE",
"162 63 CURVE SMOOTH",
"165 20 OFFCURVE",
"189 -13 OFFCURVE",
"361 -13 CURVE SMOOTH"
);
},
{
closed = 1;
nodes = (
"258 349 OFFCURVE",
"545 349 OFFCURVE",
"609 349 CURVE SMOOTH",
"618 349 OFFCURVE",
"622 351 OFFCURVE",
"622 355 CURVE SMOOTH",
"620 381 OFFCURVE",
"631 399 OFFCURVE",
"634 408 CURVE",
"628 413 LINE",
"553 390 OFFCURVE",
"384 396 OFFCURVE",
"272 396 CURVE SMOOTH",
"241 396 OFFCURVE",
"225 396 OFFCURVE",
"197 395 CURVE SMOOTH",
"184 395 OFFCURVE",
"176 370 OFFCURVE",
"176 362 CURVE SMOOTH",
"177 350 OFFCURVE",
"191 349 OFFCURVE",
"210 349 CURVE"
);
}
);
width = 732;
}
);
note = E;
unicode = 0045;
},
{
glyphname = F;
lastChange = "2018-02-17 06:44:40 +0000";
layers = (
{
layerId = "0B1DFD06-3317-40CA-B510-4969A0718C16";
paths = (
{
closed = 1;
nodes = (
"193 325 LINE",
"274 325 OFFCURVE",
"509 323 OFFCURVE",
"541 323 CURVE",
"549 329 OFFCURVE",
"554 378 OFFCURVE",
"554 382 CURVE",
"550 386 LINE",
"493 369 OFFCURVE",
"420 362 OFFCURVE",
"344 362 CURVE SMOOTH",
"279 362 OFFCURVE",
"238 365 OFFCURVE",
"204 368 CURVE"
);
},
{
closed = 1;
nodes = (
"266 630 OFFCURVE",
"270 641 CURVE SMOOTH",
"275 655 OFFCURVE",
"278 662 OFFCURVE",
"296 662 CURVE SMOOTH",
"360 662 OFFCURVE",
"530 650 OFFCURVE",
"602 650 CURVE SMOOTH",
"611 650 OFFCURVE",
"615 656 OFFCURVE",
"617 667 CURVE SMOOTH",
"619 680 OFFCURVE",
"623 711 OFFCURVE",
"631 721 CURVE",
"631 725 OFFCURVE",
"628 727 OFFCURVE",
"622 727 CURVE SMOOTH",
"621 727 OFFCURVE",
"618 726 OFFCURVE",
"614 725 CURVE",
"544 690 OFFCURVE",
"293 697 OFFCURVE",
"134 707 CURVE",
"125 692 OFFCURVE",
"121 677 OFFCURVE",
"121 671 CURVE SMOOTH",
"121 668 OFFCURVE",
"124 666 OFFCURVE",
"133 666 CURVE SMOOTH",
"151 666 OFFCURVE",
"189 665 OFFCURVE",
"203 664 CURVE SMOOTH",
"213 663 OFFCURVE",
"218 651 OFFCURVE",
"216 640 CURVE SMOOTH",
"189 493 OFFCURVE",
"138 258 OFFCURVE",
"89 44 CURVE SMOOTH",
"82 15 OFFCURVE",
"72 -7 OFFCURVE",
"100 -9 CURVE SMOOTH",
"112 -10 OFFCURVE",
"134 -7 OFFCURVE",
"146 0 CURVE",
"144 17 OFFCURVE",
"147 50 OFFCURVE",
"152 71 CURVE SMOOTH",
"156 88 OFFCURVE"
);
}
);
width = 563;
}
);
note = F;
unicode = 0046;
},
{
glyphname = G;
lastChange = "2018-02-18 18:15:28 +0000";
layers = (
{
anchors = (
{
name = bottom;
position = "{375, 0}";
},
{
name = top;
position = "{604, 700}";
}
);
hints = (
{
horizontal = 1;
origin = "{0, 72}";
target = "{0, 63}";
},
{
horizontal = 1;
origin = "{0, 56}";
target = "{0, 26}";
},
{
horizontal = 1;
origin = "{0, 20}";
target = "{0, 14}";
},
{
horizontal = 1;
origin = "{0, 50}";
target = "{0, 32}";
},
{
origin = "{0, 53}";
target = "{0, 29}";
},
{
place = "{741, 45}";
},
{
origin = "{0, 23}";
target = "{0, 8}";
}
);
layerId = "0B1DFD06-3317-40CA-B510-4969A0718C16";
paths = (
{
closed = 1;
nodes = (
"448 -414 OFFCURVE",
"540 -303 OFFCURVE",
"570 -246 CURVE SMOOTH",
"630 -132 OFFCURVE",
"697 122 OFFCURVE",
"735 280 CURVE SMOOTH",
"742 309 OFFCURVE",
"751 317 OFFCURVE",
"784 326 CURVE",
"787 332 OFFCURVE",
"782 358 OFFCURVE",
"779 362 CURVE",
"712 339 OFFCURVE",
"598 337 OFFCURVE",
"512 337 CURVE",
"505 323 OFFCURVE",
"504 309 OFFCURVE",
"505 296 CURVE",
"565 300 OFFCURVE",
"622 306 OFFCURVE",
"657 306 CURVE SMOOTH",
"675 306 OFFCURVE",
"680 297 OFFCURVE",
"680 269 CURVE SMOOTH",
"680 194 OFFCURVE",
"567 24 OFFCURVE",
"394 24 CURVE SMOOTH",
"250 24 OFFCURVE",
"188 112 OFFCURVE",
"188 256 CURVE SMOOTH",
"188 476 OFFCURVE",
"343 667 OFFCURVE",
"555 667 CURVE SMOOTH",
"651 667 OFFCURVE",
"726 645 OFFCURVE",
"741 565 CURVE SMOOTH",
"744 549 OFFCURVE",
"745 498 OFFCURVE",
"746 484 CURVE",
"750 481 OFFCURVE",
"757 479 OFFCURVE",
"765 479 CURVE SMOOTH",
"775 479 OFFCURVE",
"778 481 OFFCURVE",
"782 483 CURVE",
"788 522 OFFCURVE",
"791 600 OFFCURVE",
"790 639 CURVE",
"732 684 OFFCURVE",
"647 713 OFFCURVE",
"574 713 CURVE SMOOTH",
"282 713 OFFCURVE",
"126 484 OFFCURVE",
"126 270 CURVE SMOOTH",
"126 91 OFFCURVE",
"200 -21 OFFCURVE",
"386 -21 CURVE SMOOTH",
"525 -21 OFFCURVE",
"623 71 OFFCURVE",
"662 136 CURVE",
"660 155 LINE",
"567 -144 OFFCURVE",
"517 -382 OFFCURVE",
"250 -382 CURVE SMOOTH",
"201 -382 OFFCURVE",
"148 -367 OFFCURVE",
"120 -349 CURVE",
"117 -352 OFFCURVE",
"116 -356 OFFCURVE",
"116 -360 CURVE SMOOTH",
"116 -379 OFFCURVE",
"185 -414 OFFCURVE",
"254 -414 CURVE SMOOTH"
);
}
);
width = 895;
}
);
note = G;
unicode = 0047;
},
{
glyphname = H;
lastChange = "2018-02-17 06:45:14 +0000";
layers = (
{
anchors = (
{
name = bottom;
position = "{363, 0}";
},
{
name = center;
position = "{435, 350}";
},
{
name = top;
position = "{506, 700}";
},
{
name = topleft;
position = "{91, 700}";
}
);
layerId = "0B1DFD06-3317-40CA-B510-4969A0718C16";
paths = (
{
closed = 1;
nodes = (
"746 -6 OFFCURVE",
"830 27 OFFCURVE",
"814 79 CURVE",
"785 59 OFFCURVE",
"732 41 OFFCURVE",
"684 41 CURVE SMOOTH",
"625 41 OFFCURVE",
"604 53 OFFCURVE",
"604 98 CURVE SMOOTH",
"604 140 OFFCURVE",
"608 219 OFFCURVE",
"645 389 CURVE SMOOTH",
"672 512 OFFCURVE",
"716 676 OFFCURVE",
"739 702 CURVE SMOOTH",
"765 731 OFFCURVE",
"847 760 OFFCURVE",
"879 760 CURVE",
"879 770 OFFCURVE",
"873 787 OFFCURVE",
"856 787 CURVE SMOOTH",
"812 787 OFFCURVE",
"739 759 OFFCURVE",
"699 735 CURVE SMOOTH",
"691 730 OFFCURVE",
"685 719 OFFCURVE",
"681 706 CURVE SMOOTH",
"619 504 OFFCURVE",
"552 214 OFFCURVE",
"552 81 CURVE SMOOTH",
"552 32 OFFCURVE",
"591 -6 OFFCURVE",
"648 -6 CURVE SMOOTH"
);
},
{
closed = 1;
nodes = (
"116 4 OFFCURVE",
"131 7 OFFCURVE",
"142 7 CURVE SMOOTH",
"153 7 OFFCURVE",
"158 11 OFFCURVE",
"160 24 CURVE SMOOTH",
"177 124 OFFCURVE",
"210 240 OFFCURVE",
"246 367 CURVE SMOOTH",
"286 507 OFFCURVE",
"313 607 OFFCURVE",
"337 686 CURVE SMOOTH",
"341 699 OFFCURVE",
"338 706 OFFCURVE",
"327 706 CURVE SMOOTH",
"296 706 OFFCURVE",
"241 696 OFFCURVE",
"134 696 CURVE SMOOTH",
"126 696 OFFCURVE",
"122 693 OFFCURVE",
"122 681 CURVE SMOOTH",
"122 674 OFFCURVE",
"127 665 OFFCURVE",
"133 654 CURVE",
"156 658 OFFCURVE",
"202 662 OFFCURVE",
"224 662 CURVE SMOOTH",
"254 662 OFFCURVE",
"262 656 OFFCURVE",
"264 634 CURVE SMOOTH",
"267 600 OFFCURVE",
"241 512 OFFCURVE",
"201 367 CURVE SMOOTH",
"134 126 OFFCURVE",
"124 83 OFFCURVE",
"91 -5 CURVE",
"97 -7 LINE"
);
},
{
closed = 1;
nodes = (
"261 339 OFFCURVE",
"352 340 OFFCURVE",
"409 340 CURVE SMOOTH",
"495 340 OFFCURVE",
"585 339 OFFCURVE",
"603 337 CURVE",
"614 383 LINE",
"567 381 OFFCURVE",
"505 380 OFFCURVE",
"413 380 CURVE SMOOTH",
"285 380 OFFCURVE",
"194 386 OFFCURVE",
"166 386 CURVE SMOOTH",
"159 386 OFFCURVE",
"156 383 OFFCURVE",
"156 376 CURVE SMOOTH",
"156 359 OFFCURVE",
"175 339 OFFCURVE",
"188 339 CURVE SMOOTH"
);
}
);
width = 799;
}
);
note = H;
unicode = 0048;
},
{
glyphname = I;
lastChange = "2018-02-18 18:17:49 +0000";
layers = (
{
anchors = (
{
name = bottom;
position = "{138, 0}";
},
{
name = ogonek;
position = "{165, 10}";
},
{
name = top;
position = "{283, 700}";
},
{
name = topleft;
position = "{146, 700}";
}
);
layerId = "0B1DFD06-3317-40CA-B510-4969A0718C16";
paths = (
{
closed = 1;
nodes = (
"148 -7 OFFCURVE",
"177 -1 OFFCURVE",
"186 40 CURVE SMOOTH",
"227 228 OFFCURVE",
"273 486 OFFCURVE",
"316 648 CURVE SMOOTH",
"320 663 OFFCURVE",
"343 672 OFFCURVE",
"364 674 CURVE",
"365 682 OFFCURVE",
"363 701 OFFCURVE",
"355 704 CURVE",
"317 698 OFFCURVE",
"247 693 OFFCURVE",
"146 693 CURVE SMOOTH",
"130 693 OFFCURVE",
"123 678 OFFCURVE",
"123 650 CURVE",
"148 655 OFFCURVE",
"193 657 OFFCURVE",
"220 657 CURVE SMOOTH",
"252 657 OFFCURVE",
"260 651 OFFCURVE",
"260 621 CURVE SMOOTH",
"260 558 OFFCURVE",
"174 218 OFFCURVE",
"127 32 CURVE SMOOTH",
"123 17 OFFCURVE",
"109 10 OFFCURVE",
"91 8 CURVE",
"101 -4 LINE"
);
}
);
width = 394;
}
);
note = I;
unicode = 0049;
},
{
glyphname = J;
lastChange = "2018-02-17 06:47:09 +0000";
layers = (
{
layerId = "0B1DFD06-3317-40CA-B510-4969A0718C16";
paths = (
{
closed = 1;
nodes = (
"174 -168 OFFCURVE",
"274 -79 OFFCURVE",
"328 60 CURVE SMOOTH",
"400 245 OFFCURVE",
"444 430 OFFCURVE",
"481 586 CURVE SMOOTH",
"499 664 OFFCURVE",
"505 681 OFFCURVE",
"544 681 CURVE SMOOTH",
"573 681 OFFCURVE",
"599 679 OFFCURVE",
"608 679 CURVE",
"606 700 OFFCURVE",
"600 715 OFFCURVE",
"590 715 CURVE SMOOTH",
"294 715 OFFCURVE",
"55 697 OFFCURVE",
"66 546 CURVE SMOOTH",
"69 499 OFFCURVE",
"102 462 OFFCURVE",
"141 450 CURVE",
"148 450 OFFCURVE",
"156 451 OFFCURVE",
"160 453 CURVE",
"127 471 OFFCURVE",
"114 500 OFFCURVE",
"112 528 CURVE SMOOTH",
"104 645 OFFCURVE",
"284 673 OFFCURVE",
"429 673 CURVE SMOOTH",
"443 673 OFFCURVE",
"449 666 OFFCURVE",
"446 647 CURVE SMOOTH",
"423 500 OFFCURVE",
"354 262 OFFCURVE",
"279 72 CURVE SMOOTH",
"227 -57 OFFCURVE",
"155 -139 OFFCURVE",
"29 -139 CURVE SMOOTH",
"-73 -139 OFFCURVE",
"-119 -94 OFFCURVE",
"-146 -37 CURVE",
"-162 -41 LINE",
"-160 -76 OFFCURVE",
"-154 -106 OFFCURVE",
"-146 -135 CURVE",
"-110 -150 OFFCURVE",
"-40 -168 OFFCURVE",
"8 -168 CURVE SMOOTH"
);
}
);
width = 540;
}
);
note = J;
unicode = 004A;
},
{
glyphname = K;
lastChange = "2018-02-17 06:51:07 +0000";
layers = (
{
anchors = (
{
name = bottom;
position = "{367, 0}";
},
{
name = top;
position = "{490, 700}";
}
);
layerId = "0B1DFD06-3317-40CA-B510-4969A0718C16";
paths = (
{
closed = 1;
nodes = (
"333 455 OFFCURVE",
"381 655 CURVE SMOOTH",
"383 664 OFFCURVE",
"391 668 OFFCURVE",
"398 668 CURVE SMOOTH",
"424 669 OFFCURVE",
"451 670 OFFCURVE",
"469 670 CURVE",
"471 679 OFFCURVE",
"475 700 OFFCURVE",
"475 712 CURVE",
"366 702 OFFCURVE",
"268 690 OFFCURVE",
"159 708 CURVE",
"149 711 OFFCURVE",
"142 717 OFFCURVE",
"141 726 CURVE",
"125 726 OFFCURVE",
"114 684 OFFCURVE",
"115 665 CURVE SMOOTH",
"116 658 OFFCURVE",
"123 655 OFFCURVE",
"136 655 CURVE SMOOTH",
"184 655 OFFCURVE",
"252 664 OFFCURVE",
"312 664 CURVE SMOOTH",
"321 664 OFFCURVE",
"323 658 OFFCURVE",
"323 651 CURVE SMOOTH",
"323 635 OFFCURVE",
"233 190 OFFCURVE",
"153 -5 CURVE",
"153 -10 OFFCURVE",
"158 -12 OFFCURVE",
"164 -12 CURVE",
"173 -3 OFFCURVE",
"194 0 OFFCURVE",
"208 0 CURVE SMOOTH",
"222 0 OFFCURVE",
"229 5 OFFCURVE",
"233 25 CURVE SMOOTH",
"274 224 OFFCURVE"
);
},
{
closed = 1;
nodes = (
"488 25 OFFCURVE",
"909 -194 OFFCURVE",
"1182 -194 CURVE SMOOTH",
"1250 -194 OFFCURVE",
"1313 -186 OFFCURVE",
"1363 -162 CURVE SMOOTH",
"1418 -135 OFFCURVE",
"1430 -113 OFFCURVE",
"1428 -94 CURVE SMOOTH",
"1427 -83 OFFCURVE",
"1422 -73 OFFCURVE",
"1416 -69 CURVE",
"1374 -104 OFFCURVE",
"1301 -154 OFFCURVE",
"1191 -154 CURVE SMOOTH",
"893 -154 OFFCURVE",
"557 40 OFFCURVE",
"332 340 CURVE",
"332 329 LINE",
"424 404 OFFCURVE",
"801 695 OFFCURVE",
"837 689 CURVE",
"837 697 LINE",
"822 702 OFFCURVE",
"799 711 OFFCURVE",
"786 718 CURVE",
"780 718 LINE",
"602 600 OFFCURVE",
"443 450 OFFCURVE",
"282 336 CURVE"
);
}
);
width = 807;
}
);
note = K;
unicode = 004B;
},
{
glyphname = L;
lastChange = "2018-02-15 15:27:55 +0000";
layers = (
{
anchors = (
{
name = bottom;
position = "{313, 0}";
},
{
name = center;
position = "{374, 350}";
},
{
name = top;
position = "{436, 700}";
},
{
name = topright;
position = "{595, 485}";
}
);
layerId = "0B1DFD06-3317-40CA-B510-4969A0718C16";
paths = (
{
closed = 1;
nodes = (
"525 680 OFFCURVE",
"526 686 OFFCURVE",
"525 694 CURVE SMOOTH",
"525 706 OFFCURVE",
"520 722 OFFCURVE",
"512 724 CURVE",
"456 724 OFFCURVE",
"401 715 OFFCURVE",
"361 697 CURVE SMOOTH",
"351 694 OFFCURVE",
"340 688 OFFCURVE",
"338 675 CURVE SMOOTH",
"287 508 OFFCURVE",
"279 37 OFFCURVE",
"46 37 CURVE SMOOTH",
"38 37 OFFCURVE",
"37 33 OFFCURVE",
"37 27 CURVE SMOOTH",
"38 19 OFFCURVE",
"52 -13 OFFCURVE",
"62 -13 CURVE",
"134 7 OFFCURVE",
"283 23 OFFCURVE",
"422 23 CURVE SMOOTH",
"516 23 OFFCURVE",
"607 15 OFFCURVE",
"664 -4 CURVE SMOOTH",
"678 -8 OFFCURVE",
"682 -24 OFFCURVE",
"682 -33 CURVE",
"687 -37 OFFCURVE",
"692 -38 OFFCURVE",
"696 -38 CURVE",
"698 -30 OFFCURVE",
"698 -12 OFFCURVE",
"697 6 CURVE SMOOTH",
"695 26 OFFCURVE",
"693 46 OFFCURVE",
"692 51 CURVE SMOOTH",
"689 64 OFFCURVE",
"678 71 OFFCURVE",
"660 74 CURVE SMOOTH",
"635 79 OFFCURVE",
"604 80 OFFCURVE",
"570 80 CURVE SMOOTH",
"442 80 OFFCURVE",
"265 55 OFFCURVE",
"181 55 CURVE",
"185 44 LINE",
"270 94 OFFCURVE",
"363 522 OFFCURVE",
"386 625 CURVE SMOOTH",
"392 657 OFFCURVE",
"431 685 OFFCURVE",
"470 685 CURVE SMOOTH",
"495 685 OFFCURVE",
"509 683 OFFCURVE",
"524 679 CURVE"
);
}
);
width = 707;
}
);
note = L;
unicode = 004C;
},
{
glyphname = M;
lastChange = "2018-02-18 18:17:10 +0000";
layers = (
{
anchors = (
{
name = bottom;
position = "{635, 0}";
},
{
name = top;
position = "{758, 700}";
}
);
layerId = "0B1DFD06-3317-40CA-B510-4969A0718C16";
paths = (
{
closed = 1;
nodes = (
"1141 -31 OFFCURVE",
"1198 64 OFFCURVE",
"1198 140 CURVE SMOOTH",
"1198 164 OFFCURVE",
"1191 175 OFFCURVE",
"1182 180 CURVE",
"1164 84 OFFCURVE",
"1117 18 OFFCURVE",
"1050 18 CURVE SMOOTH",
"968 18 OFFCURVE",
"935 116 OFFCURVE",
"935 240 CURVE SMOOTH",
"935 361 OFFCURVE",
"958 523 OFFCURVE",
"1008 620 CURVE SMOOTH",
"1043 688 OFFCURVE",
"1063 704 OFFCURVE",
"1096 704 CURVE SMOOTH",
"1105 704 OFFCURVE",
"1113 703 OFFCURVE",
"1121 702 CURVE",
"1120 726 OFFCURVE",
"1102 761 OFFCURVE",
"1074 761 CURVE SMOOTH",
"1036 761 OFFCURVE",
"1007 729 OFFCURVE",
"950 646 CURVE SMOOTH",
"876 539 OFFCURVE",
"673 206 OFFCURVE",
"620 111 CURVE",
"635 92 LINE",
"622 178 OFFCURVE",
"582 451 OFFCURVE",
"567 553 CURVE",
"572 611 OFFCURVE",
"582 654 OFFCURVE",
"582 688 CURVE SMOOTH",
"582 708 OFFCURVE",
"550 725 OFFCURVE",
"528 725 CURVE SMOOTH",
"510 725 OFFCURVE",
"501 716 OFFCURVE",
"501 695 CURVE SMOOTH",
"501 662 OFFCURVE",
"508 625 OFFCURVE",
"517 566 CURVE",
"384 241 OFFCURVE",
"291 40 OFFCURVE",
"133 40 CURVE SMOOTH",
"47 40 OFFCURVE",
"-2 88 OFFCURVE",
"-2 173 CURVE SMOOTH",
"-2 217 OFFCURVE",
"14 255 OFFCURVE",
"49 292 CURVE",
"44 296 OFFCURVE",
"38 297 OFFCURVE",
"33 297 CURVE SMOOTH",
"-5 297 OFFCURVE",
"-47 240 OFFCURVE",
"-47 147 CURVE SMOOTH",
"-47 49 OFFCURVE",
"39 -22 OFFCURVE",
"117 -22 CURVE SMOOTH",
"335 -22 OFFCURVE",
"429 216 OFFCURVE",
"547 510 CURVE",
"530 511 LINE",
"545 425 OFFCURVE",
"585 129 OFFCURVE",
"589 64 CURVE SMOOTH",
"590 56 OFFCURVE",
"590 49 OFFCURVE",
"590 44 CURVE SMOOTH",
"590 15 OFFCURVE",
"584 11 OFFCURVE",
"580 8 CURVE",
"581 6 OFFCURVE",
"589 -2 OFFCURVE",
"596 -2 CURVE SMOOTH",
"603 -2 OFFCURVE",
"616 13 OFFCURVE",
"645 18 CURVE SMOOTH",
"649 19 OFFCURVE",
"650 22 OFFCURVE",
"650 25 CURVE SMOOTH",
"650 28 OFFCURVE",
"647 34 OFFCURVE",
"647 42 CURVE SMOOTH",
"647 57 OFFCURVE",
"660 81 OFFCURVE",
"669 95 CURVE SMOOTH",
"731 213 OFFCURVE",
"873 446 OFFCURVE",
"945 535 CURVE",
"938 541 LINE",
"913 467 OFFCURVE",
"881 338 OFFCURVE",
"881 220 CURVE SMOOTH",
"881 87 OFFCURVE",
"933 -31 OFFCURVE",
"1040 -31 CURVE SMOOTH"
);
}
);
width = 1141;
}
);
note = M;
unicode = 004D;
},
{
glyphname = N;
lastChange = "2018-02-16 07:52:35 +0000";
layers = (
{
anchors = (
{
name = bottom;
position = "{368, 0}";
},
{
name = top;
position = "{521, 650}";
}
);
layerId = "0B1DFD06-3317-40CA-B510-4969A0718C16";
paths = (
{
closed = 1;
nodes = (
"169 -15 LINE",
"169 202 OFFCURVE",
"230 388 OFFCURVE",
"288 614 CURVE",
"275 607 LINE",
"363 436 OFFCURVE",
"430 284 OFFCURVE",
"563 -8 CURVE",
"578 -8 OFFCURVE",
"594 -6 OFFCURVE",
"607 -2 CURVE",
"685 457 OFFCURVE",
"723 768 OFFCURVE",
"910 768 CURVE",
"904 778 OFFCURVE",
"860 805 OFFCURVE",
"844 805 CURVE SMOOTH",
"694 805 OFFCURVE",
"631 478 OFFCURVE",
"568 63 CURVE",
"580 80 LINE",
"468 318 OFFCURVE",
"397 468 OFFCURVE",
"293 678 CURVE SMOOTH",
"287 689 OFFCURVE",
"281 694 OFFCURVE",
"275 694 CURVE",
"247 684 OFFCURVE",
"219 677 OFFCURVE",
"181 677 CURVE SMOOTH",
"149 677 OFFCURVE",
"117 678 OFFCURVE",
"93 687 CURVE",
"90 677 OFFCURVE",
"88 668 OFFCURVE",
"88 660 CURVE SMOOTH",
"88 642 OFFCURVE",
"97 636 OFFCURVE",
"114 636 CURVE SMOOTH",
"138 636 OFFCURVE",
"165 639 OFFCURVE",
"190 639 CURVE SMOOTH",
"222 639 OFFCURVE",
"228 629 OFFCURVE",
"228 604 CURVE SMOOTH",
"228 500 OFFCURVE",
"109 178 OFFCURVE",
"109 43 CURVE SMOOTH",
"109 35 OFFCURVE",
"110 27 OFFCURVE",
"111 20 CURVE",
"118 4 OFFCURVE",
"151 -9 OFFCURVE",
"164 -15 CURVE"
);
}
);
width = 780;
}
);
note = N;
unicode = 004E;
},
{
glyphname = O;
lastChange = "2018-02-18 18:24:56 +0000";
layers = (
{
anchors = (
{
name = bottom;
position = "{389, 0}";
},
{
name = center;
position = "{433, 350}";
},
{
name = ogonek;
position = "{499, 10}";
},
{
name = top;
position = "{508, 700}";
},
{
name = topleft;
position = "{100, 700}";
},
{
name = topright;
position = "{728, 625}";
}
);
hints = (
{
horizontal = 1;
origin = "{0, 11}";
target = "{1, 11}";
},
{
horizontal = 1;
origin = "{0, 5}";
target = "{1, 5}";
},
{
origin = "{0, 8}";
target = "{1, 2}";
},
{
origin = "{1, 8}";
target = "{0, 2}";
}
);
layerId = "0B1DFD06-3317-40CA-B510-4969A0718C16";
paths = (
{
closed = 1;
nodes = (
"654 -15 OFFCURVE",
"795 186 OFFCURVE",
"795 413 CURVE SMOOTH",
"795 605 OFFCURVE",
"680 719 OFFCURVE",
"494 719 CURVE SMOOTH",
"252 719 OFFCURVE",
"105 526 OFFCURVE",
"105 296 CURVE SMOOTH",
"105 106 OFFCURVE",
"221 -15 OFFCURVE",
"409 -15 CURVE SMOOTH"
);
},
{
closed = 1;
nodes = (
"265 30 OFFCURVE",
"167 126 OFFCURVE",
"167 282 CURVE SMOOTH",
"167 496 OFFCURVE",
"278 677 OFFCURVE",
"507 677 CURVE SMOOTH",
"635 677 OFFCURVE",
"733 583 OFFCURVE",
"733 421 CURVE SMOOTH",
"733 198 OFFCURVE",
"615 30 OFFCURVE",
"389 30 CURVE SMOOTH"
);
}
);
width = 846;
}
);
note = O;
unicode = 004F;
},
{
glyphname = P;
lastChange = "2018-02-18 18:16:23 +0000";
layers = (
{
hints = (
{
horizontal = 1;
origin = "{0, 65}";
target = up;
type = BottomGhost;
},
{
horizontal = 1;
origin = "{0, 32}";
target = "{0, 20}";
},
{
horizontal = 1;
origin = "{0, 44}";
target = "{0, 14}";
},
{
horizontal = 1;
origin = "{0, 50}";
target = "{0, 41}";
},
{
origin = "{0, 59}";
target = "{0, 5}";
},
{
origin = "{0, 17}";
target = "{0, 35}";
}
);
layerId = "0B1DFD06-3317-40CA-B510-4969A0718C16";
paths = (
{
closed = 1;
nodes = (
"184 -12 OFFCURVE",
"194 -11 OFFCURVE",
"206 -8 CURVE",
"205 1 OFFCURVE",
"203 9 OFFCURVE",
"202 17 CURVE SMOOTH",
"200 31 OFFCURVE",
"202 51 OFFCURVE",
"207 78 CURVE SMOOTH",
"218 138 OFFCURVE",
"307 502 OFFCURVE",
"345 634 CURVE SMOOTH",
"355 669 OFFCURVE",
"403 670 OFFCURVE",
"468 670 CURVE SMOOTH",
"554 670 OFFCURVE",
"625 626 OFFCURVE",
"625 535 CURVE SMOOTH",
"625 410 OFFCURVE",
"540 336 OFFCURVE",
"406 336 CURVE SMOOTH",
"376 336 OFFCURVE",
"334 343 OFFCURVE",
"321 347 CURVE SMOOTH",
"318 348 OFFCURVE",
"312 340 OFFCURVE",
"313 330 CURVE SMOOTH",
"314 322 OFFCURVE",
"318 312 OFFCURVE",
"333 306 CURVE SMOOTH",
"351 299 OFFCURVE",
"383 293 OFFCURVE",
"410 293 CURVE SMOOTH",
"602 293 OFFCURVE",
"682 407 OFFCURVE",
"682 529 CURVE SMOOTH",
"682 650 OFFCURVE",
"600 716 OFFCURVE",
"476 716 CURVE SMOOTH",
"384 716 OFFCURVE",
"278 694 OFFCURVE",
"160 694 CURVE SMOOTH",
"119 694 OFFCURVE",
"99 694 OFFCURVE",
"64 716 CURVE",
"60 704 OFFCURVE",
"54 682 OFFCURVE",
"56 664 CURVE SMOOTH",
"57 652 OFFCURVE",
"72 646 OFFCURVE",
"92 646 CURVE SMOOTH",
"161 646 OFFCURVE",
"210 661 OFFCURVE",
"279 661 CURVE SMOOTH",
"288 661 OFFCURVE",
"294 656 OFFCURVE",
"294 643 CURVE SMOOTH",
"294 613 OFFCURVE",
"206 309 OFFCURVE",
"147 60 CURVE SMOOTH",
"143 43 OFFCURVE",
"142 29 OFFCURVE",
"143 13 CURVE SMOOTH",
"144 -3 OFFCURVE",
"149 -12 OFFCURVE",
"174 -12 CURVE SMOOTH"
);
}
);
width = 647;
}
);
note = P;
unicode = 0050;
},
{
glyphname = Q;
lastChange = "2018-02-18 18:14:30 +0000";
layers = (
{
hints = (
{
horizontal = 1;
origin = "{0, 48}";
target = "{0, 8}";
},
{
horizontal = 1;
origin = "{0, 23}";
target = "{0, 32}";
},
{
horizontal = 1;
place = "{-8, 38}";
},
{
origin = "{0, 14}";
target = "{0, 41}";
},
{
origin = "{0, 35}";
target = "{0, 20}";
}
);
layerId = "0B1DFD06-3317-40CA-B510-4969A0718C16";
paths = (
{
closed = 1;
nodes = (
"838 -140 OFFCURVE",
"937 -97 OFFCURVE",
"937 -46 CURVE SMOOTH",
"937 -37 OFFCURVE",
"924 -27 OFFCURVE",
"916 -17 CURVE",
"878 -73 OFFCURVE",
"809 -114 OFFCURVE",
"726 -114 CURVE SMOOTH",
"515 -114 OFFCURVE",
"383 121 OFFCURVE",
"285 372 CURVE",
"213 353 OFFCURVE",
"165 276 OFFCURVE",
"165 198 CURVE SMOOTH",
"165 74 OFFCURVE",
"271 -8 OFFCURVE",
"422 -8 CURVE SMOOTH",
"655 -8 OFFCURVE",
"814 188 OFFCURVE",
"814 445 CURVE SMOOTH",
"814 598 OFFCURVE",
"692 713 OFFCURVE",
"522 713 CURVE SMOOTH",
"252 713 OFFCURVE",
"172 507 OFFCURVE",
"172 425 CURVE SMOOTH",
"172 394 OFFCURVE",
"185 384 OFFCURVE",
"208 384 CURVE",
"224 513 OFFCURVE",
"313 684 OFFCURVE",
"520 684 CURVE SMOOTH",
"660 684 OFFCURVE",
"750 585 OFFCURVE",
"750 423 CURVE SMOOTH",
"750 219 OFFCURVE",
"630 28 OFFCURVE",
"442 28 CURVE SMOOTH",
"318 28 OFFCURVE",
"211 81 OFFCURVE",
"211 194 CURVE SMOOTH",
"211 252 OFFCURVE",
"224 300 OFFCURVE",
"265 326 CURVE",
"234 325 LINE",
"320 94 OFFCURVE",
"475 -140 OFFCURVE",
"730 -140 CURVE SMOOTH"
);
}
);
width = 879;
}
);
note = Q;
unicode = 0051;
},
{
glyphname = R;
lastChange = "2018-02-18 18:14:39 +0000";
layers = (
{
anchors = (
{
name = bottom;
position = "{329, 0}";
},
{
name = top;
position = "{551, 700}";
}
);
hints = (
{
horizontal = 1;
origin = "{0, 38}";
target = "{0, 47}";
},
{
horizontal = 1;
place = "{331, 31}";
},
{
horizontal = 1;
origin = "{0, 57}";
target = "{0, 26}";
},
{
horizontal = 1;
origin = "{0, 57}";
target = "{0, 5}";
},
{
origin = "{0, 60}";
target = "{0, 2}";
},
{
origin = "{0, 29}";
target = "{0, 54}";
},
{
origin = "{0, 44}";
target = "{0, 41}";
}
);
layerId = "0B1DFD06-3317-40CA-B510-4969A0718C16";
paths = (
{
closed = 1;
nodes = (
"133 441 OFFCURVE",
"125 466 OFFCURVE",
"125 496 CURVE SMOOTH",
"125 586 OFFCURVE",
"231 671 OFFCURVE",
"341 671 CURVE SMOOTH",
"349 671 OFFCURVE",
"356 670 OFFCURVE",
"356 662 CURVE SMOOTH",
"356 659 OFFCURVE",
"355 651 OFFCURVE",
"354 647 CURVE SMOOTH",
"321 496 OFFCURVE",
"246 264 OFFCURVE",
"140 -27 CURVE",
"144 -29 OFFCURVE",
"150 -33 OFFCURVE",
"153 -33 CURVE",
"166 -14 OFFCURVE",
"185 7 OFFCURVE",
"218 4 CURVE",
"287 264 OFFCURVE",
"359 504 OFFCURVE",
"416 658 CURVE SMOOTH",
"423 677 OFFCURVE",
"439 679 OFFCURVE",
"485 679 CURVE SMOOTH",
"610 679 OFFCURVE",
"690 625 OFFCURVE",
"690 539 CURVE SMOOTH",
"690 425 OFFCURVE",
"578 362 OFFCURVE",
"409 362 CURVE SMOOTH",
"397 362 OFFCURVE",
"394 356 OFFCURVE",
"394 350 CURVE",
"628 59 OFFCURVE",
"912 -239 OFFCURVE",
"1244 -239 CURVE SMOOTH",
"1370 -239 OFFCURVE",
"1419 -184 OFFCURVE",
"1419 -147 CURVE SMOOTH",
"1419 -141 OFFCURVE",
"1415 -135 OFFCURVE",
"1411 -132 CURVE",
"1377 -168 OFFCURVE",
"1333 -199 OFFCURVE",
"1236 -199 CURVE SMOOTH",
"946 -199 OFFCURVE",
"625 137 OFFCURVE",
"473 340 CURVE",
"470 329 LINE",
"645 358 OFFCURVE",
"750 459 OFFCURVE",
"750 552 CURVE SMOOTH",
"750 661 OFFCURVE",
"639 713 OFFCURVE",
"443 713 CURVE SMOOTH",
"280 713 OFFCURVE",
"73 637 OFFCURVE",
"73 491 CURVE SMOOTH",
"73 455 OFFCURVE",
"90 429 OFFCURVE",
"115 417 CURVE SMOOTH",
"127 411 OFFCURVE",
"138 408 OFFCURVE",
"155 408 CURVE"
);
}
);
width = 822;
}
);
note = R;
unicode = 0052;
},
{
glyphname = S;
lastChange = "2018-02-18 18:14:35 +0000";
layers = (
{
anchors = (
{
name = bottom;
position = "{228, 0}";
},
{
name = top;
position = "{407, 700}";
}
);
hints = (
{
horizontal = 1;
origin = "{0, 29}";
target = "{0, 14}";
},
{
horizontal = 1;
origin = "{0, 2}";
target = "{0, 41}";
},
{
origin = "{0, 23}";
target = "{0, 17}";
},
{
origin = "{0, 5}";
target = "{0, 38}";
},
{
origin = "{0, 11}";
target = "{0, 32}";
},
{
origin = "{0, 44}";
target = "{0, 53}";
}
);
layerId = "0B1DFD06-3317-40CA-B510-4969A0718C16";
paths = (
{
closed = 1;
nodes = (
"526 667 OFFCURVE",
"476 707 OFFCURVE",
"408 707 CURVE SMOOTH",
"275 707 OFFCURVE",
"194 632 OFFCURVE",
"194 534 CURVE SMOOTH",
"194 455 OFFCURVE",
"246 413 OFFCURVE",
"320 345 CURVE SMOOTH",
"401 271 OFFCURVE",
"420 225 OFFCURVE",
"420 176 CURVE SMOOTH",
"420 79 OFFCURVE",
"310 28 OFFCURVE",
"214 28 CURVE SMOOTH",
"105 28 OFFCURVE",
"73 67 OFFCURVE",
"73 158 CURVE SMOOTH",
"73 164 OFFCURVE",
"69 167 OFFCURVE",
"56 167 CURVE SMOOTH",
"46 167 OFFCURVE",
"42 165 OFFCURVE",
"42 161 CURVE SMOOTH",
"42 133 OFFCURVE",
"36 76 OFFCURVE",
"29 42 CURVE",
"42 15 OFFCURVE",
"133 -12 OFFCURVE",
"206 -12 CURVE SMOOTH",
"329 -12 OFFCURVE",
"486 55 OFFCURVE",
"480 195 CURVE SMOOTH",
"476 261 OFFCURVE",
"457 292 OFFCURVE",
"369 371 CURVE SMOOTH",
"300 433 OFFCURVE",
"244 478 OFFCURVE",
"244 547 CURVE SMOOTH",
"244 623 OFFCURVE",
"323 665 OFFCURVE",
"393 665 CURVE SMOOTH",
"464 665 OFFCURVE",
"499 633 OFFCURVE",
"499 592 CURVE SMOOTH",
"499 573 OFFCURVE",
"497 540 OFFCURVE",
"495 532 CURVE",
"498 528 OFFCURVE",
"514 525 OFFCURVE",
"523 525 CURVE",
"528 540 OFFCURVE",
"536 601 OFFCURVE",
"536 639 CURVE"
);
}
);
width = 530;
}
);
note = S;
unicode = 0053;
},
{
glyphname = T;
lastChange = "2018-02-18 14:57:03 +0000";
layers = (
{
anchors = (
{
name = bottom;
position = "{78, 0}";
},
{
name = center;
position = "{381, 350}";
},
{
name = top;
position = "{519, 700}";
}
);
layerId = "0B1DFD06-3317-40CA-B510-4969A0718C16";
paths = (
{
closed = 1;
nodes = (
"148 299 OFFCURVE",
"163 299 OFFCURVE",
"186 299 CURVE",
"190 304 LINE",
"98 370 OFFCURVE",
"53 424 OFFCURVE",
"53 508 CURVE SMOOTH",
"53 608 OFFCURVE",
"157 680 OFFCURVE",
"261 680 CURVE SMOOTH",
"370 680 OFFCURVE",
"560 632 OFFCURVE",
"657 632 CURVE SMOOTH",
"754 632 OFFCURVE",
"800 678 OFFCURVE",
"814 740 CURVE",
"782 692 OFFCURVE",
"726 679 OFFCURVE",
"669 679 CURVE SMOOTH",
"594 679 OFFCURVE",
"466 722 OFFCURVE",
"346 722 CURVE SMOOTH",
"97 722 OFFCURVE",
"-1 619 OFFCURVE",
"-1 502 CURVE SMOOTH",
"-1 420 OFFCURVE",
"57 331 OFFCURVE",
"126 291 CURVE"
);
},
{
closed = 1;
nodes = (
"243 -20 OFFCURVE",
"341 79 OFFCURVE",
"388 274 CURVE SMOOTH",
"414 383 OFFCURVE",
"453 580 OFFCURVE",
"496 637 CURVE",
"487 640 LINE",
"459 628 OFFCURVE",
"434 617 OFFCURVE",
"410 589 CURVE",
"386 510 OFFCURVE",
"358 382 OFFCURVE",
"333 276 CURVE SMOOTH",
"279 48 OFFCURVE",
"172 14 OFFCURVE",
"53 14 CURVE SMOOTH",
"-4 14 OFFCURVE",
"-67 34 OFFCURVE",
"-96 65 CURVE",
"-97 54 LINE",
"-74 11 OFFCURVE",
"16 -20 OFFCURVE",
"85 -20 CURVE SMOOTH"
);
}
);
width = 577;
}
);
note = T;
unicode = 0054;
},
{
glyphname = U;
lastChange = "2018-02-15 15:48:21 +0000";
layers = (
{
anchors = (
{
name = bottom;
position = "{316, 0}";
},
{
name = ogonek;
position = "{822, 10}";
},
{
name = top;
position = "{540, 660}";
},
{
name = topright;
position = "{798, 686}";
}
);
layerId = "0B1DFD06-3317-40CA-B510-4969A0718C16";
paths = (
{
closed = 1;
nodes = (
"828 -9 OFFCURVE",
"919 49 OFFCURVE",
"919 88 CURVE SMOOTH",
"919 93 OFFCURVE",
"916 100 OFFCURVE",
"912 103 CURVE",
"886 75 OFFCURVE",
"832 39 OFFCURVE",
"770 39 CURVE SMOOTH",
"697 39 OFFCURVE",
"664 66 OFFCURVE",
"659 127 CURVE SMOOTH",
"655 174 OFFCURVE",
"665 217 OFFCURVE",
"677 277 CURVE SMOOTH",
"705 416 OFFCURVE",
"736 511 OFFCURVE",
"788 641 CURVE SMOOTH",
"802 676 OFFCURVE",
"813 691 OFFCURVE",
"825 700 CURVE",
"808 705 OFFCURVE",
"788 709 OFFCURVE",
"775 709 CURVE SMOOTH",
"744 709 OFFCURVE",
"739 690 OFFCURVE",
"716 611 CURVE SMOOTH",
"684 502 OFFCURVE",
"663 428 OFFCURVE",
"623 308 CURVE SMOOTH",
"577 170 OFFCURVE",
"445 45 OFFCURVE",
"321 45 CURVE SMOOTH",
"248 45 OFFCURVE",
"219 86 OFFCURVE",
"219 166 CURVE SMOOTH",
"219 280 OFFCURVE",
"285 438 OFFCURVE",
"342 636 CURVE SMOOTH",
"346 649 OFFCURVE",
"350 661 OFFCURVE",
"349 673 CURVE SMOOTH",
"348 694 OFFCURVE",
"336 702 OFFCURVE",
"314 702 CURVE SMOOTH",
"275 702 OFFCURVE",
"212 700 OFFCURVE",
"170 700 CURVE SMOOTH",
"149 700 OFFCURVE",
"138 704 OFFCURVE",
"129 710 CURVE",
"126 702 OFFCURVE",
"123 689 OFFCURVE",
"124 673 CURVE SMOOTH",
"125 658 OFFCURVE",
"140 649 OFFCURVE",
"158 649 CURVE SMOOTH",
"188 649 OFFCURVE",
"225 657 OFFCURVE",
"255 657 CURVE SMOOTH",
"277 657 OFFCURVE",
"284 650 OFFCURVE",
"285 637 CURVE SMOOTH",
"285 625 OFFCURVE",
"282 611 OFFCURVE",
"277 593 CURVE SMOOTH",
"224 408 OFFCURVE",
"156 274 OFFCURVE",
"156 139 CURVE SMOOTH",
"156 50 OFFCURVE",
"217 -8 OFFCURVE",
"297 -8 CURVE SMOOTH",
"448 -8 OFFCURVE",
"583 93 OFFCURVE",
"654 280 CURVE",
"637 282 LINE",
"618 228 OFFCURVE",
"604 164 OFFCURVE",
"608 112 CURVE SMOOTH",
"614 33 OFFCURVE",
"664 -9 OFFCURVE",
"746 -9 CURVE SMOOTH"
);
}
);
width = 846;
}
);
note = U;
unicode = 0055;
},
{
glyphname = V;
lastChange = "2018-02-17 09:03:32 +0000";
layers = (
{
layerId = "0B1DFD06-3317-40CA-B510-4969A0718C16";
paths = (
{
closed = 1;
nodes = (
"337 71 LINE",
"337 115 OFFCURVE",
"340 198 OFFCURVE",
"339 286 CURVE SMOOTH",
"338 402 OFFCURVE",
"331 512 OFFCURVE",
"317 595 CURVE SMOOTH",
"306 663 OFFCURVE",
"260 708 OFFCURVE",
"180 708 CURVE SMOOTH",
"84 708 OFFCURVE",
"-17 662 OFFCURVE",
"-17 617 CURVE SMOOTH",
"-17 608 OFFCURVE",
"-12 601 OFFCURVE",
"-6 598 CURVE",
"31 637 OFFCURVE",
"89 661 OFFCURVE",
"138 661 CURVE SMOOTH",
"231 661 OFFCURVE",
"252 621 OFFCURVE",
"266 538 CURVE SMOOTH",
"275 485 OFFCURVE",
"286 353 OFFCURVE",
"286 210 CURVE SMOOTH",
"286 133 OFFCURVE",
"284 43 OFFCURVE",
"272 -13 CURVE",
"275 -16 OFFCURVE",
"278 -18 OFFCURVE",
"282 -20 CURVE",
"293 -10 OFFCURVE",
"313 -7 OFFCURVE",
"340 -6 CURVE SMOOTH",
"353 -6 OFFCURVE",
"357 1 OFFCURVE",
"362 15 CURVE SMOOTH",
"403 150 OFFCURVE",
"642 492 OFFCURVE",
"758 675 CURVE SMOOTH",
"789 724 OFFCURVE",
"799 756 OFFCURVE",
"799 779 CURVE SMOOTH",
"799 814 OFFCURVE",
"782 829 OFFCURVE",
"762 829 CURVE SMOOTH",
"740 829 OFFCURVE",
"729 824 OFFCURVE",
"719 821 CURVE",
"727 809 OFFCURVE",
"730 794 OFFCURVE",
"730 776 CURVE SMOOTH",
"730 679 OFFCURVE",
"433 243 OFFCURVE",
"327 74 CURVE"
);
}
);
width = 669;
}
);
note = V;
unicode = 0056;
},
{
glyphname = W;
lastChange = "2018-02-15 17:33:05 +0000";
layers = (
{
anchors = (
{
name = bottom;
position = "{501, 0}";
},
{
name = top;
position = "{620, 700}";
}
);
layerId = "0B1DFD06-3317-40CA-B510-4969A0718C16";
paths = (
{
closed = 1;
nodes = (
"1136 770 OFFCURVE",
"1110 770 CURVE SMOOTH",
"984 770 OFFCURVE",
"828 376 OFFCURVE",
"708 54 CURVE",
"721 58 LINE",
"683 240 OFFCURVE",
"652 403 OFFCURVE",
"626 632 CURVE",
"602 632 OFFCURVE",
"579 629 OFFCURVE",
"571 621 CURVE",
"466 445 OFFCURVE",
"368 253 OFFCURVE",
"271 76 CURVE",
"287 77 LINE",
"288 246 OFFCURVE",
"282 449 OFFCURVE",
"287 588 CURVE SMOOTH",
"289 633 OFFCURVE",
"299 687 OFFCURVE",
"308 696 CURVE SMOOTH",
"314 702 OFFCURVE",
"310 713 OFFCURVE",
"301 713 CURVE SMOOTH",
"291 713 OFFCURVE",
"303 703 OFFCURVE",
"111 665 CURVE",
"98 665 OFFCURVE",
"106 619 OFFCURVE",
"119 619 CURVE SMOOTH",
"138 619 OFFCURVE",
"169 632 OFFCURVE",
"199 632 CURVE SMOOTH",
"215 632 OFFCURVE",
"225 625 OFFCURVE",
"228 609 CURVE SMOOTH",
"252 466 OFFCURVE",
"244 65 OFFCURVE",
"226 -15 CURVE",
"224 -24 OFFCURVE",
"227 -29 OFFCURVE",
"234 -29 CURVE",
"253 -19 OFFCURVE",
"259 -5 OFFCURVE",
"291 -5 CURVE SMOOTH",
"300 -5 OFFCURVE",
"305 1 OFFCURVE",
"304 11 CURVE",
"306 80 OFFCURVE",
"551 499 OFFCURVE",
"587 544 CURVE",
"578 549 LINE",
"623 384 OFFCURVE",
"675 37 OFFCURVE",
"672 -4 CURVE SMOOTH",
"671 -17 OFFCURVE",
"679 -26 OFFCURVE",
"687 -23 CURVE SMOOTH",
"710 -14 OFFCURVE",
"709 -10 OFFCURVE",
"735 -6 CURVE",
"749 -2 OFFCURVE",
"750 6 OFFCURVE",
"753 15 CURVE",
"841 301 OFFCURVE",
"1010 686 OFFCURVE",
"1138 734 CURVE SMOOTH",
"1146 737 OFFCURVE",
"1152 737 OFFCURVE",
"1164 738 CURVE",
"1142 759 OFFCURVE"
);
}
);
width = 935;
}
);
note = W;
unicode = 0057;
},
{
glyphname = X;
lastChange = "2018-02-15 17:55:46 +0000";
layers = (
{
layerId = "0B1DFD06-3317-40CA-B510-4969A0718C16";
paths = (
{
closed = 1;
nodes = (
"411 511 OFFCURVE",
"380 583 CURVE SMOOTH",
"348 658 OFFCURVE",
"315 704 OFFCURVE",
"239 704 CURVE SMOOTH",
"165 704 OFFCURVE",
"72 661 OFFCURVE",
"72 624 CURVE SMOOTH",
"72 613 OFFCURVE",
"78 605 OFFCURVE",
"83 600 CURVE",
"118 631 OFFCURVE",
"154 657 OFFCURVE",
"202 657 CURVE SMOOTH",
"262 657 OFFCURVE",
"294 637 OFFCURVE",
"320 577 CURVE SMOOTH",
"356 494 OFFCURVE",
"453 258 OFFCURVE",
"502 145 CURVE SMOOTH",
"547 40 OFFCURVE",
"589 -13 OFFCURVE",
"657 -13 CURVE SMOOTH",
"727 -13 OFFCURVE",
"824 48 OFFCURVE",
"824 86 CURVE SMOOTH",
"824 94 OFFCURVE",
"820 102 OFFCURVE",
"815 106 CURVE",
"781 67 OFFCURVE",
"733 43 OFFCURVE",
"694 43 CURVE SMOOTH",
"643 43 OFFCURVE",
"606 65 OFFCURVE",
"565 154 CURVE SMOOTH",
"509 277 OFFCURVE"
);
},
{
closed = 1;
nodes = (
"358 328 OFFCURVE",
"132 142 CURVE SMOOTH",
"43 69 OFFCURVE",
"37 17 OFFCURVE",
"37 -30 CURVE SMOOTH",
"37 -60 OFFCURVE",
"73 -90 OFFCURVE",
"98 -100 CURVE",
"96 -89 OFFCURVE",
"95 -78 OFFCURVE",
"95 -67 CURVE SMOOTH",
"95 -11 OFFCURVE",
"105 40 OFFCURVE",
"150 81 CURVE SMOOTH",
"394 305 OFFCURVE",
"566 450 OFFCURVE",
"821 679 CURVE SMOOTH",
"825 682 OFFCURVE",
"827 686 OFFCURVE",
"827 691 CURVE SMOOTH",
"827 704 OFFCURVE",
"785 764 OFFCURVE",
"776 764 CURVE SMOOTH",
"767 764 OFFCURVE",
"764 763 OFFCURVE",
"762 760 CURVE",
"767 754 OFFCURVE",
"772 746 OFFCURVE",
"772 738 CURVE SMOOTH",
"772 732 OFFCURVE",
"769 728 OFFCURVE",
"765 723 CURVE SMOOTH",
"529 474 OFFCURVE"
);
}
);
width = 802;
}
);
note = X;
unicode = 0058;
},
{
glyphname = Y;
lastChange = "2018-02-15 17:35:00 +0000";
layers = (
{
anchors = (
{
name = bottom;
position = "{286, 0}";
},
{
name = top;
position = "{435, 700}";
},
{
name = topleft;
position = "{106, 700}";
}
);
layerId = "0B1DFD06-3317-40CA-B510-4969A0718C16";
paths = (
{
closed = 1;
nodes = (
"244 1 OFFCURVE",
"252 0 OFFCURVE",
"302 0 CURVE SMOOTH",
"318 0 OFFCURVE",
"324 13 OFFCURVE",
"324 28 CURVE SMOOTH",
"324 327 OFFCURVE",
"587 698 OFFCURVE",
"842 698 CURVE SMOOTH",
"857 698 OFFCURVE",
"871 697 OFFCURVE",
"886 691 CURVE",
"891 697 OFFCURVE",
"894 706 OFFCURVE",
"893 716 CURVE SMOOTH",
"891 738 OFFCURVE",
"871 754 OFFCURVE",
"830 754 CURVE SMOOTH",
"643 754 OFFCURVE",
"413 488 OFFCURVE",
"347 310 CURVE",
"367 310 LINE",
"367 510 OFFCURVE",
"304 709 OFFCURVE",
"140 709 CURVE SMOOTH",
"40 709 OFFCURVE",
"-18 638 OFFCURVE",
"-18 587 CURVE SMOOTH",
"-18 569 OFFCURVE",
"-9 563 OFFCURVE",
"-3 558 CURVE",
"30 610 OFFCURVE",
"68 647 OFFCURVE",
"130 647 CURVE SMOOTH",
"251 647 OFFCURVE",
"309 510 OFFCURVE",
"309 363 CURVE SMOOTH",
"309 215 OFFCURVE",
"261 64 OFFCURVE",
"208 -3 CURVE",
"208 -7 OFFCURVE",
"210 -10 OFFCURVE",
"213 -14 CURVE"
);
}
);
width = 585;
}
);
note = Y;
unicode = 0059;
},
{
glyphname = Z;
lastChange = "2018-02-15 15:40:10 +0000";
layers = (
{
anchors = (
{
name = bottom;
position = "{310, 0}";
},
{
name = top;
position = "{433, 700}";
}
);
layerId = "0B1DFD06-3317-40CA-B510-4969A0718C16";
paths = (
{
closed = 1;
nodes = (
"1005 -175 OFFCURVE",
"1005 -58 OFFCURVE",
"966 -37 CURVE",
"952 -84 OFFCURVE",
"897 -101 OFFCURVE",
"806 -101 CURVE SMOOTH",
"604 -101 OFFCURVE",
"336 14 OFFCURVE",
"117 50 CURVE",
"123 35 LINE",
"159 58 OFFCURVE",
"183 82 OFFCURVE",
"203 105 CURVE SMOOTH",
"380 308 OFFCURVE",
"559 485 OFFCURVE",
"699 634 CURVE SMOOTH",
"715 651 OFFCURVE",
"729 657 OFFCURVE",
"742 659 CURVE",
"741 672 OFFCURVE",
"741 697 OFFCURVE",
"720 697 CURVE SMOOTH",
"613 697 OFFCURVE",
"289 703 OFFCURVE",
"154 692 CURVE SMOOTH",
"142 691 OFFCURVE",
"133 684 OFFCURVE",
"131 669 CURVE SMOOTH",
"128 648 OFFCURVE",
"124 602 OFFCURVE",
"119 580 CURVE",
"123 576 OFFCURVE",
"129 571 OFFCURVE",
"137 571 CURVE",
"142 583 OFFCURVE",
"147 603 OFFCURVE",
"158 620 CURVE SMOOTH",
"190 669 OFFCURVE",
"439 660 OFFCURVE",
"669 653 CURVE",
"658 663 LINE",
"520 525 OFFCURVE",
"187 142 OFFCURVE",
"108 77 CURVE SMOOTH",
"91 63 OFFCURVE",
"68 50 OFFCURVE",
"39 50 CURVE SMOOTH",
"32 50 OFFCURVE",
"31 42 OFFCURVE",
"31 33 CURVE SMOOTH",
"32 19 OFFCURVE",
"40 2 OFFCURVE",
"45 2 CURVE SMOOTH",
"387 2 OFFCURVE",
"639 -170 OFFCURVE",
"856 -173 CURVE SMOOTH"
);
}
);
width = 732;
}
);
note = Z;
unicode = 005A;
},
{
color = 4;
glyphname = a;
lastChange = "2018-02-15 17:04:02 +0000";
layers = (
{
anchors = (
{
name = bottom;
position = "{238, 0}";
},
{
name = ogonek;
position = "{458, 10}";
},
{
name = top;
position = "{310, 420}";
}
);
layerId = "0B1DFD06-3317-40CA-B510-4969A0718C16";
paths = (
{
closed = 1;
nodes = (
"327 157 LINE",
"322 132 OFFCURVE",
"318 116 OFFCURVE",
"318 92 CURVE SMOOTH",
"318 38 OFFCURVE",
"345 -12 OFFCURVE",
"399 -12 CURVE SMOOTH",
"515 -12 OFFCURVE",
"658 108 OFFCURVE",
"658 209 CURVE SMOOTH",
"658 219 OFFCURVE",
"654 231 OFFCURVE",
"645 231 CURVE",
"601 107 OFFCURVE",
"474 28 OFFCURVE",
"414 28 CURVE SMOOTH",
"376 28 OFFCURVE",
"365 54 OFFCURVE",
"365 114 CURVE SMOOTH",
"365 171 OFFCURVE",
"384 245 OFFCURVE",
"419 377 CURVE SMOOTH",
"424 395 OFFCURVE",
"432 414 OFFCURVE",
"448 427 CURVE",
"445 429 LINE",
"396 424 LINE SMOOTH",
"382 423 OFFCURVE",
"380 416 OFFCURVE",
"367 382 CURVE SMOOTH",
"356 354 OFFCURVE",
"320 179 OFFCURVE",
"309 137 CURVE SMOOTH",
"292 75 OFFCURVE",
"225 39 OFFCURVE",
"189 39 CURVE SMOOTH",
"167 39 OFFCURVE",
"136 70 OFFCURVE",
"133 104 CURVE",
"145 163 OFFCURVE",
"158 211 OFFCURVE",
"173 282 CURVE SMOOTH",
"179 311 OFFCURVE",
"218 380 OFFCURVE",
"295 380 CURVE SMOOTH",
"328 380 OFFCURVE",
"362 355 OFFCURVE",
"377 328 CURVE",
"390 364 LINE",
"376 385 OFFCURVE",
"338 418 OFFCURVE",
"292 418 CURVE SMOOTH",
"205 418 OFFCURVE",
"134 342 OFFCURVE",
"127 303 CURVE SMOOTH",
"112 220 OFFCURVE",
"94 171 OFFCURVE",
"78 101 CURVE",
"81 53 OFFCURVE",
"132 -8 OFFCURVE",
"191 -8 CURVE SMOOTH",
"244 -8 OFFCURVE",
"342 61 OFFCURVE",
"350 158 CURVE"
);
}
);
width = 520;
}
);
note = a;
unicode = 0061;
},
{
color = 4;
glyphname = b;
lastChange = "2018-02-15 19:12:14 +0000";
layers = (
{
layerId = "0B1DFD06-3317-40CA-B510-4969A0718C16";
paths = (
{
closed = 1;
nodes = (
"292 -12 OFFCURVE",
"371 72 OFFCURVE",
"371 243 CURVE SMOOTH",
"371 275 OFFCURVE",
"354 319 OFFCURVE",
"342 347 CURVE",
"331 336 LINE",
"353 286 OFFCURVE",
"422 252 OFFCURVE",
"488 252 CURVE SMOOTH",
"577 252 OFFCURVE",
"656 295 OFFCURVE",
"656 336 CURVE SMOOTH",
"656 342 OFFCURVE",
"654 345 OFFCURVE",
"651 348 CURVE",
"612 310 OFFCURVE",
"572 292 OFFCURVE",
"503 292 CURVE SMOOTH",
"396 292 OFFCURVE",
"357 363 OFFCURVE",
"330 409 CURVE",
"318 406 OFFCURVE",
"290 380 OFFCURVE",
"290 366 CURVE",
"308 339 OFFCURVE",
"326 279 OFFCURVE",
"326 229 CURVE SMOOTH",
"326 116 OFFCURVE",
"260 36 OFFCURVE",
"214 36 CURVE SMOOTH",
"182 36 OFFCURVE",
"148 69 OFFCURVE",
"148 104 CURVE",
"168 225 OFFCURVE",
"184 307 OFFCURVE",
"237 534 CURVE SMOOTH",
"314 864 OFFCURVE",
"466 1004 OFFCURVE",
"603 1004 CURVE SMOOTH",
"650 1004 OFFCURVE",
"681 1000 OFFCURVE",
"727 981 CURVE",
"727 990 LINE",
"716 1036 OFFCURVE",
"650 1068 OFFCURVE",
"597 1068 CURVE SMOOTH",
"406 1068 OFFCURVE",
"278 907 OFFCURVE",
"190 546 CURVE SMOOTH",
"133 313 OFFCURVE",
"118 228 OFFCURVE",
"95 103 CURVE",
"95 51 OFFCURVE",
"143 -12 OFFCURVE",
"204 -12 CURVE SMOOTH"
);
}
);
width = 499;
}
);
note = b;
unicode = 0062;
},
{
color = 4;
glyphname = c;
lastChange = "2018-02-15 16:51:40 +0000";
layers = (
{
anchors = (
{
name = bottom;
position = "{168, 0}";
},
{
name = top;
position = "{213, 420}";
}
);
layerId = "0B1DFD06-3317-40CA-B510-4969A0718C16";
paths = (
{
closed = 1;
nodes = (
"518 132 OFFCURVE",
"511 221 CURVE SMOOTH",
"510 233 OFFCURVE",
"507 242 OFFCURVE",
"495 242 CURVE",
"429 78 OFFCURVE",
"293 40 OFFCURVE",
"221 40 CURVE SMOOTH",
"174 40 OFFCURVE",
"128 84 OFFCURVE",
"126 121 CURVE",
"141 192 OFFCURVE",
"157 265 OFFCURVE",
"167 321 CURVE SMOOTH",
"172 349 OFFCURVE",
"220 372 OFFCURVE",
"249 372 CURVE SMOOTH",
"283 372 OFFCURVE",
"317 337 OFFCURVE",
"320 292 CURVE",
"325 291 LINE",
"344 305 OFFCURVE",
"354 325 OFFCURVE",
"352 345 CURVE SMOOTH",
"348 384 OFFCURVE",
"291 415 OFFCURVE",
"248 415 CURVE SMOOTH",
"210 415 OFFCURVE",
"133 381 OFFCURVE",
"125 338 CURVE SMOOTH",
"112 270 OFFCURVE",
"96 200 OFFCURVE",
"73 114 CURVE",
"76 72 OFFCURVE",
"140 -5 OFFCURVE",
"204 -5 CURVE SMOOTH",
"364 -5 OFFCURVE"
);
}
);
width = 382;
}
);
note = c;
unicode = 0063;
},
{
color = 4;
glyphname = d;
lastChange = "2018-02-15 15:58:01 +0000";
layers = (
{
anchors = (
{
name = bottom;
position = "{167, 0}";
},
{
name = center;
position = "{208, 235}";
},
{
name = top;
position = "{245, 420}";
},
{
name = topright;
position = "{432, 420}";
}
);
layerId = "0B1DFD06-3317-40CA-B510-4969A0718C16";
paths = (
{
closed = 1;
nodes = (
"226 -8 OFFCURVE",
"296 41 OFFCURVE",
"327 100 CURVE",
"314 147 LINE",
"285 89 OFFCURVE",
"223 33 OFFCURVE",
"187 33 CURVE SMOOTH",
"165 33 OFFCURVE",
"123 70 OFFCURVE",
"123 104 CURVE",
"139 163 OFFCURVE",
"147 229 OFFCURVE",
"167 300 CURVE SMOOTH",
"175 329 OFFCURVE",
"210 378 OFFCURVE",
"287 378 CURVE SMOOTH",
"308 378 OFFCURVE",
"355 357 OFFCURVE",
"368 337 CURVE",
"385 377 LINE",
"372 397 OFFCURVE",
"310 421 OFFCURVE",
"287 421 CURVE SMOOTH",
"195 421 OFFCURVE",
"130 355 OFFCURVE",
"122 316 CURVE SMOOTH",
"105 233 OFFCURVE",
"91 171 OFFCURVE",
"70 101 CURVE",
"70 53 OFFCURVE",
"127 -8 OFFCURVE",
"186 -8 CURVE SMOOTH"
);
},
{
closed = 1;
nodes = (
"482 -5 OFFCURVE",
"599 114 OFFCURVE",
"599 193 CURVE SMOOTH",
"599 205 OFFCURVE",
"593 214 OFFCURVE",
"585 214 CURVE",
"530 100 OFFCURVE",
"449 42 OFFCURVE",
"389 42 CURVE SMOOTH",
"360 42 OFFCURVE",
"351 62 OFFCURVE",
"351 101 CURVE SMOOTH",
"351 116 OFFCURVE",
"353 135 OFFCURVE",
"357 159 CURVE SMOOTH",
"373 257 OFFCURVE",
"383 307 OFFCURVE",
"442 534 CURVE SMOOTH",
"527 861 OFFCURVE",
"670 1003 OFFCURVE",
"807 1003 CURVE SMOOTH",
"854 1003 OFFCURVE",
"886 997 OFFCURVE",
"932 975 CURVE",
"932 984 LINE",
"921 1030 OFFCURVE",
"855 1058 OFFCURVE",
"802 1058 CURVE SMOOTH",
"611 1058 OFFCURVE",
"492 904 OFFCURVE",
"395 546 CURVE SMOOTH",
"332 313 OFFCURVE",
"325 257 OFFCURVE",
"304 132 CURVE SMOOTH",
"302 120 OFFCURVE",
"301 108 OFFCURVE",
"301 97 CURVE SMOOTH",
"301 34 OFFCURVE",
"332 -5 OFFCURVE",
"382 -5 CURVE SMOOTH"
);
}
);
width = 475;
}
);
note = d;
unicode = 0064;
},
{
color = 4;
glyphname = e;
lastChange = "2018-02-15 17:17:24 +0000";
layers = (
{
anchors = (
{
name = bottom;
position = "{194, 0}";
},
{
name = ogonek;
position = "{280, 10}";
},
{
name = top;
position = "{258, 420}";
}
);
layerId = "0B1DFD06-3317-40CA-B510-4969A0718C16";
paths = (
{
closed = 1;
nodes = (
"332 -5 OFFCURVE",
"445 84 OFFCURVE",
"506 183 CURVE SMOOTH",
"514 196 OFFCURVE",
"519 206 OFFCURVE",
"519 221 CURVE SMOOTH",
"519 232 OFFCURVE",
"510 238 OFFCURVE",
"501 239 CURVE",
"457 156 OFFCURVE",
"353 38 OFFCURVE",
"212 38 CURVE SMOOTH",
"177 38 OFFCURVE",
"125 86 OFFCURVE",
"123 123 CURVE",
"138 194 OFFCURVE",
"150 260 OFFCURVE",
"162 316 CURVE SMOOTH",
"168 344 OFFCURVE",
"223 379 OFFCURVE",
"247 379 CURVE SMOOTH",
"271 379 OFFCURVE",
"299 345 OFFCURVE",
"299 325 CURVE SMOOTH",
"299 272 OFFCURVE",
"251 225 OFFCURVE",
"128 225 CURVE",
"120 190 LINE",
"274 186 OFFCURVE",
"345 252 OFFCURVE",
"345 342 CURVE SMOOTH",
"345 375 OFFCURVE",
"298 420 OFFCURVE",
"254 420 CURVE SMOOTH",
"216 420 OFFCURVE",
"128 371 OFFCURVE",
"119 328 CURVE SMOOTH",
"105 260 OFFCURVE",
"96 200 OFFCURVE",
"73 114 CURVE",
"76 72 OFFCURVE",
"144 -5 OFFCURVE",
"205 -5 CURVE SMOOTH"
);
}
);
width = 378;
}
);
note = e;
unicode = 0065;
},
{
color = 4;
glyphname = f;
lastChange = "2018-02-15 11:50:41 +0000";
layers = (
{
layerId = "0B1DFD06-3317-40CA-B510-4969A0718C16";
paths = (
{
closed = 1;
nodes = (
"-1 -577 OFFCURVE",
"78 -382 OFFCURVE",
"164 -30 CURVE SMOOTH",
"190 74 OFFCURVE",
"231 232 OFFCURVE",
"258 360 CURVE SMOOTH",
"355 822 OFFCURVE",
"404 936 OFFCURVE",
"508 936 CURVE SMOOTH",
"553 936 OFFCURVE",
"591 924 OFFCURVE",
"618 901 CURVE",
"631 908 OFFCURVE",
"640 921 OFFCURVE",
"639 939 CURVE SMOOTH",
"637 968 OFFCURVE",
"608 990 OFFCURVE",
"559 990 CURVE SMOOTH",
"518 990 OFFCURVE",
"474 974 OFFCURVE",
"441 951 CURVE SMOOTH",
"326 871 OFFCURVE",
"298 773 OFFCURVE",
"205 365 CURVE SMOOTH",
"177 242 OFFCURVE",
"125 14 OFFCURVE",
"98 -98 CURVE SMOOTH",
"23 -410 OFFCURVE",
"-33 -517 OFFCURVE",
"-157 -517 CURVE SMOOTH",
"-234 -517 OFFCURVE",
"-273 -409 OFFCURVE",
"-290 -286 CURVE",
"-306 -315 OFFCURVE",
"-334 -342 OFFCURVE",
"-331 -379 CURVE SMOOTH",
"-325 -456 OFFCURVE",
"-265 -577 OFFCURVE",
"-174 -577 CURVE SMOOTH"
);
},
{
closed = 1;
nodes = (
"23 330 OFFCURVE",
"63 341 OFFCURVE",
"260 347 CURVE SMOOTH",
"330 349 OFFCURVE",
"404 352 OFFCURVE",
"432 352 CURVE SMOOTH",
"445 352 OFFCURVE",
"466 365 OFFCURVE",
"466 381 CURVE SMOOTH",
"466 384 OFFCURVE",
"466 387 OFFCURVE",
"464 390 CURVE",
"353 390 OFFCURVE",
"272 387 OFFCURVE",
"255 387 CURVE SMOOTH",
"207 388 OFFCURVE",
"98 381 OFFCURVE",
"63 370 CURVE SMOOTH",
"34 361 OFFCURVE",
"0 321 OFFCURVE",
"-15 241 CURVE",
"-2 237 LINE"
);
}
);
width = 388;
}
);
note = f;
unicode = 0066;
},
{
color = 4;
glyphname = g;
lastChange = "2018-02-18 17:17:29 +0000";
layers = (
{
anchors = (
{
name = bottom;
position = "{190, 0}";
},
{
name = top;
position = "{295, 420}";
}
);
layerId = "0B1DFD06-3317-40CA-B510-4969A0718C16";
paths = (
{
closed = 1;
nodes = (
"312 90 LINE",
"220 -301 OFFCURVE",
"130 -547 OFFCURVE",
"-103 -547 CURVE SMOOTH",
"-216 -547 OFFCURVE",
"-297 -502 OFFCURVE",
"-340 -386 CURVE",
"-346 -396 OFFCURVE",
"-352 -407 OFFCURVE",
"-352 -417 CURVE SMOOTH",
"-352 -541 OFFCURVE",
"-226 -605 OFFCURVE",
"-131 -605 CURVE SMOOTH",
"138 -605 OFFCURVE",
"234 -416 OFFCURVE",
"336 1 CURVE SMOOTH",
"367 128 OFFCURVE",
"387 257 OFFCURVE",
"431 390 CURVE SMOOTH",
"433 396 OFFCURVE",
"435 403 OFFCURVE",
"435 410 CURVE SMOOTH",
"435 429 OFFCURVE",
"420 429 OFFCURVE",
"394 455 CURVE",
"390 454 LINE",
"381 395 OFFCURVE",
"378 366 OFFCURVE",
"366 318 CURVE SMOOTH",
"322 137 LINE SMOOTH",
"306 72 OFFCURVE",
"216 38 OFFCURVE",
"180 38 CURVE SMOOTH",
"158 38 OFFCURVE",
"126 70 OFFCURVE",
"126 104 CURVE",
"137 161 OFFCURVE",
"145 236 OFFCURVE",
"160 306 CURVE SMOOTH",
"169 348 OFFCURVE",
"228 383 OFFCURVE",
"271 383 CURVE SMOOTH",
"290 383 OFFCURVE",
"339 351 OFFCURVE",
"366 295 CURVE",
"384 337 LINE",
"361 385 OFFCURVE",
"307 428 OFFCURVE",
"276 428 CURVE SMOOTH",
"212 428 OFFCURVE",
"126 370 OFFCURVE",
"116 327 CURVE SMOOTH",
"97 244 OFFCURVE",
"86 169 OFFCURVE",
"70 101 CURVE",
"70 53 OFFCURVE",
"119 -8 OFFCURVE",
"178 -8 CURVE SMOOTH",
"211 -8 OFFCURVE",
"294 22 OFFCURVE",
"330 83 CURVE"
);
}
);
width = 454;
}
);
note = g;
unicode = 0067;
},
{
color = 4;
glyphname = h;
lastChange = "2018-02-15 17:37:54 +0000";
layers = (
{
anchors = (
{
name = bottom;
position = "{186, 0}";
},
{
name = center;
position = "{228, 210}";
},
{
name = top;
position = "{372, 420}";
}
);
layerId = "0B1DFD06-3317-40CA-B510-4969A0718C16";
paths = (
{
closed = 1;
nodes = (
"453 -12 OFFCURVE",
"558 79 OFFCURVE",
"617 187 CURVE SMOOTH",
"623 198 OFFCURVE",
"626 211 OFFCURVE",
"625 218 CURVE SMOOTH",
"623 232 OFFCURVE",
"618 237 OFFCURVE",
"609 240 CURVE",
"583 187 OFFCURVE",
"487 30 OFFCURVE",
"368 30 CURVE SMOOTH",
"328 30 OFFCURVE",
"322 50 OFFCURVE",
"322 83 CURVE SMOOTH",
"322 125 OFFCURVE",
"371 314 OFFCURVE",
"393 379 CURVE",
"393 389 OFFCURVE",
"364 416 OFFCURVE",
"354 416 CURVE SMOOTH",
"305 416 OFFCURVE",
"186 302 OFFCURVE",
"141 229 CURVE",
"147 217 LINE",
"162 280 OFFCURVE",
"175 341 OFFCURVE",
"194 420 CURVE SMOOTH",
"283 789 OFFCURVE",
"404 1028 OFFCURVE",
"598 1028 CURVE SMOOTH",
"683 1028 OFFCURVE",
"750 988 OFFCURVE",
"780 895 CURVE",
"787 907 LINE",
"787 916 OFFCURVE",
"787 925 OFFCURVE",
"786 933 CURVE SMOOTH",
"771 1055 OFFCURVE",
"681 1088 OFFCURVE",
"601 1088 CURVE SMOOTH",
"390 1088 OFFCURVE",
"242 816 OFFCURVE",
"150 421 CURVE SMOOTH",
"132 344 OFFCURVE",
"87 154 OFFCURVE",
"63 52 CURVE SMOOTH",
"59 35 OFFCURVE",
"57 22 OFFCURVE",
"57 14 CURVE SMOOTH",
"57 1 OFFCURVE",
"87 -7 OFFCURVE",
"99 -7 CURVE SMOOTH",
"107 -7 OFFCURVE",
"109 2 OFFCURVE",
"113 24 CURVE SMOOTH",
"118 49 OFFCURVE",
"126 109 OFFCURVE",
"138 155 CURVE",
"179 242 OFFCURVE",
"297 353 OFFCURVE",
"317 353 CURVE SMOOTH",
"321 353 OFFCURVE",
"327 348 OFFCURVE",
"329 343 CURVE",
"315 287 OFFCURVE",
"272 145 OFFCURVE",
"272 72 CURVE SMOOTH",
"272 17 OFFCURVE",
"303 -12 OFFCURVE",
"349 -12 CURVE SMOOTH"
);
}
);
width = 484;
}
);
note = h;
unicode = 0068;
},
{
color = 4;
glyphname = i;
lastChange = "2018-02-18 14:53:46 +0000";
layers = (
{
layerId = "0B1DFD06-3317-40CA-B510-4969A0718C16";
paths = (
{
closed = 1;
nodes = (
"252 -7 OFFCURVE",
"355 75 OFFCURVE",
"423 182 CURVE SMOOTH",
"430 193 OFFCURVE",
"433 206 OFFCURVE",
"433 213 CURVE SMOOTH",
"433 227 OFFCURVE",
"432 232 OFFCURVE",
"423 235 CURVE",
"394 182 OFFCURVE",
"275 36 OFFCURVE",
"166 36 CURVE SMOOTH",
"137 36 OFFCURVE",
"117 52 OFFCURVE",
"117 84 CURVE",
"135 148 OFFCURVE",
"178 335 OFFCURVE",
"198 408 CURVE",
"196 412 OFFCURVE",
"189 416 OFFCURVE",
"183 416 CURVE SMOOTH",
"174 416 OFFCURVE",
"161 411 OFFCURVE",
"147 396 CURVE",
"133 342 OFFCURVE",
"90 157 OFFCURVE",
"68 86 CURVE",
"68 19 OFFCURVE",
"117 -7 OFFCURVE",
"158 -7 CURVE SMOOTH"
);
},
{
closed = 1;
nodes = (
"241 543 OFFCURVE",
"260 569 OFFCURVE",
"260 594 CURVE SMOOTH",
"260 610 OFFCURVE",
"252 630 OFFCURVE",
"230 630 CURVE SMOOTH",
"201 630 OFFCURVE",
"183 605 OFFCURVE",
"183 578 CURVE SMOOTH",
"183 559 OFFCURVE",
"194 543 OFFCURVE",
"213 543 CURVE SMOOTH"
);
}
);
width = 302;
}
);
note = i;
unicode = 0069;
},
{
color = 4;
glyphname = j;
lastChange = "2018-02-15 10:48:16 +0000";
layers = (
{
layerId = "0B1DFD06-3317-40CA-B510-4969A0718C16";
paths = (
{
closed = 1;
nodes = (
"-30 -496 OFFCURVE",
"42 -371 OFFCURVE",
"80 -201 CURVE SMOOTH",
"108 -74 OFFCURVE",
"178 253 OFFCURVE",
"209 392 CURVE",
"206 402 OFFCURVE",
"193 409 OFFCURVE",
"185 412 CURVE",
"156 403 OFFCURVE",
"117 397 OFFCURVE",
"53 385 CURVE",
"54 367 OFFCURVE",
"59 357 OFFCURVE",
"75 357 CURVE SMOOTH",
"99 357 OFFCURVE",
"159 365 OFFCURVE",
"169 368 CURVE",
"156 377 LINE",
"156 343 OFFCURVE",
"74 -32 OFFCURVE",
"39 -183 CURVE SMOOTH",
"2 -341 OFFCURVE",
"-54 -439 OFFCURVE",
"-148 -451 CURVE",
"-122 -474 OFFCURVE",
"-115 -496 OFFCURVE",
"-90 -496 CURVE SMOOTH"
);
},
{
closed = 1;
nodes = (
"243 543 OFFCURVE",
"259 566 OFFCURVE",
"259 590 CURVE SMOOTH",
"259 606 OFFCURVE",
"251 630 OFFCURVE",
"227 630 CURVE SMOOTH",
"200 630 OFFCURVE",
"185 608 OFFCURVE",
"185 583 CURVE SMOOTH",
"185 562 OFFCURVE",
"195 543 OFFCURVE",
"216 543 CURVE SMOOTH"
);
}
);
width = 270;
}
);
note = j;
unicode = 006A;
},
{
color = 4;
glyphname = k;
lastChange = "2018-02-15 16:52:11 +0000";
layers = (
{
layerId = "0B1DFD06-3317-40CA-B510-4969A0718C16";
paths = (
{
closed = 1;
nodes = (
"351 323 OFFCURVE",
"463 407 CURVE",
"450 420 OFFCURVE",
"432 427 OFFCURVE",
"410 427 CURVE SMOOTH",
"387 427 OFFCURVE",
"172 171 OFFCURVE",
"93 58 CURVE",
"102 50 LINE",
"139 223 OFFCURVE",
"173 399 OFFCURVE",
"223 534 CURVE SMOOTH",
"338 844 OFFCURVE",
"487 1038 OFFCURVE",
"624 1038 CURVE SMOOTH",
"711 1038 OFFCURVE",
"780 1006 OFFCURVE",
"822 908 CURVE",
"824 910 OFFCURVE",
"826 914 OFFCURVE",
"826 917 CURVE SMOOTH",
"826 1055 OFFCURVE",
"733 1108 OFFCURVE",
"640 1108 CURVE SMOOTH",
"449 1108 OFFCURVE",
"301 888 OFFCURVE",
"180 546 CURVE SMOOTH",
"127 396 OFFCURVE",
"50 60 OFFCURVE",
"53 20 CURVE SMOOTH",
"54 8 OFFCURVE",
"78 -14 OFFCURVE",
"89 -14 CURVE SMOOTH",
"94 -14 OFFCURVE",
"103 0 OFFCURVE",
"107 6 CURVE SMOOTH",
"181 117 OFFCURVE"
);
},
{
closed = 1;
nodes = (
"313 172 OFFCURVE",
"286 276 CURVE",
"246 224 LINE",
"292 85 OFFCURVE",
"331 -12 OFFCURVE",
"425 -12 CURVE SMOOTH",
"540 -12 OFFCURVE",
"667 182 OFFCURVE",
"662 243 CURVE SMOOTH",
"660 266 OFFCURVE",
"652 281 OFFCURVE",
"641 281 CURVE",
"615 146 OFFCURVE",
"499 30 OFFCURVE",
"438 30 CURVE SMOOTH",
"342 30 OFFCURVE"
);
}
);
width = 516;
}
);
note = k;
unicode = 006B;
},
{
color = 4;
glyphname = l;
lastChange = "2018-02-15 12:12:57 +0000";
layers = (
{
layerId = "0B1DFD06-3317-40CA-B510-4969A0718C16";
paths = (
{
closed = 1;
nodes = (
"248 585 OFFCURVE",
"354 835 CURVE SMOOTH",
"410 967 OFFCURVE",
"416 981 OFFCURVE",
"434 981 CURVE SMOOTH",
"445 981 OFFCURVE",
"455 966 OFFCURVE",
"455 926 CURVE SMOOTH",
"455 814 OFFCURVE",
"329 507 OFFCURVE",
"166 310 CURVE",
"151 236 LINE",
"356 453 OFFCURVE",
"501 767 OFFCURVE",
"501 917 CURVE SMOOTH",
"501 996 OFFCURVE",
"470 1025 OFFCURVE",
"442 1025 CURVE SMOOTH",
"403 1025 OFFCURVE",
"362 970 OFFCURVE",
"332 900 CURVE SMOOTH",
"223 645 OFFCURVE",
"95 288 OFFCURVE",
"95 118 CURVE SMOOTH",
"95 38 OFFCURVE",
"127 -7 OFFCURVE",
"201 -7 CURVE SMOOTH",
"319 -7 OFFCURVE",
"454 102 OFFCURVE",
"516 209 CURVE SMOOTH",
"523 221 OFFCURVE",
"526 234 OFFCURVE",
"526 246 CURVE SMOOTH",
"526 265 OFFCURVE",
"518 280 OFFCURVE",
"504 280 CURVE",
"460 153 OFFCURVE",
"327 38 OFFCURVE",
"225 38 CURVE SMOOTH",
"176 38 OFFCURVE",
"145 58 OFFCURVE",
"145 124 CURVE SMOOTH",
"145 259 OFFCURVE"
);
}
);
width = 376;
}
);
note = l;
unicode = 006C;
},
{
color = 4;
glyphname = m;
lastChange = "2018-02-15 10:48:36 +0000";
layers = (
{
anchors = (
{
name = bottom;
position = "{252, 0}";
},
{
name = top;
position = "{336, 420}";
}
);
layerId = "0B1DFD06-3317-40CA-B510-4969A0718C16";
paths = (
{
closed = 1;
nodes = (
"673 -2 OFFCURVE",
"802 174 OFFCURVE",
"799 232 CURVE SMOOTH",
"798 250 OFFCURVE",
"788 264 OFFCURVE",
"773 264 CURVE",
"735 151 OFFCURVE",
"656 41 OFFCURVE",
"547 41 CURVE SMOOTH",
"514 41 OFFCURVE",
"504 63 OFFCURVE",
"504 96 CURVE SMOOTH",
"504 177 OFFCURVE",
"545 296 OFFCURVE",
"571 376 CURVE",
"570 397 OFFCURVE",
"542 413 OFFCURVE",
"521 413 CURVE SMOOTH",
"474 413 OFFCURVE",
"354 273 OFFCURVE",
"323 224 CURVE",
"331 218 LINE",
"340 246 OFFCURVE",
"361 347 OFFCURVE",
"365 370 CURVE",
"365 380 OFFCURVE",
"335 402 OFFCURVE",
"320 402 CURVE SMOOTH",
"292 402 OFFCURVE",
"198 351 OFFCURVE",
"126 197 CURVE",
"140 199 LINE",
"162 298 OFFCURVE",
"186 374 OFFCURVE",
"193 403 CURVE",
"188 408 OFFCURVE",
"163 419 OFFCURVE",
"154 419 CURVE SMOOTH",
"146 419 OFFCURVE",
"143 413 OFFCURVE",
"140 402 CURVE SMOOTH",
"113 293 OFFCURVE",
"84 182 OFFCURVE",
"55 71 CURVE SMOOTH",
"51 56 OFFCURVE",
"45 32 OFFCURVE",
"45 26 CURVE SMOOTH",
"45 16 OFFCURVE",
"77 5 OFFCURVE",
"87 5 CURVE",
"92 31 OFFCURVE",
"102 78 OFFCURVE",
"114 118 CURVE",
"167 232 OFFCURVE",
"273 360 OFFCURVE",
"304 360 CURVE SMOOTH",
"309 360 OFFCURVE",
"315 357 OFFCURVE",
"319 352 CURVE",
"314 330 OFFCURVE",
"280 189 OFFCURVE",
"251 85 CURVE SMOOTH",
"243 56 OFFCURVE",
"238 38 OFFCURVE",
"242 30 CURVE",
"247 19 OFFCURVE",
"263 4 OFFCURVE",
"274 4 CURVE SMOOTH",
"282 4 OFFCURVE",
"284 16 OFFCURVE",
"288 33 CURVE SMOOTH",
"296 67 OFFCURVE",
"311 131 OFFCURVE",
"321 163 CURVE",
"346 211 OFFCURVE",
"476 360 OFFCURVE",
"502 360 CURVE SMOOTH",
"508 360 OFFCURVE",
"515 356 OFFCURVE",
"515 352 CURVE",
"505 307 OFFCURVE",
"452 193 OFFCURVE",
"452 84 CURVE SMOOTH",
"452 36 OFFCURVE",
"490 -2 OFFCURVE",
"539 -2 CURVE SMOOTH"
);
}
);
width = 648;
}
);
note = m;
unicode = 006D;
},
{
color = 4;
glyphname = n;
lastChange = "2018-02-15 12:01:33 +0000";
layers = (
{
anchors = (
{
name = bottom;
position = "{190, 0}";
},
{
name = top;
position = "{264, 420}";
}
);
layerId = "0B1DFD06-3317-40CA-B510-4969A0718C16";
paths = (
{
closed = 1;
nodes = (
"463 -12 OFFCURVE",
"590 147 OFFCURVE",
"590 212 CURVE SMOOTH",
"590 230 OFFCURVE",
"586 244 OFFCURVE",
"571 244 CURVE",
"528 145 OFFCURVE",
"444 28 OFFCURVE",
"342 28 CURVE SMOOTH",
"316 28 OFFCURVE",
"308 43 OFFCURVE",
"307 68 CURVE SMOOTH",
"306 99 OFFCURVE",
"355 274 OFFCURVE",
"397 384 CURVE",
"394 394 OFFCURVE",
"369 413 OFFCURVE",
"359 413 CURVE SMOOTH",
"322 413 OFFCURVE",
"205 306 OFFCURVE",
"130 216 CURVE",
"137 190 LINE",
"168 292 OFFCURVE",
"190 383 OFFCURVE",
"192 398 CURVE",
"189 410 OFFCURVE",
"167 415 OFFCURVE",
"158 415 CURVE SMOOTH",
"150 415 OFFCURVE",
"145 412 OFFCURVE",
"144 405 CURVE SMOOTH",
"134 335 OFFCURVE",
"107 237 OFFCURVE",
"84 158 CURVE",
"61 85 OFFCURVE",
"43 32 OFFCURVE",
"43 8 CURVE",
"43 1 OFFCURVE",
"73 0 OFFCURVE",
"83 0 CURVE SMOOTH",
"88 0 OFFCURVE",
"88 5 OFFCURVE",
"90 14 CURVE SMOOTH",
"99 62 OFFCURVE",
"107 106 OFFCURVE",
"127 151 CURVE",
"161 208 OFFCURVE",
"271 316 OFFCURVE",
"319 348 CURVE SMOOTH",
"328 354 OFFCURVE",
"333 351 OFFCURVE",
"336 345 CURVE",
"321 305 OFFCURVE",
"254 134 OFFCURVE",
"257 54 CURVE SMOOTH",
"259 8 OFFCURVE",
"289 -12 OFFCURVE",
"330 -12 CURVE SMOOTH"
);
}
);
width = 453;
}
);
note = n;
unicode = 006E;
},
{
color = 4;
glyphname = o;
lastChange = "2018-02-18 17:14:45 +0000";
layers = (
{
anchors = (
{
name = bottom;
position = "{193, 0}";
},
{
name = center;
position = "{230, 210}";
},
{
name = ogonek;
position = "{210, 10}";
},
{
name = top;
position = "{287, 420}";
},
{
name = topright;
position = "{375, 362}";
}
);
layerId = "0B1DFD06-3317-40CA-B510-4969A0718C16";
paths = (
{
closed = 1;
nodes = (
"277 -8 OFFCURVE",
"332 41 OFFCURVE",
"345 71 CURVE",
"355 142 OFFCURVE",
"401 263 OFFCURVE",
"401 331 CURVE",
"386 383 OFFCURVE",
"331 420 OFFCURVE",
"282 420 CURVE SMOOTH",
"197 420 OFFCURVE",
"127 357 OFFCURVE",
"120 318 CURVE SMOOTH",
"103 223 OFFCURVE",
"94 191 OFFCURVE",
"68 111 CURVE",
"68 43 OFFCURVE",
"143 -8 OFFCURVE",
"202 -8 CURVE SMOOTH"
);
},
{
closed = 1;
nodes = (
"171 33 OFFCURVE",
"124 60 OFFCURVE",
"124 114 CURVE",
"144 170 OFFCURVE",
"155 224 OFFCURVE",
"169 307 CURVE SMOOTH",
"174 336 OFFCURVE",
"219 375 OFFCURVE",
"271 375 CURVE SMOOTH",
"307 375 OFFCURVE",
"340 346 OFFCURVE",
"348 319 CURVE",
"343 250 OFFCURVE",
"310 166 OFFCURVE",
"296 88 CURVE",
"287 65 OFFCURVE",
"248 33 OFFCURVE",
"203 33 CURVE SMOOTH"
);
}
);
width = 480;
}
);
note = o;
unicode = 006F;
},
{
color = 4;
glyphname = p;
lastChange = "2018-02-15 12:09:17 +0000";
layers = (
{
layerId = "0B1DFD06-3317-40CA-B510-4969A0718C16";
paths = (
{
closed = 1;
nodes = (
"-87 -624 OFFCURVE",
"-48 -646 OFFCURVE",
"-28 -567 CURVE SMOOTH",
"61 -217 OFFCURVE",
"79 -50 OFFCURVE",
"159 229 CURVE SMOOTH",
"185 320 OFFCURVE",
"272 366 OFFCURVE",
"293 366 CURVE SMOOTH",
"312 366 OFFCURVE",
"348 333 OFFCURVE",
"348 315 CURVE",
"318 199 OFFCURVE",
"285 31 OFFCURVE",
"169 31 CURVE SMOOTH",
"154 31 OFFCURVE",
"141 34 OFFCURVE",
"130 36 CURVE",
"128 30 OFFCURVE",
"127 24 OFFCURVE",
"127 19 CURVE SMOOTH",
"127 2 OFFCURVE",
"140 -6 OFFCURVE",
"163 -6 CURVE SMOOTH",
"299 -6 OFFCURVE",
"450 16 OFFCURVE",
"564 135 CURVE SMOOTH",
"575 146 OFFCURVE",
"581 162 OFFCURVE",
"581 176 CURVE SMOOTH",
"581 188 OFFCURVE",
"576 199 OFFCURVE",
"566 205 CURVE",
"440 59 OFFCURVE",
"345 44 OFFCURVE",
"220 28 CURVE",
"226 17 LINE",
"360 64 OFFCURVE",
"378 213 OFFCURVE",
"408 322 CURVE",
"408 362 OFFCURVE",
"342 420 OFFCURVE",
"313 420 CURVE SMOOTH",
"268 420 OFFCURVE",
"197 365 OFFCURVE",
"167 318 CURVE",
"175 309 LINE",
"203 407 OFFCURVE",
"223 476 OFFCURVE",
"235 507 CURVE SMOOTH",
"237 512 OFFCURVE",
"240 515 OFFCURVE",
"240 518 CURVE SMOOTH",
"240 518 OFFCURVE",
"240 519 OFFCURVE",
"240 519 CURVE",
"237 523 OFFCURVE",
"234 526 OFFCURVE",
"231 527 CURVE",
"215 525 OFFCURVE",
"201 519 OFFCURVE",
"190 516 CURVE SMOOTH",
"183 514 OFFCURVE",
"177 511 OFFCURVE",
"174 498 CURVE SMOOTH",
"140 351 OFFCURVE",
"28 -101 OFFCURVE",
"-56 -434 CURVE SMOOTH",
"-91 -571 OFFCURVE",
"-99 -603 OFFCURVE",
"-210 -652 CURVE",
"-199 -657 LINE"
);
}
);
width = 454;
}
);
note = p;
unicode = 0070;
},
{
color = 4;
glyphname = q;
lastChange = "2018-02-15 11:17:16 +0000";
layers = (
{
layerId = "0B1DFD06-3317-40CA-B510-4969A0718C16";
paths = (
{
closed = 1;
nodes = (
"329 -565 OFFCURVE",
"383 -436 OFFCURVE",
"383 -301 CURVE SMOOTH",
"383 -184 OFFCURVE",
"366 -84 OFFCURVE",
"327 -37 CURVE",
"322 -55 LINE",
"438 0 OFFCURVE",
"663 121 OFFCURVE",
"649 226 CURVE SMOOTH",
"647 241 OFFCURVE",
"642 248 OFFCURVE",
"634 254 CURVE",
"581 139 OFFCURVE",
"429 40 OFFCURVE",
"289 -26 CURVE",
"284 -50 LINE",
"332 -111 OFFCURVE",
"338 -192 OFFCURVE",
"338 -288 CURVE SMOOTH",
"338 -411 OFFCURVE",
"284 -518 OFFCURVE",
"236 -518 CURVE SMOOTH",
"217 -518 OFFCURVE",
"206 -504 OFFCURVE",
"206 -482 CURVE SMOOTH",
"206 -433 OFFCURVE",
"230 -338 OFFCURVE",
"312 -33 CURVE SMOOTH",
"340 71 OFFCURVE",
"376 199 OFFCURVE",
"415 353 CURVE SMOOTH",
"426 396 OFFCURVE",
"428 410 OFFCURVE",
"439 448 CURVE",
"432 457 OFFCURVE",
"402 475 OFFCURVE",
"392 475 CURVE",
"387 442 OFFCURVE",
"382 420 OFFCURVE",
"372 379 CURVE SMOOTH",
"360 328 OFFCURVE",
"327 204 OFFCURVE",
"310 137 CURVE SMOOTH",
"294 75 OFFCURVE",
"226 39 OFFCURVE",
"190 39 CURVE SMOOTH",
"165 39 OFFCURVE",
"134 71 OFFCURVE",
"131 111 CURVE",
"143 170 OFFCURVE",
"153 222 OFFCURVE",
"172 293 CURVE SMOOTH",
"185 341 OFFCURVE",
"219 380 OFFCURVE",
"289 380 CURVE SMOOTH",
"338 380 OFFCURVE",
"380 348 OFFCURVE",
"395 328 CURVE",
"408 364 LINE",
"394 384 OFFCURVE",
"337 418 OFFCURVE",
"286 418 CURVE SMOOTH",
"206 418 OFFCURVE",
"139 359 OFFCURVE",
"126 310 CURVE SMOOTH",
"104 226 OFFCURVE",
"92 178 OFFCURVE",
"76 108 CURVE",
"79 54 OFFCURVE",
"130 -8 OFFCURVE",
"192 -8 CURVE SMOOTH",
"235 -8 OFFCURVE",
"307 37 OFFCURVE",
"338 106 CURVE",
"312 118 LINE",
"309 98 OFFCURVE",
"154 -389 OFFCURVE",
"154 -482 CURVE SMOOTH",
"154 -533 OFFCURVE",
"203 -565 OFFCURVE",
"227 -565 CURVE SMOOTH"
);
}
);
width = 510;
}
);
note = q;
unicode = 0071;
},
{
color = 4;
glyphname = r;
lastChange = "2018-02-17 09:04:29 +0000";
layers = (
{
layerId = "0B1DFD06-3317-40CA-B510-4969A0718C16";
paths = (
{
closed = 1;
nodes = (
"317 394 OFFCURVE",
"301 398 OFFCURVE",
"287 398 CURVE SMOOTH",
"219 398 OFFCURVE",
"167 328 OFFCURVE",
"140 257 CURVE",
"152 250 LINE",
"165 301 OFFCURVE",
"182 362 OFFCURVE",
"194 396 CURVE",
"182 406 OFFCURVE",
"161 416 OFFCURVE",
"156 416 CURVE SMOOTH",
"148 416 OFFCURVE",
"146 412 OFFCURVE",
"143 401 CURVE SMOOTH",
"131 357 OFFCURVE",
"92 182 OFFCURVE",
"64 52 CURVE SMOOTH",
"61 38 OFFCURVE",
"59 25 OFFCURVE",
"59 15 CURVE SMOOTH",
"59 4 OFFCURVE",
"88 -4 OFFCURVE",
"94 -4 CURVE SMOOTH",
"101 -4 OFFCURVE",
"102 -2 OFFCURVE",
"103 2 CURVE SMOOTH",
"116 81 OFFCURVE",
"129 129 OFFCURVE",
"143 185 CURVE SMOOTH",
"162 260 OFFCURVE",
"218 355 OFFCURVE",
"286 355 CURVE",
"277 361 LINE",
"287 294 OFFCURVE",
"341 256 OFFCURVE",
"409 256 CURVE SMOOTH",
"474 256 OFFCURVE",
"543 296 OFFCURVE",
"543 350 CURVE SMOOTH",
"543 358 OFFCURVE",
"539 365 OFFCURVE",
"533 367 CURVE",
"511 311 OFFCURVE",
"466 295 OFFCURVE",
"413 295 CURVE SMOOTH",
"354 295 OFFCURVE",
"322 327 OFFCURVE",
"322 382 CURVE SMOOTH",
"322 385 OFFCURVE",
"322 388 OFFCURVE",
"322 391 CURVE"
);
}
);
width = 380;
}
);
note = r;
unicode = 0072;
},
{
color = 4;
glyphname = s;
lastChange = "2018-02-18 14:53:38 +0000";
layers = (
{
anchors = (
{
name = bottom;
position = "{149, 0}";
},
{
name = top;
position = "{229, 420}";
}
);
layerId = "0B1DFD06-3317-40CA-B510-4969A0718C16";
paths = (
{
closed = 1;
nodes = (
"343 -6 OFFCURVE",
"489 71 OFFCURVE",
"489 163 CURVE SMOOTH",
"489 176 OFFCURVE",
"484 185 OFFCURVE",
"474 192 CURVE",
"448 113 OFFCURVE",
"369 46 OFFCURVE",
"168 15 CURVE",
"185 9 LINE",
"228 14 OFFCURVE",
"277 81 OFFCURVE",
"277 125 CURVE SMOOTH",
"277 214 OFFCURVE",
"205 268 OFFCURVE",
"205 343 CURVE SMOOTH",
"205 378 OFFCURVE",
"220 397 OFFCURVE",
"250 412 CURVE",
"245 417 OFFCURVE",
"234 420 OFFCURVE",
"222 420 CURVE SMOOTH",
"193 420 OFFCURVE",
"162 389 OFFCURVE",
"162 352 CURVE SMOOTH",
"162 252 OFFCURVE",
"229 199 OFFCURVE",
"229 115 CURVE SMOOTH",
"229 72 OFFCURVE",
"181 26 OFFCURVE",
"141 26 CURVE SMOOTH",
"80 26 OFFCURVE",
"41 76 OFFCURVE",
"41 143 CURVE SMOOTH",
"41 162 OFFCURVE",
"45 182 OFFCURVE",
"53 203 CURVE",
"32 203 OFFCURVE",
"4 173 OFFCURVE",
"4 130 CURVE SMOOTH",
"4 42 OFFCURVE",
"59 -13 OFFCURVE",
"184 -10 CURVE"
);
},
{
closed = 1;
nodes = (
"107 134 OFFCURVE",
"165 232 OFFCURVE",
"192 306 CURVE",
"185 368 LINE",
"155 293 OFFCURVE",
"95 176 OFFCURVE",
"34 128 CURVE",
"44 86 LINE"
);
}
);
width = 360;
}
);
note = s;
unicode = 0073;
},
{
color = 4;
glyphname = t;
lastChange = "2018-02-15 17:41:03 +0000";
layers = (
{
anchors = (
{
name = bottom;
position = "{180, 0}";
},
{
name = center;
position = "{177, 210}";
},
{
name = top;
position = "{259, 640}";
},
{
name = topright;
position = "{370, 420}";
}
);
layerId = "0B1DFD06-3317-40CA-B510-4969A0718C16";
paths = (
{
closed = 1;
nodes = (
"333 360 OFFCURVE",
"438 360 CURVE SMOOTH",
"451 360 OFFCURVE",
"458 369 OFFCURVE",
"458 380 CURVE SMOOTH",
"458 384 OFFCURVE",
"457 388 OFFCURVE",
"454 391 CURVE",
"47 393 LINE",
"39 385 OFFCURVE",
"27 360 OFFCURVE",
"22 352 CURVE",
"25 346 OFFCURVE",
"30 344 OFFCURVE",
"36 344 CURVE SMOOTH",
"42 344 OFFCURVE"
);
},
{
closed = 1;
nodes = (
"90 196 OFFCURVE",
"90 85 CURVE SMOOTH",
"90 25 OFFCURVE",
"148 -10 OFFCURVE",
"204 -10 CURVE SMOOTH",
"270 -10 OFFCURVE",
"384 45 OFFCURVE",
"452 120 CURVE SMOOTH",
"471 141 OFFCURVE",
"466 157 OFFCURVE",
"460 166 CURVE",
"375 87 OFFCURVE",
"290 31 OFFCURVE",
"205 31 CURVE SMOOTH",
"164 31 OFFCURVE",
"142 55 OFFCURVE",
"142 99 CURVE SMOOTH",
"142 185 OFFCURVE",
"205 438 OFFCURVE",
"269 623 CURVE SMOOTH",
"280 655 OFFCURVE",
"295 672 OFFCURVE",
"317 679 CURVE",
"317 685 OFFCURVE",
"308 692 OFFCURVE",
"302 689 CURVE SMOOTH",
"271 674 OFFCURVE",
"252 662 OFFCURVE",
"226 643 CURVE",
"160 444 OFFCURVE"
);
}
);
width = 343;
}
);
note = t;
unicode = 0074;
},
{
color = 4;
glyphname = u;
lastChange = "2018-02-18 14:55:01 +0000";
layers = (
{
anchors = (
{
name = bottom;
position = "{195, 0}";
},
{
name = ogonek;
position = "{384, 10}";
},
{
name = top;
position = "{273, 420}";
},
{
name = topright;
position = "{379, 383}";
}
);
layerId = "0B1DFD06-3317-40CA-B510-4969A0718C16";
paths = (
{
closed = 1;
nodes = (
"467 -7 OFFCURVE",
"613 173 OFFCURVE",
"612 216 CURVE",
"611 226 OFFCURVE",
"604 232 OFFCURVE",
"596 234 CURVE",
"528 110 OFFCURVE",
"418 33 OFFCURVE",
"358 33 CURVE SMOOTH",
"333 33 OFFCURVE",
"315 54 OFFCURVE",
"315 93 CURVE SMOOTH",
"315 208 OFFCURVE",
"388 338 OFFCURVE",
"388 368 CURVE SMOOTH",
"388 392 OFFCURVE",
"368 415 OFFCURVE",
"352 415 CURVE SMOOTH",
"349 415 OFFCURVE",
"344 412 OFFCURVE",
"342 404 CURVE SMOOTH",
"332 362 OFFCURVE",
"319 304 OFFCURVE",
"284 202 CURVE SMOOTH",
"251 106 OFFCURVE",
"186 48 OFFCURVE",
"151 48 CURVE SMOOTH",
"137 48 OFFCURVE",
"123 61 OFFCURVE",
"118 77 CURVE",
"120 131 OFFCURVE",
"145 232 OFFCURVE",
"185 366 CURVE SMOOTH",
"188 376 OFFCURVE",
"191 383 OFFCURVE",
"191 388 CURVE SMOOTH",
"191 400 OFFCURVE",
"158 415 OFFCURVE",
"149 415 CURVE SMOOTH",
"144 415 OFFCURVE",
"140 409 OFFCURVE",
"136 396 CURVE SMOOTH",
"77 189 OFFCURVE",
"61 120 OFFCURVE",
"62 57 CURVE",
"69 27 OFFCURVE",
"106 -2 OFFCURVE",
"138 -2 CURVE SMOOTH",
"211 -2 OFFCURVE",
"269 98 OFFCURVE",
"276 120 CURVE",
"272 125 LINE",
"265 109 OFFCURVE",
"264 89 OFFCURVE",
"264 68 CURVE SMOOTH",
"266 20 OFFCURVE",
"296 -7 OFFCURVE",
"356 -7 CURVE SMOOTH"
);
}
);
width = 472;
}
);
note = u;
unicode = 0075;
},
{
color = 4;
glyphname = v;
lastChange = "2018-02-15 09:51:57 +0000";
layers = (
{
layerId = "0B1DFD06-3317-40CA-B510-4969A0718C16";
paths = (
{
closed = 1;
nodes = (
"329 426 OFFCURVE",
"355 397 OFFCURVE",
"358 346 CURVE SMOOTH",
"362 287 OFFCURVE",
"311 209 OFFCURVE",
"136 28 CURVE",
"151 25 LINE",
"178 221 OFFCURVE",
"199 318 OFFCURVE",
"196 368 CURVE SMOOTH",
"194 389 OFFCURVE",
"178 410 OFFCURVE",
"162 416 CURVE",
"129 403 OFFCURVE",
"111 394 OFFCURVE",
"44 387 CURVE",
"38 381 OFFCURVE",
"37 375 OFFCURVE",
"37 367 CURVE",
"113 366 LINE SMOOTH",
"131 366 OFFCURVE",
"137 363 OFFCURVE",
"138 349 CURVE SMOOTH",
"141 314 OFFCURVE",
"132 241 OFFCURVE",
"104 33 CURVE SMOOTH",
"104 28 OFFCURVE",
"94 19 OFFCURVE",
"95 15 CURVE",
"136 -5 LINE",
"354 196 OFFCURVE",
"421 242 OFFCURVE",
"413 348 CURVE SMOOTH",
"409 414 OFFCURVE",
"357 435 OFFCURVE",
"309 450 CURVE",
"299 445 LINE"
);
}
);
width = 421;
}
);
note = v;
unicode = 0076;
},
{
color = 4;
glyphname = w;
lastChange = "2018-02-16 07:53:21 +0000";
layers = (
{
anchors = (
{
name = bottom;
position = "{287, 0}";
},
{
name = top;
position = "{387, 420}";
}
);
layerId = "0B1DFD06-3317-40CA-B510-4969A0718C16";
paths = (
{
closed = 1;
nodes = (
"503 -2 OFFCURVE",
"567 102 OFFCURVE",
"567 221 CURVE SMOOTH",
"567 299 OFFCURVE",
"543 343 OFFCURVE",
"521 366 CURVE",
"510 361 LINE",
"526 333 OFFCURVE",
"599 276 OFFCURVE",
"698 276 CURVE SMOOTH",
"776 276 OFFCURVE",
"857 308 OFFCURVE",
"857 370 CURVE SMOOTH",
"857 377 OFFCURVE",
"855 383 OFFCURVE",
"850 385 CURVE",
"812 332 OFFCURVE",
"759 307 OFFCURVE",
"689 307 CURVE SMOOTH",
"585 307 OFFCURVE",
"518 413 OFFCURVE",
"505 413 CURVE SMOOTH",
"496 413 OFFCURVE",
"481 397 OFFCURVE",
"476 383 CURVE",
"485 357 OFFCURVE",
"521 318 OFFCURVE",
"521 221 CURVE SMOOTH",
"521 128 OFFCURVE",
"481 35 OFFCURVE",
"395 35 CURVE SMOOTH",
"379 35 OFFCURVE",
"345 65 OFFCURVE",
"337 92 CURVE",
"337 175 OFFCURVE",
"381 276 OFFCURVE",
"381 320 CURVE SMOOTH",
"381 343 OFFCURVE",
"370 351 OFFCURVE",
"337 351 CURVE",
"326 292 OFFCURVE",
"313 228 OFFCURVE",
"296 160 CURVE SMOOTH",
"273 69 OFFCURVE",
"221 36 OFFCURVE",
"174 36 CURVE SMOOTH",
"148 36 OFFCURVE",
"125 71 OFFCURVE",
"120 98 CURVE",
"131 175 OFFCURVE",
"171 333 OFFCURVE",
"209 403 CURVE",
"207 409 OFFCURVE",
"200 415 OFFCURVE",
"191 415 CURVE SMOOTH",
"163 415 OFFCURVE",
"151 400 OFFCURVE",
"140 364 CURVE SMOOTH",
"123 309 OFFCURVE",
"86 184 OFFCURVE",
"69 92 CURVE",
"74 51 OFFCURVE",
"124 -7 OFFCURVE",
"167 -7 CURVE SMOOTH",
"231 -7 OFFCURVE",
"289 29 OFFCURVE",
"318 124 CURVE",
"302 130 LINE",
"298 109 OFFCURVE",
"294 93 OFFCURVE",
"294 83 CURVE",
"301 56 OFFCURVE",
"336 -2 OFFCURVE",
"393 -2 CURVE SMOOTH"
);
}
);
width = 660;
}
);
note = w;
unicode = 0077;
},
{
color = 4;
glyphname = x;
lastChange = "2018-02-15 12:11:53 +0000";
layers = (
{
layerId = "0B1DFD06-3317-40CA-B510-4969A0718C16";
paths = (
{
closed = 1;
nodes = (
"342 393 OFFCURVE",
"301 357 CURVE SMOOTH",
"145 220 OFFCURVE",
"-4 21 OFFCURVE",
"-66 -88 CURVE SMOOTH",
"-78 -109 OFFCURVE",
"-90 -133 OFFCURVE",
"-90 -148 CURVE SMOOTH",
"-90 -175 OFFCURVE",
"-74 -189 OFFCURVE",
"-35 -214 CURVE",
"-35 -21 OFFCURVE",
"190 242 OFFCURVE",
"404 366 CURVE",
"407 373 OFFCURVE",
"409 385 OFFCURVE",
"409 394 CURVE SMOOTH",
"409 406 OFFCURVE",
"408 412 OFFCURVE",
"400 412 CURVE SMOOTH",
"378 412 OFFCURVE"
);
},
{
closed = 1;
nodes = (
"159 172 OFFCURVE",
"159 291 CURVE SMOOTH",
"159 334 OFFCURVE",
"164 373 OFFCURVE",
"178 401 CURVE SMOOTH",
"180 405 OFFCURVE",
"176 411 OFFCURVE",
"170 411 CURVE",
"161 402 OFFCURVE",
"153 395 OFFCURVE",
"144 389 CURVE SMOOTH",
"136 384 OFFCURVE",
"130 374 OFFCURVE",
"127 356 CURVE SMOOTH",
"123 329 OFFCURVE",
"120 298 OFFCURVE",
"120 270 CURVE SMOOTH",
"120 133 OFFCURVE",
"179 -7 OFFCURVE",
"283 -7 CURVE SMOOTH",
"381 -7 OFFCURVE",
"468 73 OFFCURVE",
"468 117 CURVE SMOOTH",
"468 130 OFFCURVE",
"464 140 OFFCURVE",
"457 144 CURVE",
"418 69 OFFCURVE",
"356 35 OFFCURVE",
"293 35 CURVE SMOOTH",
"218 35 OFFCURVE"
);
}
);
width = 366;
}
);
note = x;
unicode = 0078;
},
{
color = 4;
glyphname = y;
lastChange = "2018-02-15 12:14:37 +0000";
layers = (
{
anchors = (
{
name = bottom;
position = "{180, 0}";
},
{
name = top;
position = "{294, 420}";
}
);
layerId = "0B1DFD06-3317-40CA-B510-4969A0718C16";
paths = (
{
closed = 1;
nodes = (
"177 -513 OFFCURVE",
"276 -126 OFFCURVE",
"343 85 CURVE SMOOTH",
"373 179 OFFCURVE",
"401 290 OFFCURVE",
"429 384 CURVE",
"424 403 OFFCURVE",
"395 418 OFFCURVE",
"379 418 CURVE",
"359 328 OFFCURVE",
"341 226 OFFCURVE",
"301 127 CURVE",
"281 100 OFFCURVE",
"202 48 OFFCURVE",
"170 48 CURVE SMOOTH",
"151 48 OFFCURVE",
"131 69 OFFCURVE",
"131 89 CURVE",
"142 137 OFFCURVE",
"172 263 OFFCURVE",
"207 409 CURVE",
"199 412 OFFCURVE",
"191 414 OFFCURVE",
"183 414 CURVE SMOOTH",
"161 414 OFFCURVE",
"153 408 OFFCURVE",
"148 386 CURVE SMOOTH",
"121 268 OFFCURVE",
"91 141 OFFCURVE",
"78 77 CURVE",
"78 42 OFFCURVE",
"120 0 OFFCURVE",
"151 0 CURVE SMOOTH",
"200 0 OFFCURVE",
"274 48 OFFCURVE",
"310 88 CURVE",
"293 88 LINE",
"194 -277 OFFCURVE",
"75 -450 OFFCURVE",
"-173 -450 CURVE SMOOTH",
"-279 -450 OFFCURVE",
"-347 -394 OFFCURVE",
"-380 -322 CURVE",
"-383 -332 OFFCURVE",
"-389 -343 OFFCURVE",
"-388 -355 CURVE SMOOTH",
"-381 -443 OFFCURVE",
"-324 -513 OFFCURVE",
"-174 -513 CURVE SMOOTH"
);
}
);
width = 454;
}
);
note = y;
unicode = 0079;
},
{
color = 4;
glyphname = z;
lastChange = "2018-02-15 11:00:20 +0000";
layers = (
{
anchors = (
{
name = bottom;
position = "{190, 0}";
},
{
name = top;
position = "{277, 420}";
}
);
layerId = "0B1DFD06-3317-40CA-B510-4969A0718C16";
paths = (
{
closed = 1;
nodes = (
"976 -271 OFFCURVE",
"1066 -203 OFFCURVE",
"1066 -114 CURVE SMOOTH",
"1066 -86 OFFCURVE",
"1052 -56 OFFCURVE",
"1031 -56 CURVE",
"998 -162 OFFCURVE",
"932 -227 OFFCURVE",
"809 -227 CURVE SMOOTH",
"633 -227 OFFCURVE",
"348 -82 OFFCURVE",
"106 79 CURVE",
"113 58 LINE",
"172 102 OFFCURVE",
"314 252 OFFCURVE",
"388 349 CURVE SMOOTH",
"398 361 OFFCURVE",
"402 373 OFFCURVE",
"402 382 CURVE SMOOTH",
"402 398 OFFCURVE",
"390 408 OFFCURVE",
"369 408 CURVE",
"322 355 OFFCURVE",
"263 327 OFFCURVE",
"218 327 CURVE SMOOTH",
"168 327 OFFCURVE",
"160 348 OFFCURVE",
"160 370 CURVE SMOOTH",
"160 393 OFFCURVE",
"168 409 OFFCURVE",
"175 417 CURVE",
"174 423 OFFCURVE",
"164 426 OFFCURVE",
"156 426 CURVE SMOOTH",
"123 426 OFFCURVE",
"105 394 OFFCURVE",
"105 358 CURVE SMOOTH",
"105 315 OFFCURVE",
"148 286 OFFCURVE",
"195 286 CURVE SMOOTH",
"250 286 OFFCURVE",
"299 304 OFFCURVE",
"324 320 CURVE",
"312 322 LINE",
"216 207 OFFCURVE",
"134 126 OFFCURVE",
"7 27 CURVE",
"7 19 OFFCURVE",
"33 -9 OFFCURVE",
"42 -9 CURVE",
"61 12 OFFCURVE",
"76 28 OFFCURVE",
"96 28 CURVE SMOOTH",
"111 28 OFFCURVE",
"120 25 OFFCURVE",
"137 15 CURVE SMOOTH",
"346 -108 OFFCURVE",
"586 -271 OFFCURVE",
"819 -271 CURVE SMOOTH"
);
}
);
width = 454;
}
);
note = z;
unicode = 007A;
},
{
color = 3;
glyphname = AE;
lastChange = "2018-02-18 18:21:55 +0000";
layers = (
{
anchors = (
{
name = bottom;
position = "{546, 0}";
},
{
name = top;
position = "{669, 700}";
}
);
layerId = "0B1DFD06-3317-40CA-B510-4969A0718C16";
paths = (
{
closed = 1;
nodes = (
"42 -112 OFFCURVE",
"49 -107 OFFCURVE",
"53 -99 CURVE",
"45 -62 OFFCURVE",
"47 -50 OFFCURVE",
"57 -22 CURVE SMOOTH",
"98 94 OFFCURVE",
"530 554 OFFCURVE",
"645 661 CURVE",
"627 661 LINE",
"627 379 OFFCURVE",
"626 160 OFFCURVE",
"631 63 CURVE SMOOTH",
"631 20 OFFCURVE",
"658 -13 OFFCURVE",
"828 -13 CURVE SMOOTH",
"907 -13 OFFCURVE",
"1000 -4 OFFCURVE",
"1080 11 CURVE SMOOTH",
"1101 17 OFFCURVE",
"1114 26 OFFCURVE",
"1121 40 CURVE SMOOTH",
"1124 46 OFFCURVE",
"1131 85 OFFCURVE",
"1143 97 CURVE",
"1141 104 OFFCURVE",
"1139 106 OFFCURVE",
"1135 102 CURVE",
"1049 26 OFFCURVE",
"921 27 OFFCURVE",
"802 27 CURVE SMOOTH",
"735 27 OFFCURVE",
"685 46 OFFCURVE",
"682 96 CURVE SMOOTH",
"676 187 OFFCURVE",
"678 476 OFFCURVE",
"678 637 CURVE SMOOTH",
"678 652 OFFCURVE",
"683 656 OFFCURVE",
"694 656 CURVE SMOOTH",
"770 656 OFFCURVE",
"977 658 OFFCURVE",
"1053 654 CURVE SMOOTH",
"1070 653 OFFCURVE",
"1072 642 OFFCURVE",
"1074 627 CURVE",
"1085 626 LINE",
"1091 647 OFFCURVE",
"1106 686 OFFCURVE",
"1106 694 CURVE SMOOTH",
"1106 700 OFFCURVE",
"1102 704 OFFCURVE",
"1095 704 CURVE SMOOTH",
"1010 704 OFFCURVE",
"766 699 OFFCURVE",
"690 699 CURVE SMOOTH",
"682 699 OFFCURVE",
"672 705 OFFCURVE",
"661 716 CURVE",
"643 716 OFFCURVE",
"633 710 OFFCURVE",
"620 700 CURVE SMOOTH",
"559 652 OFFCURVE",
"309 377 OFFCURVE",
"43 60 CURVE SMOOTH",
"5 15 OFFCURVE",
"-23 -14 OFFCURVE",
"0 -49 CURVE SMOOTH",
"39 -109 LINE"
);
},
{
closed = 1;
nodes = (
"364 332 OFFCURVE",
"941 329 OFFCURVE",
"1006 329 CURVE SMOOTH",
"1014 329 OFFCURVE",
"1017 331 OFFCURVE",
"1019 335 CURVE",
"1019 345 OFFCURVE",
"1031 371 OFFCURVE",
"1034 380 CURVE",
"1028 385 LINE",
"952 362 OFFCURVE",
"440 368 OFFCURVE",
"349 374 CURVE",
"316 329 LINE"
);
}
);
width = 1165;
}
);
note = AE;
unicode = 00C6;
},
{
color = 3;
glyphname = Eth;
lastChange = "2018-02-06 09:43:58 +0000";
layers = (
{
layerId = "0B1DFD06-3317-40CA-B510-4969A0718C16";
paths = (
{
closed = 1;
nodes = (
"137 -5 LINE",
"161 20 OFFCURVE",
"170 36 OFFCURVE",
"188 36 CURVE SMOOTH",
"223 36 OFFCURVE",
"287 -13 OFFCURVE",
"417 -13 CURVE SMOOTH",
"669 -13 OFFCURVE",
"870 144 OFFCURVE",
"860 422 CURVE SMOOTH",
"851 659 OFFCURVE",
"663 707 OFFCURVE",
"470 707 CURVE SMOOTH",
"365 707 OFFCURVE",
"290 694 OFFCURVE",
"169 694 CURVE SMOOTH",
"139 694 OFFCURVE",
"101 713 OFFCURVE",
"98 713 CURVE SMOOTH",
"87 713 OFFCURVE",
"101 644 OFFCURVE",
"120 644 CURVE SMOOTH",
"188 645 OFFCURVE",
"249 665 OFFCURVE",
"317 665 CURVE SMOOTH",
"321 665 OFFCURVE",
"330 663 OFFCURVE",
"331 657 CURVE",
"321 608 OFFCURVE",
"284 495 OFFCURVE",
"246 380 CURVE",
"232 380 OFFCURVE",
"207 381 OFFCURVE",
"132 381 CURVE SMOOTH",
"123 381 OFFCURVE",
"115 351 OFFCURVE",
"115 343 CURVE",
"118 340 OFFCURVE",
"121 339 OFFCURVE",
"127 339 CURVE SMOOTH",
"134 339 OFFCURVE",
"189 346 OFFCURVE",
"236 346 CURVE",
"201 233 OFFCURVE",
"163 126 OFFCURVE",
"154 96 CURVE",
"144 74 OFFCURVE",
"111 33 OFFCURVE",
"92 5 CURVE"
);
},
{
closed = 1;
nodes = (
"409 670 OFFCURVE",
"425 670 OFFCURVE",
"450 670 CURVE SMOOTH",
"725 670 OFFCURVE",
"789 574 OFFCURVE",
"793 413 CURVE SMOOTH",
"802 188 OFFCURVE",
"621 30 OFFCURVE",
"414 30 CURVE SMOOTH",
"347 30 OFFCURVE",
"286 45 OFFCURVE",
"242 82 CURVE",
"227 93 OFFCURVE",
"224 107 OFFCURVE",
"230 124 CURVE",
"250 194 OFFCURVE",
"274 268 OFFCURVE",
"299 347 CURVE",
"375 347 OFFCURVE",
"394 350 OFFCURVE",
"507 350 CURVE SMOOTH",
"519 350 OFFCURVE",
"525 384 OFFCURVE",
"525 389 CURVE",
"524 393 OFFCURVE",
"519 395 OFFCURVE",
"512 395 CURVE SMOOTH",
"471 395 OFFCURVE",
"428 383 OFFCURVE",
"308 380 CURVE",
"340 471 OFFCURVE",
"369 564 OFFCURVE",
"401 651 CURVE"
);
}
);
width = 921;
}
);
note = Eth;
unicode = 00D0;
},
{
color = 3;
glyphname = Dcroat;
lastChange = "2018-02-06 09:43:58 +0000";
layers = (
{
layerId = "0B1DFD06-3317-40CA-B510-4969A0718C16";
paths = (
{
closed = 1;
nodes = (
"137 -5 LINE",
"161 20 OFFCURVE",
"170 36 OFFCURVE",
"188 36 CURVE SMOOTH",
"223 36 OFFCURVE",
"287 -13 OFFCURVE",
"417 -13 CURVE SMOOTH",
"669 -13 OFFCURVE",
"870 144 OFFCURVE",
"860 422 CURVE SMOOTH",
"851 659 OFFCURVE",
"663 707 OFFCURVE",
"470 707 CURVE SMOOTH",
"365 707 OFFCURVE",
"290 694 OFFCURVE",
"169 694 CURVE SMOOTH",
"139 694 OFFCURVE",
"101 713 OFFCURVE",
"98 713 CURVE SMOOTH",
"87 713 OFFCURVE",
"101 644 OFFCURVE",
"120 644 CURVE SMOOTH",
"188 645 OFFCURVE",
"249 665 OFFCURVE",
"317 665 CURVE SMOOTH",
"321 665 OFFCURVE",
"330 663 OFFCURVE",
"331 657 CURVE",
"321 608 OFFCURVE",
"284 495 OFFCURVE",
"246 380 CURVE",
"232 380 OFFCURVE",
"207 381 OFFCURVE",
"132 381 CURVE SMOOTH",
"123 381 OFFCURVE",
"115 351 OFFCURVE",
"115 343 CURVE",
"118 340 OFFCURVE",
"121 339 OFFCURVE",
"127 339 CURVE SMOOTH",
"134 339 OFFCURVE",
"189 346 OFFCURVE",
"236 346 CURVE",
"201 233 OFFCURVE",
"163 126 OFFCURVE",
"154 96 CURVE",
"144 74 OFFCURVE",
"111 33 OFFCURVE",
"92 5 CURVE"
);
},
{
closed = 1;
nodes = (
"409 670 OFFCURVE",
"425 670 OFFCURVE",
"450 670 CURVE SMOOTH",
"725 670 OFFCURVE",
"789 574 OFFCURVE",
"793 413 CURVE SMOOTH",
"802 188 OFFCURVE",
"621 30 OFFCURVE",
"414 30 CURVE SMOOTH",
"347 30 OFFCURVE",
"286 45 OFFCURVE",
"242 82 CURVE",
"227 93 OFFCURVE",
"224 107 OFFCURVE",
"230 124 CURVE",
"250 194 OFFCURVE",
"274 268 OFFCURVE",
"299 347 CURVE",
"375 347 OFFCURVE",
"394 350 OFFCURVE",
"507 350 CURVE SMOOTH",
"519 350 OFFCURVE",
"525 384 OFFCURVE",
"525 389 CURVE",
"524 393 OFFCURVE",
"519 395 OFFCURVE",
"512 395 CURVE SMOOTH",
"471 395 OFFCURVE",
"428 383 OFFCURVE",
"308 380 CURVE",
"340 471 OFFCURVE",
"369 564 OFFCURVE",
"401 651 CURVE"
);
}
);
width = 921;
}
);
note = Dcroat;
unicode = 0110;
},
{
color = 3;
glyphname = Eacute;
lastChange = "2018-02-18 18:40:33 +0000";
layers = (
{
background = {
paths = (
{
closed = 1;
nodes = (
"554 0 LINE",
"571 179 LINE",
"544 179 LINE",
"538 124 OFFCURVE",
"520 40 OFFCURVE",
"456 40 CURVE SMOOTH",
"201 40 LINE",
"201 659 LINE",
"441 659 LINE SMOOTH",
"516 659 OFFCURVE",
"525 567 OFFCURVE",
"528 527 CURVE",
"555 527 LINE",
"555 700 LINE",
"16 700 LINE",
"16 673 LINE",
"44 673 LINE SMOOTH",
"83 673 OFFCURVE",
"103 662 OFFCURVE",
"103 637 CURVE SMOOTH",
"103 62 LINE SMOOTH",
"103 37 OFFCURVE",
"83 26 OFFCURVE",
"44 26 CURVE SMOOTH",
"16 26 LINE",
"16 0 LINE"
);
},
{
closed = 1;
nodes = (
"455 251 LINE",
"455 485 LINE",
"431 485 LINE",
"427 436 OFFCURVE",
"424 388 OFFCURVE",
"379 388 CURVE SMOOTH",
"162 388 LINE",
"162 348 LINE",
"379 348 LINE SMOOTH",
"424 348 OFFCURVE",
"427 300 OFFCURVE",
"431 251 CURVE"
);
},
{
closed = 1;
nodes = (
"398 865 LINE SMOOTH",
"420 877 OFFCURVE",
"432 890 OFFCURVE",
"432 907 CURVE SMOOTH",
"432 922 OFFCURVE",
"420 937 OFFCURVE",
"398 937 CURVE SMOOTH",
"377 937 OFFCURVE",
"362 921 OFFCURVE",
"354 914 CURVE SMOOTH",
"239 807 LINE",
"256 782 LINE"
);
}
);
};
components = (
{
name = E;
},
{
name = acutecomb;
transform = "{1, 0, 0, 1, 339, 280}";
}
);
layerId = "0B1DFD06-3317-40CA-B510-4969A0718C16";
width = 732;
}
);
note = Eacute;
unicode = 00C9;
},
{
color = 3;
glyphname = Ebreve;
lastChange = "2018-02-14 11:46:49 +0000";
layers = (
{
background = {
paths = (
{
closed = 1;
nodes = (
"554 0 LINE",
"571 179 LINE",
"544 179 LINE",
"538 124 OFFCURVE",
"520 40 OFFCURVE",
"456 40 CURVE SMOOTH",
"201 40 LINE",
"201 659 LINE",
"441 659 LINE SMOOTH",
"516 659 OFFCURVE",
"525 567 OFFCURVE",
"528 527 CURVE",
"555 527 LINE",
"555 700 LINE",
"16 700 LINE",
"16 673 LINE",
"44 673 LINE SMOOTH",
"83 673 OFFCURVE",
"103 662 OFFCURVE",
"103 637 CURVE SMOOTH",
"103 62 LINE SMOOTH",
"103 37 OFFCURVE",
"83 26 OFFCURVE",
"44 26 CURVE SMOOTH",
"16 26 LINE",
"16 0 LINE"
);
},
{
closed = 1;
nodes = (
"455 251 LINE",
"455 485 LINE",
"431 485 LINE",
"427 436 OFFCURVE",
"424 388 OFFCURVE",
"379 388 CURVE SMOOTH",
"162 388 LINE",
"162 348 LINE",
"379 348 LINE SMOOTH",
"424 348 OFFCURVE",
"427 300 OFFCURVE",
"431 251 CURVE"
);
},
{
closed = 1;
nodes = (
"432 776 OFFCURVE",
"474 832 OFFCURVE",
"478 907 CURVE",
"445 907 LINE",
"439 848 OFFCURVE",
"397 822 OFFCURVE",
"333 822 CURVE SMOOTH",
"269 822 OFFCURVE",
"226 848 OFFCURVE",
"219 907 CURVE",
"186 907 LINE",
"190 829 OFFCURVE",
"232 776 OFFCURVE",
"333 776 CURVE SMOOTH"
);
}
);
};
components = (
{
name = E;
},
{
name = brevecomb;
transform = "{1, 0, 0, 1, 468, 280}";
}
);
layerId = "0B1DFD06-3317-40CA-B510-4969A0718C16";
width = 732;
}
);
note = Ebreve;
unicode = 0114;
},
{
color = 3;
glyphname = Ecaron;
lastChange = "2018-02-14 11:46:49 +0000";
layers = (
{
background = {
paths = (
{
closed = 1;
nodes = (
"554 0 LINE",
"571 179 LINE",
"544 179 LINE",
"538 124 OFFCURVE",
"520 40 OFFCURVE",
"456 40 CURVE SMOOTH",
"201 40 LINE",
"201 659 LINE",
"441 659 LINE SMOOTH",
"516 659 OFFCURVE",
"525 567 OFFCURVE",
"528 527 CURVE",
"555 527 LINE",
"555 700 LINE",
"16 700 LINE",
"16 673 LINE",
"44 673 LINE SMOOTH",
"83 673 OFFCURVE",
"103 662 OFFCURVE",
"103 637 CURVE SMOOTH",
"103 62 LINE SMOOTH",
"103 37 OFFCURVE",
"83 26 OFFCURVE",
"44 26 CURVE SMOOTH",
"16 26 LINE",
"16 0 LINE"
);
},
{
closed = 1;
nodes = (
"455 251 LINE",
"455 485 LINE",
"431 485 LINE",
"427 436 OFFCURVE",
"424 388 OFFCURVE",
"379 388 CURVE SMOOTH",
"162 388 LINE",
"162 348 LINE",
"379 348 LINE SMOOTH",
"424 348 OFFCURVE",
"427 300 OFFCURVE",
"431 251 CURVE"
);
},
{
closed = 1;
nodes = (
"357 782 LINE",
"481 911 LINE",
"462 932 LINE",
"354 847 LINE",
"346 840 OFFCURVE",
"337 836 OFFCURVE",
"331 836 CURVE SMOOTH",
"325 836 OFFCURVE",
"317 840 OFFCURVE",
"307 847 CURVE",
"199 932 LINE",
"180 911 LINE",
"304 782 LINE"
);
}
);
};
components = (
{
name = E;
},
{
name = caroncomb;
transform = "{1, 0, 0, 1, 469, 280}";
}
);
layerId = "0B1DFD06-3317-40CA-B510-4969A0718C16";
width = 732;
}
);
note = Ecaron;
unicode = 011A;
},
{
color = 3;
glyphname = Ecircumflex;
lastChange = "2018-02-14 11:46:49 +0000";
layers = (
{
background = {
paths = (
{
closed = 1;
nodes = (
"554 0 LINE",
"571 179 LINE",
"544 179 LINE",
"538 124 OFFCURVE",
"520 40 OFFCURVE",
"456 40 CURVE SMOOTH",
"201 40 LINE",
"201 659 LINE",
"441 659 LINE SMOOTH",
"516 659 OFFCURVE",
"525 567 OFFCURVE",
"528 527 CURVE",
"555 527 LINE",
"555 700 LINE",
"16 700 LINE",
"16 673 LINE",
"44 673 LINE SMOOTH",
"83 673 OFFCURVE",
"103 662 OFFCURVE",
"103 637 CURVE SMOOTH",
"103 62 LINE SMOOTH",
"103 37 OFFCURVE",
"83 26 OFFCURVE",
"44 26 CURVE SMOOTH",
"16 26 LINE",
"16 0 LINE"
);
},
{
closed = 1;
nodes = (
"455 251 LINE",
"455 485 LINE",
"431 485 LINE",
"427 436 OFFCURVE",
"424 388 OFFCURVE",
"379 388 CURVE SMOOTH",
"162 388 LINE",
"162 348 LINE",
"379 348 LINE SMOOTH",
"424 348 OFFCURVE",
"427 300 OFFCURVE",
"431 251 CURVE"
);
},
{
closed = 1;
nodes = (
"304 868 LINE SMOOTH",
"312 874 OFFCURVE",
"322 879 OFFCURVE",
"328 879 CURVE SMOOTH",
"334 879 OFFCURVE",
"342 874 OFFCURVE",
"351 868 CURVE",
"459 782 LINE",
"478 803 LINE",
"354 932 LINE",
"301 932 LINE",
"177 803 LINE",
"196 782 LINE"
);
}
);
};
components = (
{
name = E;
},
{
name = circumflexcomb;
transform = "{1, 0, 0, 1, 464, 230}";
}
);
layerId = "0B1DFD06-3317-40CA-B510-4969A0718C16";
width = 732;
}
);
note = Ecircumflex;
unicode = 00CA;
},
{
color = 3;
glyphname = Ecircumflexacute;
lastChange = "2018-02-14 11:46:41 +0000";
layers = (
{
background = {
paths = (
{
closed = 1;
nodes = (
"554 0 LINE",
"571 179 LINE",
"544 179 LINE",
"538 124 OFFCURVE",
"520 40 OFFCURVE",
"456 40 CURVE SMOOTH",
"201 40 LINE",
"201 659 LINE",
"441 659 LINE SMOOTH",
"516 659 OFFCURVE",
"525 567 OFFCURVE",
"528 527 CURVE",
"555 527 LINE",
"555 700 LINE",
"16 700 LINE",
"16 673 LINE",
"44 673 LINE SMOOTH",
"83 673 OFFCURVE",
"103 662 OFFCURVE",
"103 637 CURVE SMOOTH",
"103 62 LINE SMOOTH",
"103 37 OFFCURVE",
"83 26 OFFCURVE",
"44 26 CURVE SMOOTH",
"16 26 LINE",
"16 0 LINE"
);
},
{
closed = 1;
nodes = (
"455 251 LINE",
"455 485 LINE",
"431 485 LINE",
"427 436 OFFCURVE",
"424 388 OFFCURVE",
"379 388 CURVE SMOOTH",
"162 388 LINE",
"162 348 LINE",
"379 348 LINE SMOOTH",
"424 348 OFFCURVE",
"427 300 OFFCURVE",
"431 251 CURVE"
);
},
{
closed = 1;
nodes = (
"290 862 LINE SMOOTH",
"300 870 OFFCURVE",
"310 878 OFFCURVE",
"318 878 CURVE SMOOTH",
"324 878 OFFCURVE",
"332 873 OFFCURVE",
"341 867 CURVE",
"447 781 LINE",
"466 803 LINE",
"344 932 LINE",
"293 932 LINE",
"171 803 LINE",
"189 781 LINE"
);
},
{
closed = 1;
nodes = (
"555 960 LINE SMOOTH",
"578 972 OFFCURVE",
"591 988 OFFCURVE",
"591 1003 CURVE SMOOTH",
"591 1017 OFFCURVE",
"580 1034 OFFCURVE",
"557 1034 CURVE SMOOTH",
"538 1034 OFFCURVE",
"521 1018 OFFCURVE",
"511 1008 CURVE SMOOTH",
"415 915 LINE",
"433 893 LINE"
);
}
);
};
components = (
{
name = E;
},
{
name = circumflexacute;
transform = "{1, 0, 0, 1, 464, 230}";
}
);
layerId = "0B1DFD06-3317-40CA-B510-4969A0718C16";
width = 732;
}
);
note = Ecircumflexacute;
unicode = 1EBE;
},
{
color = 3;
glyphname = Ecircumflexdotbelow;
lastChange = "2018-02-15 11:29:45 +0000";
layers = (
{
background = {
paths = (
{
closed = 1;
nodes = (
"554 0 LINE",
"571 179 LINE",
"544 179 LINE",
"538 124 OFFCURVE",
"520 40 OFFCURVE",
"456 40 CURVE SMOOTH",
"201 40 LINE",
"201 659 LINE",
"441 659 LINE SMOOTH",
"516 659 OFFCURVE",
"525 567 OFFCURVE",
"528 527 CURVE",
"555 527 LINE",
"555 700 LINE",
"16 700 LINE",
"16 673 LINE",
"44 673 LINE SMOOTH",
"83 673 OFFCURVE",
"103 662 OFFCURVE",
"103 637 CURVE SMOOTH",
"103 62 LINE SMOOTH",
"103 37 OFFCURVE",
"83 26 OFFCURVE",
"44 26 CURVE SMOOTH",
"16 26 LINE",
"16 0 LINE"
);
},
{
closed = 1;
nodes = (
"350 -159 OFFCURVE",
"368 -140 OFFCURVE",
"368 -112 CURVE SMOOTH",
"368 -84 OFFCURVE",
"350 -64 OFFCURVE",
"322 -64 CURVE SMOOTH",
"294 -64 OFFCURVE",
"275 -84 OFFCURVE",
"275 -112 CURVE SMOOTH",
"275 -140 OFFCURVE",
"294 -159 OFFCURVE",
"322 -159 CURVE SMOOTH"
);
},
{
closed = 1;
nodes = (
"455 251 LINE",
"455 485 LINE",
"431 485 LINE",
"427 436 OFFCURVE",
"424 388 OFFCURVE",
"379 388 CURVE SMOOTH",
"162 388 LINE",
"162 348 LINE",
"379 348 LINE SMOOTH",
"424 348 OFFCURVE",
"427 300 OFFCURVE",
"431 251 CURVE"
);
},
{
closed = 1;
nodes = (
"294 868 LINE SMOOTH",
"302 874 OFFCURVE",
"312 879 OFFCURVE",
"318 879 CURVE SMOOTH",
"324 879 OFFCURVE",
"332 874 OFFCURVE",
"341 868 CURVE",
"449 782 LINE",
"468 803 LINE",
"344 932 LINE",
"291 932 LINE",
"167 803 LINE",
"186 782 LINE"
);
}
);
};
components = (
{
name = E;
},
{
name = dotbelowcomb;
transform = "{1, 0, 0, 1, 273, 0}";
},
{
name = circumflexcomb;
transform = "{1, 0, 0, 1, 464, 230}";
}
);
layerId = "0B1DFD06-3317-40CA-B510-4969A0718C16";
width = 732;
}
);
note = Ecircumflexdotbelow;
unicode = 1EC6;
},
{
color = 3;
glyphname = Ecircumflexgrave;
lastChange = "2018-02-14 11:46:41 +0000";
layers = (
{
background = {
paths = (
{
closed = 1;
nodes = (
"554 0 LINE",
"571 179 LINE",
"544 179 LINE",
"538 124 OFFCURVE",
"520 40 OFFCURVE",
"456 40 CURVE SMOOTH",
"201 40 LINE",
"201 659 LINE",
"441 659 LINE SMOOTH",
"516 659 OFFCURVE",
"525 567 OFFCURVE",
"528 527 CURVE",
"555 527 LINE",
"555 700 LINE",
"16 700 LINE",
"16 673 LINE",
"44 673 LINE SMOOTH",
"83 673 OFFCURVE",
"103 662 OFFCURVE",
"103 637 CURVE SMOOTH",
"103 62 LINE SMOOTH",
"103 37 OFFCURVE",
"83 26 OFFCURVE",
"44 26 CURVE SMOOTH",
"16 26 LINE",
"16 0 LINE"
);
},
{
closed = 1;
nodes = (
"455 251 LINE",
"455 485 LINE",
"431 485 LINE",
"427 436 OFFCURVE",
"424 388 OFFCURVE",
"379 388 CURVE SMOOTH",
"162 388 LINE",
"162 348 LINE",
"379 348 LINE SMOOTH",
"424 348 OFFCURVE",
"427 300 OFFCURVE",
"431 251 CURVE"
);
},
{
closed = 1;
nodes = (
"227 915 LINE",
"132 1008 LINE SMOOTH",
"122 1018 OFFCURVE",
"105 1034 OFFCURVE",
"85 1034 CURVE SMOOTH",
"63 1034 OFFCURVE",
"52 1017 OFFCURVE",
"52 1003 CURVE SMOOTH",
"52 988 OFFCURVE",
"65 972 OFFCURVE",
"88 960 CURVE SMOOTH",
"210 893 LINE"
);
},
{
closed = 1;
nodes = (
"290 862 LINE SMOOTH",
"300 870 OFFCURVE",
"310 878 OFFCURVE",
"318 878 CURVE SMOOTH",
"324 878 OFFCURVE",
"332 873 OFFCURVE",
"341 867 CURVE",
"447 781 LINE",
"466 803 LINE",
"344 932 LINE",
"293 932 LINE",
"171 803 LINE",
"189 781 LINE"
);
}
);
};
components = (
{
name = E;
},
{
name = circumflexgrave;
transform = "{1, 0, 0, 1, 464, 230}";
}
);
layerId = "0B1DFD06-3317-40CA-B510-4969A0718C16";
width = 732;
}
);
note = Ecircumflexgrave;
unicode = 1EC0;
},
{
color = 3;
glyphname = Ecircumflexhookabove;
lastChange = "2018-02-14 11:46:41 +0000";
layers = (
{
background = {
paths = (
{
closed = 1;
nodes = (
"554 0 LINE",
"571 179 LINE",
"544 179 LINE",
"538 124 OFFCURVE",
"520 40 OFFCURVE",
"456 40 CURVE SMOOTH",
"201 40 LINE",
"201 659 LINE",
"441 659 LINE SMOOTH",
"516 659 OFFCURVE",
"525 567 OFFCURVE",
"528 527 CURVE",
"555 527 LINE",
"555 700 LINE",
"16 700 LINE",
"16 673 LINE",
"44 673 LINE SMOOTH",
"83 673 OFFCURVE",
"103 662 OFFCURVE",
"103 637 CURVE SMOOTH",
"103 62 LINE SMOOTH",
"103 37 OFFCURVE",
"83 26 OFFCURVE",
"44 26 CURVE SMOOTH",
"16 26 LINE",
"16 0 LINE"
);
},
{
closed = 1;
nodes = (
"455 251 LINE",
"455 485 LINE",
"431 485 LINE",
"427 436 OFFCURVE",
"424 388 OFFCURVE",
"379 388 CURVE SMOOTH",
"162 388 LINE",
"162 348 LINE",
"379 348 LINE SMOOTH",
"424 348 OFFCURVE",
"427 300 OFFCURVE",
"431 251 CURVE"
);
},
{
closed = 1;
nodes = (
"286 858 LINE",
"297 868 OFFCURVE",
"309 878 OFFCURVE",
"318 878 CURVE SMOOTH",
"324 878 OFFCURVE",
"332 873 OFFCURVE",
"341 867 CURVE",
"447 781 LINE",
"466 803 LINE",
"344 932 LINE",
"293 932 LINE",
"171 803 LINE",
"189 781 LINE"
);
},
{
closed = 1;
nodes = (
"493 898 LINE",
"474 905 OFFCURVE",
"464 912 OFFCURVE",
"464 926 CURVE SMOOTH",
"464 954 OFFCURVE",
"544 965 OFFCURVE",
"544 1010 CURVE SMOOTH",
"544 1047 OFFCURVE",
"502 1063 OFFCURVE",
"460 1063 CURVE SMOOTH",
"429 1063 OFFCURVE",
"384 1053 OFFCURVE",
"384 1022 CURVE SMOOTH",
"384 1010 OFFCURVE",
"395 1001 OFFCURVE",
"405 1001 CURVE SMOOTH",
"434 1001 OFFCURVE",
"421 1040 OFFCURVE",
"464 1040 CURVE SMOOTH",
"483 1040 OFFCURVE",
"494 1028 OFFCURVE",
"494 1013 CURVE SMOOTH",
"494 973 OFFCURVE",
"421 965 OFFCURVE",
"421 925 CURVE SMOOTH",
"421 901 OFFCURVE",
"437 880 OFFCURVE",
"484 880 CURVE"
);
}
);
};
components = (
{
name = E;
},
{
name = circumflexhookabove;
transform = "{1, 0, 0, 1, 464, 230}";
}
);
layerId = "0B1DFD06-3317-40CA-B510-4969A0718C16";
width = 732;
}
);
note = Ecircumflexhookabove;
unicode = 1EC2;
},
{
color = 3;
glyphname = Ecircumflextilde;
lastChange = "2018-02-14 11:46:41 +0000";
layers = (
{
background = {
paths = (
{
closed = 1;
nodes = (
"554 0 LINE",
"571 179 LINE",
"544 179 LINE",
"538 124 OFFCURVE",
"520 40 OFFCURVE",
"456 40 CURVE SMOOTH",
"201 40 LINE",
"201 659 LINE",
"441 659 LINE SMOOTH",
"516 659 OFFCURVE",
"525 567 OFFCURVE",
"528 527 CURVE",
"555 527 LINE",
"555 700 LINE",
"16 700 LINE",
"16 673 LINE",
"44 673 LINE SMOOTH",
"83 673 OFFCURVE",
"103 662 OFFCURVE",
"103 637 CURVE SMOOTH",
"103 62 LINE SMOOTH",
"103 37 OFFCURVE",
"83 26 OFFCURVE",
"44 26 CURVE SMOOTH",
"16 26 LINE",
"16 0 LINE"
);
},
{
closed = 1;
nodes = (
"455 251 LINE",
"455 485 LINE",
"431 485 LINE",
"427 436 OFFCURVE",
"424 388 OFFCURVE",
"379 388 CURVE SMOOTH",
"162 388 LINE",
"162 348 LINE",
"379 348 LINE SMOOTH",
"424 348 OFFCURVE",
"427 300 OFFCURVE",
"431 251 CURVE"
);
},
{
closed = 1;
nodes = (
"290 862 LINE SMOOTH",
"300 870 OFFCURVE",
"310 878 OFFCURVE",
"318 878 CURVE SMOOTH",
"324 878 OFFCURVE",
"332 873 OFFCURVE",
"341 867 CURVE",
"447 781 LINE",
"466 803 LINE",
"344 932 LINE",
"293 932 LINE",
"171 803 LINE",
"189 781 LINE"
);
},
{
closed = 1;
nodes = (
"193 997 OFFCURVE",
"211 1018 OFFCURVE",
"242 1018 CURVE SMOOTH",
"291 1018 OFFCURVE",
"338 964 OFFCURVE",
"387 964 CURVE SMOOTH",
"440 964 OFFCURVE",
"469 1012 OFFCURVE",
"481 1063 CURVE",
"460 1075 LINE",
"447 1035 OFFCURVE",
"431 1012 OFFCURVE",
"398 1012 CURVE SMOOTH",
"351 1012 OFFCURVE",
"302 1065 OFFCURVE",
"253 1065 CURVE SMOOTH",
"202 1065 OFFCURVE",
"170 1021 OFFCURVE",
"160 970 CURVE",
"180 958 LINE"
);
}
);
};
components = (
{
name = E;
},
{
name = circumflexcomb;
transform = "{1, 0, 0, 1, 464, 230}";
},
{
name = tildecomb;
transform = "{1, 0, 0, 1, 509, 516}";
}
);
layerId = "0B1DFD06-3317-40CA-B510-4969A0718C16";
width = 732;
}
);
note = Ecircumflextilde;
unicode = 1EC4;
},
{
color = 3;
glyphname = Edieresis;
lastChange = "2018-02-14 11:46:27 +0000";
layers = (
{
background = {
paths = (
{
closed = 1;
nodes = (
"554 0 LINE",
"571 179 LINE",
"544 179 LINE",
"538 124 OFFCURVE",
"520 40 OFFCURVE",
"456 40 CURVE SMOOTH",
"201 40 LINE",
"201 659 LINE",
"441 659 LINE SMOOTH",
"516 659 OFFCURVE",
"525 567 OFFCURVE",
"528 527 CURVE",
"555 527 LINE",
"555 700 LINE",
"16 700 LINE",
"16 673 LINE",
"44 673 LINE SMOOTH",
"83 673 OFFCURVE",
"103 662 OFFCURVE",
"103 637 CURVE SMOOTH",
"103 62 LINE SMOOTH",
"103 37 OFFCURVE",
"83 26 OFFCURVE",
"44 26 CURVE SMOOTH",
"16 26 LINE",
"16 0 LINE"
);
},
{
closed = 1;
nodes = (
"455 251 LINE",
"455 485 LINE",
"431 485 LINE",
"427 436 OFFCURVE",
"424 388 OFFCURVE",
"379 388 CURVE SMOOTH",
"162 388 LINE",
"162 348 LINE",
"379 348 LINE SMOOTH",
"424 348 OFFCURVE",
"427 300 OFFCURVE",
"431 251 CURVE"
);
},
{
closed = 1;
nodes = (
"254 781 OFFCURVE",
"272 800 OFFCURVE",
"272 827 CURVE SMOOTH",
"272 855 OFFCURVE",
"254 875 OFFCURVE",
"225 875 CURVE SMOOTH",
"197 875 OFFCURVE",
"179 855 OFFCURVE",
"179 827 CURVE SMOOTH",
"179 800 OFFCURVE",
"197 781 OFFCURVE",
"225 781 CURVE SMOOTH"
);
},
{
closed = 1;
nodes = (
"470 781 OFFCURVE",
"488 800 OFFCURVE",
"488 827 CURVE SMOOTH",
"488 855 OFFCURVE",
"470 875 OFFCURVE",
"441 875 CURVE SMOOTH",
"412 875 OFFCURVE",
"394 855 OFFCURVE",
"394 827 CURVE SMOOTH",
"394 800 OFFCURVE",
"412 781 OFFCURVE",
"441 781 CURVE SMOOTH"
);
}
);
};
components = (
{
name = E;
},
{
name = dieresiscomb;
transform = "{1, 0, 0, 1, 465, 280}";
}
);
layerId = "0B1DFD06-3317-40CA-B510-4969A0718C16";
width = 732;
}
);
note = Edieresis;
unicode = 00CB;
},
{
color = 3;
glyphname = Edotaccent;
lastChange = "2018-02-14 11:46:41 +0000";
layers = (
{
background = {
paths = (
{
closed = 1;
nodes = (
"554 0 LINE",
"571 179 LINE",
"544 179 LINE",
"538 124 OFFCURVE",
"520 40 OFFCURVE",
"456 40 CURVE SMOOTH",
"201 40 LINE",
"201 659 LINE",
"441 659 LINE SMOOTH",
"516 659 OFFCURVE",
"525 567 OFFCURVE",
"528 527 CURVE",
"555 527 LINE",
"555 700 LINE",
"16 700 LINE",
"16 673 LINE",
"44 673 LINE SMOOTH",
"83 673 OFFCURVE",
"103 662 OFFCURVE",
"103 637 CURVE SMOOTH",
"103 62 LINE SMOOTH",
"103 37 OFFCURVE",
"83 26 OFFCURVE",
"44 26 CURVE SMOOTH",
"16 26 LINE",
"16 0 LINE"
);
},
{
closed = 1;
nodes = (
"455 251 LINE",
"455 485 LINE",
"431 485 LINE",
"427 436 OFFCURVE",
"424 388 OFFCURVE",
"379 388 CURVE SMOOTH",
"162 388 LINE",
"162 348 LINE",
"379 348 LINE SMOOTH",
"424 348 OFFCURVE",
"427 300 OFFCURVE",
"431 251 CURVE"
);
},
{
closed = 1;
nodes = (
"362 765 OFFCURVE",
"380 784 OFFCURVE",
"380 811 CURVE SMOOTH",
"380 839 OFFCURVE",
"362 858 OFFCURVE",
"334 858 CURVE SMOOTH",
"305 858 OFFCURVE",
"287 839 OFFCURVE",
"287 811 CURVE SMOOTH",
"287 784 OFFCURVE",
"305 765 OFFCURVE",
"334 765 CURVE SMOOTH"
);
}
);
};
components = (
{
name = E;
},
{
name = dotaccentcomb;
transform = "{1, 0, 0, 1, 468, 280}";
}
);
layerId = "0B1DFD06-3317-40CA-B510-4969A0718C16";
width = 732;
}
);
note = Edotaccent;
unicode = 0116;
},
{
color = 3;
glyphname = Edotbelow;
lastChange = "2018-02-15 11:29:45 +0000";
layers = (
{
background = {
paths = (
{
closed = 1;
nodes = (
"554 0 LINE",
"571 179 LINE",
"544 179 LINE",
"538 124 OFFCURVE",
"520 40 OFFCURVE",
"456 40 CURVE SMOOTH",
"201 40 LINE",
"201 659 LINE",
"441 659 LINE SMOOTH",
"516 659 OFFCURVE",
"525 567 OFFCURVE",
"528 527 CURVE",
"555 527 LINE",
"555 700 LINE",
"16 700 LINE",
"16 673 LINE",
"44 673 LINE SMOOTH",
"83 673 OFFCURVE",
"103 662 OFFCURVE",
"103 637 CURVE SMOOTH",
"103 62 LINE SMOOTH",
"103 37 OFFCURVE",
"83 26 OFFCURVE",
"44 26 CURVE SMOOTH",
"16 26 LINE",
"16 0 LINE"
);
},
{
closed = 1;
nodes = (
"343 -159 OFFCURVE",
"361 -140 OFFCURVE",
"361 -112 CURVE SMOOTH",
"361 -84 OFFCURVE",
"343 -64 OFFCURVE",
"315 -64 CURVE SMOOTH",
"287 -64 OFFCURVE",
"268 -84 OFFCURVE",
"268 -112 CURVE SMOOTH",
"268 -140 OFFCURVE",
"287 -159 OFFCURVE",
"315 -159 CURVE SMOOTH"
);
},
{
closed = 1;
nodes = (
"455 251 LINE",
"455 485 LINE",
"431 485 LINE",
"427 436 OFFCURVE",
"424 388 OFFCURVE",
"379 388 CURVE SMOOTH",
"162 388 LINE",
"162 348 LINE",
"379 348 LINE SMOOTH",
"424 348 OFFCURVE",
"427 300 OFFCURVE",
"431 251 CURVE"
);
}
);
};
components = (
{
name = E;
},
{
name = dotbelowcomb;
transform = "{1, 0, 0, 1, 273, 0}";
}
);
layerId = "0B1DFD06-3317-40CA-B510-4969A0718C16";
width = 732;
}
);
note = Edotbelow;
unicode = 1EB8;
},
{
color = 3;
glyphname = Egrave;
lastChange = "2018-02-14 11:46:41 +0000";
layers = (
{
background = {
paths = (
{
closed = 1;
nodes = (
"554 0 LINE",
"571 179 LINE",
"544 179 LINE",
"538 124 OFFCURVE",
"520 40 OFFCURVE",
"456 40 CURVE SMOOTH",
"201 40 LINE",
"201 659 LINE",
"441 659 LINE SMOOTH",
"516 659 OFFCURVE",
"525 567 OFFCURVE",
"528 527 CURVE",
"555 527 LINE",
"555 700 LINE",
"16 700 LINE",
"16 673 LINE",
"44 673 LINE SMOOTH",
"83 673 OFFCURVE",
"103 662 OFFCURVE",
"103 637 CURVE SMOOTH",
"103 62 LINE SMOOTH",
"103 37 OFFCURVE",
"83 26 OFFCURVE",
"44 26 CURVE SMOOTH",
"16 26 LINE",
"16 0 LINE"
);
},
{
closed = 1;
nodes = (
"455 251 LINE",
"455 485 LINE",
"431 485 LINE",
"427 436 OFFCURVE",
"424 388 OFFCURVE",
"379 388 CURVE SMOOTH",
"162 388 LINE",
"162 348 LINE",
"379 348 LINE SMOOTH",
"424 348 OFFCURVE",
"427 300 OFFCURVE",
"431 251 CURVE"
);
},
{
closed = 1;
nodes = (
"425 807 LINE",
"310 913 LINE",
"301 922 OFFCURVE",
"285 937 OFFCURVE",
"265 937 CURVE SMOOTH",
"245 937 OFFCURVE",
"233 924 OFFCURVE",
"233 908 CURVE SMOOTH",
"233 890 OFFCURVE",
"245 876 OFFCURVE",
"264 865 CURVE SMOOTH",
"407 782 LINE"
);
}
);
};
components = (
{
name = E;
},
{
name = gravecomb;
transform = "{1, 0, 0, 1, 283, 280}";
}
);
layerId = "0B1DFD06-3317-40CA-B510-4969A0718C16";
width = 732;
}
);
note = Egrave;
unicode = 00C8;
},
{
color = 3;
glyphname = Ehookabove;
lastChange = "2018-02-14 11:46:41 +0000";
layers = (
{
background = {
paths = (
{
closed = 1;
nodes = (
"554 0 LINE",
"571 179 LINE",
"544 179 LINE",
"538 124 OFFCURVE",
"520 40 OFFCURVE",
"456 40 CURVE SMOOTH",
"201 40 LINE",
"201 659 LINE",
"441 659 LINE SMOOTH",
"516 659 OFFCURVE",
"525 567 OFFCURVE",
"528 527 CURVE",
"555 527 LINE",
"555 700 LINE",
"16 700 LINE",
"16 673 LINE",
"44 673 LINE SMOOTH",
"83 673 OFFCURVE",
"103 662 OFFCURVE",
"103 637 CURVE SMOOTH",
"103 62 LINE SMOOTH",
"103 37 OFFCURVE",
"83 26 OFFCURVE",
"44 26 CURVE SMOOTH",
"16 26 LINE",
"16 0 LINE"
);
},
{
closed = 1;
nodes = (
"455 251 LINE",
"455 485 LINE",
"431 485 LINE",
"427 436 OFFCURVE",
"424 388 OFFCURVE",
"379 388 CURVE SMOOTH",
"162 388 LINE",
"162 348 LINE",
"379 348 LINE SMOOTH",
"424 348 OFFCURVE",
"427 300 OFFCURVE",
"431 251 CURVE"
);
},
{
closed = 1;
nodes = (
"367 798 LINE",
"348 805 OFFCURVE",
"336 811 OFFCURVE",
"336 828 CURVE SMOOTH",
"336 861 OFFCURVE",
"425 876 OFFCURVE",
"425 927 CURVE SMOOTH",
"425 969 OFFCURVE",
"389 991 OFFCURVE",
"336 991 CURVE SMOOTH",
"289 991 OFFCURVE",
"248 974 OFFCURVE",
"248 940 CURVE SMOOTH",
"248 923 OFFCURVE",
"256 915 OFFCURVE",
"271 915 CURVE SMOOTH",
"294 915 OFFCURVE",
"296 934 OFFCURVE",
"299 942 CURVE SMOOTH",
"304 956 OFFCURVE",
"321 962 OFFCURVE",
"337 962 CURVE SMOOTH",
"358 962 OFFCURVE",
"371 947 OFFCURVE",
"371 930 CURVE SMOOTH",
"371 885 OFFCURVE",
"289 874 OFFCURVE",
"289 828 CURVE SMOOTH",
"289 801 OFFCURVE",
"307 778 OFFCURVE",
"358 778 CURVE"
);
}
);
};
components = (
{
name = E;
},
{
name = hookabovecomb;
transform = "{1, 0, 0, 1, 386, 280}";
}
);
layerId = "0B1DFD06-3317-40CA-B510-4969A0718C16";
width = 732;
}
);
note = Ehookabove;
unicode = 1EBA;
},
{
color = 3;
glyphname = Emacron;
lastChange = "2018-02-14 11:46:41 +0000";
layers = (
{
background = {
paths = (
{
closed = 1;
nodes = (
"554 0 LINE",
"571 179 LINE",
"544 179 LINE",
"538 124 OFFCURVE",
"520 40 OFFCURVE",
"456 40 CURVE SMOOTH",
"201 40 LINE",
"201 659 LINE",
"441 659 LINE SMOOTH",
"516 659 OFFCURVE",
"525 567 OFFCURVE",
"528 527 CURVE",
"555 527 LINE",
"555 700 LINE",
"16 700 LINE",
"16 673 LINE",
"44 673 LINE SMOOTH",
"83 673 OFFCURVE",
"103 662 OFFCURVE",
"103 637 CURVE SMOOTH",
"103 62 LINE SMOOTH",
"103 37 OFFCURVE",
"83 26 OFFCURVE",
"44 26 CURVE SMOOTH",
"16 26 LINE",
"16 0 LINE"
);
},
{
closed = 1;
nodes = (
"455 251 LINE",
"455 485 LINE",
"431 485 LINE",
"427 436 OFFCURVE",
"424 388 OFFCURVE",
"379 388 CURVE SMOOTH",
"162 388 LINE",
"162 348 LINE",
"379 348 LINE SMOOTH",
"424 348 OFFCURVE",
"427 300 OFFCURVE",
"431 251 CURVE"
);
},
{
closed = 1;
nodes = (
"495 782 LINE",
"495 824 LINE",
"162 824 LINE",
"162 782 LINE"
);
}
);
};
components = (
{
name = E;
},
{
name = macroncomb;
transform = "{1, 0, 0, 1, 286, 280}";
}
);
layerId = "0B1DFD06-3317-40CA-B510-4969A0718C16";
width = 732;
}
);
note = Emacron;
unicode = 0112;
},
{
color = 3;
glyphname = Eogonek;
lastChange = "2018-02-14 11:46:41 +0000";
layers = (
{
background = {
paths = (
{
closed = 1;
nodes = (
"554 0 LINE",
"571 179 LINE",
"544 179 LINE",
"538 124 OFFCURVE",
"520 40 OFFCURVE",
"456 40 CURVE SMOOTH",
"201 40 LINE",
"201 659 LINE",
"441 659 LINE SMOOTH",
"516 659 OFFCURVE",
"525 567 OFFCURVE",
"528 527 CURVE",
"555 527 LINE",
"555 700 LINE",
"16 700 LINE",
"16 673 LINE",
"44 673 LINE SMOOTH",
"83 673 OFFCURVE",
"103 662 OFFCURVE",
"103 637 CURVE SMOOTH",
"103 62 LINE SMOOTH",
"103 37 OFFCURVE",
"83 26 OFFCURVE",
"44 26 CURVE SMOOTH",
"16 26 LINE",
"16 0 LINE"
);
},
{
closed = 1;
nodes = (
"496 -196 OFFCURVE",
"524 -189 OFFCURVE",
"549 -172 CURVE",
"543 -152 LINE",
"527 -158 OFFCURVE",
"510 -162 OFFCURVE",
"497 -162 CURVE SMOOTH",
"464 -162 OFFCURVE",
"437 -146 OFFCURVE",
"437 -106 CURVE SMOOTH",
"437 -66 OFFCURVE",
"464 -26 OFFCURVE",
"510 4 CURVE",
"469 4 LINE",
"416 -22 OFFCURVE",
"376 -64 OFFCURVE",
"376 -114 CURVE SMOOTH",
"376 -147 OFFCURVE",
"395 -196 OFFCURVE",
"470 -196 CURVE SMOOTH"
);
},
{
closed = 1;
nodes = (
"455 251 LINE",
"455 485 LINE",
"431 485 LINE",
"427 436 OFFCURVE",
"424 388 OFFCURVE",
"379 388 CURVE SMOOTH",
"162 388 LINE",
"162 348 LINE",
"379 348 LINE SMOOTH",
"424 348 OFFCURVE",
"427 300 OFFCURVE",
"431 251 CURVE"
);
}
);
};
components = (
{
name = E;
},
{
name = ogonekcomb;
transform = "{1, 0, 0, 1, 708, 33}";
}
);
layerId = "0B1DFD06-3317-40CA-B510-4969A0718C16";
width = 732;
}
);
note = Eogonek;
unicode = 0118;
},
{
color = 3;
glyphname = Etilde;
lastChange = "2018-02-14 11:46:41 +0000";
layers = (
{
background = {
paths = (
{
closed = 1;
nodes = (
"554 0 LINE",
"571 179 LINE",
"544 179 LINE",
"538 124 OFFCURVE",
"520 40 OFFCURVE",
"456 40 CURVE SMOOTH",
"201 40 LINE",
"201 659 LINE",
"441 659 LINE SMOOTH",
"516 659 OFFCURVE",
"525 567 OFFCURVE",
"528 527 CURVE",
"555 527 LINE",
"555 700 LINE",
"16 700 LINE",
"16 673 LINE",
"44 673 LINE SMOOTH",
"83 673 OFFCURVE",
"103 662 OFFCURVE",
"103 637 CURVE SMOOTH",
"103 62 LINE SMOOTH",
"103 37 OFFCURVE",
"83 26 OFFCURVE",
"44 26 CURVE SMOOTH",
"16 26 LINE",
"16 0 LINE"
);
},
{
closed = 1;
nodes = (
"455 251 LINE",
"455 485 LINE",
"431 485 LINE",
"427 436 OFFCURVE",
"424 388 OFFCURVE",
"379 388 CURVE SMOOTH",
"162 388 LINE",
"162 348 LINE",
"379 348 LINE SMOOTH",
"424 348 OFFCURVE",
"427 300 OFFCURVE",
"431 251 CURVE"
);
},
{
closed = 1;
nodes = (
"190 817 OFFCURVE",
"208 838 OFFCURVE",
"241 838 CURVE SMOOTH",
"292 838 OFFCURVE",
"341 784 OFFCURVE",
"392 784 CURVE SMOOTH",
"450 784 OFFCURVE",
"480 832 OFFCURVE",
"492 884 CURVE",
"471 895 LINE",
"455 855 OFFCURVE",
"439 833 OFFCURVE",
"405 833 CURVE SMOOTH",
"356 833 OFFCURVE",
"304 886 OFFCURVE",
"253 886 CURVE SMOOTH",
"199 886 OFFCURVE",
"166 842 OFFCURVE",
"154 790 CURVE",
"176 779 LINE"
);
}
);
};
components = (
{
name = E;
},
{
name = tildecomb;
transform = "{1, 0, 0, 1, 467, 280}";
}
);
layerId = "0B1DFD06-3317-40CA-B510-4969A0718C16";
width = 732;
}
);
note = Etilde;
unicode = 1EBC;
},
{
color = 3;
glyphname = Hbar;
lastChange = "2018-02-16 07:22:34 +0000";
layers = (
{
components = (
{
name = H;
}
);
layerId = "0B1DFD06-3317-40CA-B510-4969A0718C16";
paths = (
{
closed = 1;
nodes = (
"858 578 LINE",
"703 572 OFFCURVE",
"137 574 OFFCURVE",
"88 574 CURVE",
"80 527 LINE",
"98 528 OFFCURVE",
"120 528 OFFCURVE",
"150 528 CURVE SMOOTH",
"238 528 OFFCURVE",
"720 534 OFFCURVE",
"847 533 CURVE"
);
}
);
width = 799;
}
);
widthMetricsKey = H;
note = Hbar;
unicode = 0126;
},
{
color = 3;
glyphname = Lslash;
lastChange = "2018-02-18 18:25:36 +0000";
layers = (
{
components = (
{
name = L;
}
);
layerId = "0B1DFD06-3317-40CA-B510-4969A0718C16";
paths = (
{
closed = 1;
nodes = (
"179 303 OFFCURVE",
"225 321 OFFCURVE",
"285 342 CURVE SMOOTH",
"419 383 OFFCURVE",
"496 409 OFFCURVE",
"501 405 CURVE SMOOTH",
"502 403 OFFCURVE",
"505 403 OFFCURVE",
"508 403 CURVE SMOOTH",
"515 403 OFFCURVE",
"507 438 OFFCURVE",
"491 438 CURVE",
"295 376 LINE SMOOTH",
"206 348 OFFCURVE",
"171 338 OFFCURVE",
"152 338 CURVE SMOOTH",
"151 338 OFFCURVE",
"150 337 OFFCURVE",
"148 334 CURVE",
"148 330 OFFCURVE",
"164 303 OFFCURVE",
"180 303 CURVE"
);
}
);
width = 785;
}
);
note = Lslash;
unicode = 0141;
},
{
color = 3;
glyphname = Nacute;
lastChange = "2018-02-18 18:40:33 +0000";
layers = (
{
background = {
paths = (
{
closed = 1;
nodes = (
"247 0 LINE",
"247 26 LINE",
"217 26 LINE SMOOTH",
"179 26 OFFCURVE",
"159 37 OFFCURVE",
"159 62 CURVE SMOOTH",
"159 642 LINE",
"587 0 LINE",
"645 0 LINE",
"645 637 LINE SMOOTH",
"645 662 OFFCURVE",
"665 673 OFFCURVE",
"703 673 CURVE SMOOTH",
"733 673 LINE",
"733 700 LINE",
"508 700 LINE",
"508 673 LINE",
"537 673 LINE SMOOTH",
"576 673 OFFCURVE",
"595 662 OFFCURVE",
"595 637 CURVE SMOOTH",
"595 126 LINE",
"217 700 LINE",
"22 700 LINE",
"22 673 LINE",
"51 673 LINE SMOOTH",
"90 673 OFFCURVE",
"109 662 OFFCURVE",
"109 637 CURVE SMOOTH",
"109 62 LINE SMOOTH",
"109 37 OFFCURVE",
"90 26 OFFCURVE",
"51 26 CURVE SMOOTH",
"22 26 LINE",
"22 0 LINE"
);
},
{
closed = 1;
nodes = (
"458 865 LINE SMOOTH",
"480 877 OFFCURVE",
"492 890 OFFCURVE",
"492 907 CURVE SMOOTH",
"492 922 OFFCURVE",
"480 937 OFFCURVE",
"458 937 CURVE SMOOTH",
"437 937 OFFCURVE",
"422 921 OFFCURVE",
"414 914 CURVE SMOOTH",
"299 807 LINE",
"316 782 LINE"
);
}
);
};
components = (
{
name = N;
},
{
name = acutecomb;
transform = "{1, 0, 0, 1, 355, 230}";
}
);
layerId = "0B1DFD06-3317-40CA-B510-4969A0718C16";
width = 780;
}
);
note = Nacute;
unicode = 0143;
},
{
color = 3;
glyphname = Ncaron;
lastChange = "2018-02-16 07:52:37 +0000";
layers = (
{
background = {
paths = (
{
closed = 1;
nodes = (
"247 0 LINE",
"247 26 LINE",
"217 26 LINE SMOOTH",
"179 26 OFFCURVE",
"159 37 OFFCURVE",
"159 62 CURVE SMOOTH",
"159 642 LINE",
"587 0 LINE",
"645 0 LINE",
"645 637 LINE SMOOTH",
"645 662 OFFCURVE",
"665 673 OFFCURVE",
"703 673 CURVE SMOOTH",
"733 673 LINE",
"733 700 LINE",
"508 700 LINE",
"508 673 LINE",
"537 673 LINE SMOOTH",
"576 673 OFFCURVE",
"595 662 OFFCURVE",
"595 637 CURVE SMOOTH",
"595 126 LINE",
"217 700 LINE",
"22 700 LINE",
"22 673 LINE",
"51 673 LINE SMOOTH",
"90 673 OFFCURVE",
"109 662 OFFCURVE",
"109 637 CURVE SMOOTH",
"109 62 LINE SMOOTH",
"109 37 OFFCURVE",
"90 26 OFFCURVE",
"51 26 CURVE SMOOTH",
"22 26 LINE",
"22 0 LINE"
);
},
{
closed = 1;
nodes = (
"403 782 LINE",
"527 911 LINE",
"508 932 LINE",
"400 847 LINE",
"392 840 OFFCURVE",
"383 836 OFFCURVE",
"377 836 CURVE SMOOTH",
"371 836 OFFCURVE",
"363 840 OFFCURVE",
"353 847 CURVE",
"245 932 LINE",
"226 911 LINE",
"350 782 LINE"
);
}
);
};
components = (
{
name = N;
},
{
name = caroncomb;
transform = "{1, 0, 0, 1, 485, 230}";
}
);
layerId = "0B1DFD06-3317-40CA-B510-4969A0718C16";
width = 780;
}
);
note = Ncaron;
unicode = 0147;
},
{
color = 3;
glyphname = Ncommaaccent;
lastChange = "2018-02-16 07:52:37 +0000";
layers = (
{
background = {
paths = (
{
closed = 1;
nodes = (
"247 0 LINE",
"247 26 LINE",
"217 26 LINE SMOOTH",
"179 26 OFFCURVE",
"159 37 OFFCURVE",
"159 62 CURVE SMOOTH",
"159 642 LINE",
"587 0 LINE",
"645 0 LINE",
"645 637 LINE SMOOTH",
"645 662 OFFCURVE",
"665 673 OFFCURVE",
"703 673 CURVE SMOOTH",
"733 673 LINE",
"733 700 LINE",
"508 700 LINE",
"508 673 LINE",
"537 673 LINE SMOOTH",
"576 673 OFFCURVE",
"595 662 OFFCURVE",
"595 637 CURVE SMOOTH",
"595 126 LINE",
"217 700 LINE",
"22 700 LINE",
"22 673 LINE",
"51 673 LINE SMOOTH",
"90 673 OFFCURVE",
"109 662 OFFCURVE",
"109 637 CURVE SMOOTH",
"109 62 LINE SMOOTH",
"109 37 OFFCURVE",
"90 26 OFFCURVE",
"51 26 CURVE SMOOTH",
"22 26 LINE",
"22 0 LINE"
);
},
{
closed = 1;
nodes = (
"369 -258 OFFCURVE",
"413 -198 OFFCURVE",
"413 -135 CURVE SMOOTH",
"413 -87 OFFCURVE",
"389 -67 OFFCURVE",
"360 -67 CURVE SMOOTH",
"331 -67 OFFCURVE",
"314 -87 OFFCURVE",
"314 -111 CURVE SMOOTH",
"314 -145 OFFCURVE",
"349 -152 OFFCURVE",
"349 -187 CURVE SMOOTH",
"349 -223 OFFCURVE",
"323 -256 OFFCURVE",
"296 -282 CURVE",
"313 -299 LINE"
);
}
);
};
components = (
{
name = N;
},
{
name = commaaccentcomb;
transform = "{1, 0, 0, 1, 228, 0}";
}
);
layerId = "0B1DFD06-3317-40CA-B510-4969A0718C16";
width = 780;
}
);
note = Ncommaaccent;
unicode = 0145;
},
{
color = 3;
glyphname = Ndotaccent;
lastChange = "2018-02-16 07:52:37 +0000";
layers = (
{
background = {
paths = (
{
closed = 1;
nodes = (
"247 0 LINE",
"247 26 LINE",
"217 26 LINE SMOOTH",
"179 26 OFFCURVE",
"159 37 OFFCURVE",
"159 62 CURVE SMOOTH",
"159 642 LINE",
"587 0 LINE",
"645 0 LINE",
"645 637 LINE SMOOTH",
"645 662 OFFCURVE",
"665 673 OFFCURVE",
"703 673 CURVE SMOOTH",
"733 673 LINE",
"733 700 LINE",
"508 700 LINE",
"508 673 LINE",
"537 673 LINE SMOOTH",
"576 673 OFFCURVE",
"595 662 OFFCURVE",
"595 637 CURVE SMOOTH",
"595 126 LINE",
"217 700 LINE",
"22 700 LINE",
"22 673 LINE",
"51 673 LINE SMOOTH",
"90 673 OFFCURVE",
"109 662 OFFCURVE",
"109 637 CURVE SMOOTH",
"109 62 LINE SMOOTH",
"109 37 OFFCURVE",
"90 26 OFFCURVE",
"51 26 CURVE SMOOTH",
"22 26 LINE",
"22 0 LINE"
);
},
{
closed = 1;
nodes = (
"405 765 OFFCURVE",
"423 784 OFFCURVE",
"423 811 CURVE SMOOTH",
"423 839 OFFCURVE",
"405 858 OFFCURVE",
"377 858 CURVE SMOOTH",
"348 858 OFFCURVE",
"330 839 OFFCURVE",
"330 811 CURVE SMOOTH",
"330 784 OFFCURVE",
"348 765 OFFCURVE",
"377 765 CURVE SMOOTH"
);
}
);
};
components = (
{
name = N;
},
{
name = dotaccentcomb;
transform = "{1, 0, 0, 1, 484, 230}";
}
);
layerId = "0B1DFD06-3317-40CA-B510-4969A0718C16";
width = 780;
}
);
note = Ndotaccent;
unicode = 1E44;
},
{
color = 3;
glyphname = Ndotbelow;
lastChange = "2018-02-16 07:52:37 +0000";
layers = (
{
background = {
paths = (
{
closed = 1;
nodes = (
"247 0 LINE",
"247 26 LINE",
"217 26 LINE SMOOTH",
"179 26 OFFCURVE",
"159 37 OFFCURVE",
"159 62 CURVE SMOOTH",
"159 642 LINE",
"587 0 LINE",
"645 0 LINE",
"645 637 LINE SMOOTH",
"645 662 OFFCURVE",
"665 673 OFFCURVE",
"703 673 CURVE SMOOTH",
"733 673 LINE",
"733 700 LINE",
"508 700 LINE",
"508 673 LINE",
"537 673 LINE SMOOTH",
"576 673 OFFCURVE",
"595 662 OFFCURVE",
"595 637 CURVE SMOOTH",
"595 126 LINE",
"217 700 LINE",
"22 700 LINE",
"22 673 LINE",
"51 673 LINE SMOOTH",
"90 673 OFFCURVE",
"109 662 OFFCURVE",
"109 637 CURVE SMOOTH",
"109 62 LINE SMOOTH",
"109 37 OFFCURVE",
"90 26 OFFCURVE",
"51 26 CURVE SMOOTH",
"22 26 LINE",
"22 0 LINE"
);
},
{
closed = 1;
nodes = (
"415 -159 OFFCURVE",
"433 -140 OFFCURVE",
"433 -112 CURVE SMOOTH",
"433 -84 OFFCURVE",
"415 -64 OFFCURVE",
"387 -64 CURVE SMOOTH",
"359 -64 OFFCURVE",
"340 -84 OFFCURVE",
"340 -112 CURVE SMOOTH",
"340 -140 OFFCURVE",
"359 -159 OFFCURVE",
"387 -159 CURVE SMOOTH"
);
}
);
};
components = (
{
name = N;
},
{
name = dotbelowcomb;
transform = "{1, 0, 0, 1, 312, 0}";
}
);
layerId = "0B1DFD06-3317-40CA-B510-4969A0718C16";
width = 780;
}
);
note = uni1E46;
unicode = 1E46;
},
{
color = 3;
glyphname = Eng;
lastChange = "2018-02-18 18:24:23 +0000";
layers = (
{
background = {
paths = (
{
closed = 1;
nodes = (
"592 -259 OFFCURVE",
"645 -182 OFFCURVE",
"645 -36 CURVE SMOOTH",
"645 637 LINE SMOOTH",
"645 662 OFFCURVE",
"665 673 OFFCURVE",
"703 673 CURVE SMOOTH",
"733 673 LINE",
"733 700 LINE",
"508 700 LINE",
"508 673 LINE",
"537 673 LINE SMOOTH",
"576 673 OFFCURVE",
"595 662 OFFCURVE",
"595 637 CURVE SMOOTH",
"595 125 LINE",
"219 700 LINE",
"22 700 LINE",
"22 673 LINE",
"51 673 LINE SMOOTH",
"90 673 OFFCURVE",
"109 662 OFFCURVE",
"109 637 CURVE SMOOTH",
"109 62 LINE SMOOTH",
"109 37 OFFCURVE",
"93 26 OFFCURVE",
"51 26 CURVE SMOOTH",
"22 26 LINE",
"22 0 LINE",
"247 0 LINE",
"247 26 LINE",
"217 26 LINE SMOOTH",
"179 26 OFFCURVE",
"159 37 OFFCURVE",
"159 62 CURVE SMOOTH",
"159 647 LINE",
"586 0 LINE",
"586 -76 LINE SMOOTH",
"586 -173 OFFCURVE",
"510 -238 OFFCURVE",
"423 -243 CURVE",
"427 -268 LINE"
);
}
);
};
layerId = "0B1DFD06-3317-40CA-B510-4969A0718C16";
paths = (
{
closed = 1;
nodes = (
"553 39 LINE",
"537 -83 OFFCURVE",
"500 -209 OFFCURVE",
"396 -209 CURVE SMOOTH",
"324 -209 OFFCURVE",
"279 -173 OFFCURVE",
"252 -116 CURVE",
"236 -120 LINE",
"239 -155 OFFCURVE",
"241 -189 OFFCURVE",
"249 -218 CURVE",
"282 -231 OFFCURVE",
"336 -238 OFFCURVE",
"376 -238 CURVE SMOOTH",
"542 -238 OFFCURVE",
"585 -109 OFFCURVE",
"617 60 CURVE SMOOTH",
"704 519 OFFCURVE",
"723 768 OFFCURVE",
"910 768 CURVE",
"904 778 OFFCURVE",
"860 805 OFFCURVE",
"844 805 CURVE SMOOTH",
"694 805 OFFCURVE",
"631 478 OFFCURVE",
"568 63 CURVE",
"580 80 LINE",
"468 318 OFFCURVE",
"397 468 OFFCURVE",
"293 678 CURVE SMOOTH",
"287 689 OFFCURVE",
"281 694 OFFCURVE",
"275 694 CURVE",
"247 684 OFFCURVE",
"219 677 OFFCURVE",
"181 677 CURVE SMOOTH",
"149 677 OFFCURVE",
"117 678 OFFCURVE",
"93 687 CURVE",
"90 677 OFFCURVE",
"88 668 OFFCURVE",
"88 660 CURVE SMOOTH",
"88 642 OFFCURVE",
"97 636 OFFCURVE",
"114 636 CURVE SMOOTH",
"138 636 OFFCURVE",
"165 639 OFFCURVE",
"190 639 CURVE SMOOTH",
"222 639 OFFCURVE",
"228 629 OFFCURVE",
"228 604 CURVE SMOOTH",
"228 500 OFFCURVE",
"109 178 OFFCURVE",
"109 43 CURVE SMOOTH",
"109 35 OFFCURVE",
"110 27 OFFCURVE",
"111 20 CURVE",
"118 4 OFFCURVE",
"151 -9 OFFCURVE",
"164 -15 CURVE",
"169 -15 LINE",
"169 202 OFFCURVE",
"230 388 OFFCURVE",
"288 614 CURVE",
"275 607 LINE",
"363 436 OFFCURVE",
"430 284 OFFCURVE",
"563 -8 CURVE"
);
}
);
width = 780;
}
);
widthMetricsKey = N;
note = Eng;
unicode = 014A;
},
{
color = 3;
glyphname = Nlinebelow;
lastChange = "2018-02-18 18:13:16 +0000";
layers = (
{
background = {
paths = (
{
closed = 1;
nodes = (
"247 0 LINE",
"247 26 LINE",
"217 26 LINE SMOOTH",
"179 26 OFFCURVE",
"159 37 OFFCURVE",
"159 62 CURVE SMOOTH",
"159 642 LINE",
"587 0 LINE",
"645 0 LINE",
"645 637 LINE SMOOTH",
"645 662 OFFCURVE",
"665 673 OFFCURVE",
"703 673 CURVE SMOOTH",
"733 673 LINE",
"733 700 LINE",
"508 700 LINE",
"508 673 LINE",
"537 673 LINE SMOOTH",
"576 673 OFFCURVE",
"595 662 OFFCURVE",
"595 637 CURVE SMOOTH",
"595 126 LINE",
"217 700 LINE",
"22 700 LINE",
"22 673 LINE",
"51 673 LINE SMOOTH",
"90 673 OFFCURVE",
"109 662 OFFCURVE",
"109 637 CURVE SMOOTH",
"109 62 LINE SMOOTH",
"109 37 OFFCURVE",
"90 26 OFFCURVE",
"51 26 CURVE SMOOTH",
"22 26 LINE",
"22 0 LINE"
);
},
{
closed = 1;
nodes = (
"542 -110 LINE",
"542 -72 LINE",
"210 -72 LINE",
"210 -110 LINE"
);
}
);
};
components = (
{
name = N;
},
{
name = macronbelowcomb;
transform = "{1, 0, 0, 1, 406, 0}";
}
);
layerId = "0B1DFD06-3317-40CA-B510-4969A0718C16";
width = 780;
}
);
note = Nlinebelow;
unicode = 1E48;
},
{
color = 3;
glyphname = Ntilde;
lastChange = "2018-02-16 07:52:37 +0000";
layers = (
{
background = {
paths = (
{
closed = 1;
nodes = (
"247 0 LINE",
"247 26 LINE",
"217 26 LINE SMOOTH",
"179 26 OFFCURVE",
"159 37 OFFCURVE",
"159 62 CURVE SMOOTH",
"159 642 LINE",
"587 0 LINE",
"645 0 LINE",
"645 637 LINE SMOOTH",
"645 662 OFFCURVE",
"665 673 OFFCURVE",
"703 673 CURVE SMOOTH",
"733 673 LINE",
"733 700 LINE",
"508 700 LINE",
"508 673 LINE",
"537 673 LINE SMOOTH",
"576 673 OFFCURVE",
"595 662 OFFCURVE",
"595 637 CURVE SMOOTH",
"595 126 LINE",
"217 700 LINE",
"22 700 LINE",
"22 673 LINE",
"51 673 LINE SMOOTH",
"90 673 OFFCURVE",
"109 662 OFFCURVE",
"109 637 CURVE SMOOTH",
"109 62 LINE SMOOTH",
"109 37 OFFCURVE",
"90 26 OFFCURVE",
"51 26 CURVE SMOOTH",
"22 26 LINE",
"22 0 LINE"
);
},
{
closed = 1;
nodes = (
"254 818 OFFCURVE",
"272 839 OFFCURVE",
"305 839 CURVE SMOOTH",
"356 839 OFFCURVE",
"405 785 OFFCURVE",
"456 785 CURVE SMOOTH",
"514 785 OFFCURVE",
"544 833 OFFCURVE",
"556 885 CURVE",
"535 896 LINE",
"519 856 OFFCURVE",
"503 834 OFFCURVE",
"469 834 CURVE SMOOTH",
"420 834 OFFCURVE",
"368 887 OFFCURVE",
"317 887 CURVE SMOOTH",
"263 887 OFFCURVE",
"230 843 OFFCURVE",
"218 791 CURVE",
"240 780 LINE"
);
}
);
};
components = (
{
name = N;
},
{
name = tildecomb;
transform = "{1, 0, 0, 1, 483, 230}";
}
);
layerId = "0B1DFD06-3317-40CA-B510-4969A0718C16";
width = 780;
}
);
note = Ntilde;
unicode = 00D1;
},
{
color = 3;
glyphname = Oacute;
lastChange = "2018-02-18 18:40:33 +0000";
layers = (
{
background = {
paths = (
{
closed = 1;
nodes = (
"601 -10 OFFCURVE",
"719 124 OFFCURVE",
"719 350 CURVE SMOOTH",
"719 574 OFFCURVE",
"601 710 OFFCURVE",
"378 710 CURVE SMOOTH",
"154 710 OFFCURVE",
"36 574 OFFCURVE",
"36 350 CURVE SMOOTH",
"36 124 OFFCURVE",
"154 -10 OFFCURVE",
"378 -10 CURVE SMOOTH"
);
},
{
closed = 1;
nodes = (
"215 32 OFFCURVE",
"135 158 OFFCURVE",
"135 350 CURVE SMOOTH",
"135 541 OFFCURVE",
"215 668 OFFCURVE",
"377 668 CURVE SMOOTH",
"541 668 OFFCURVE",
"620 541 OFFCURVE",
"620 350 CURVE SMOOTH",
"620 158 OFFCURVE",
"541 32 OFFCURVE",
"377 32 CURVE SMOOTH"
);
},
{
closed = 1;
nodes = (
"440 865 LINE SMOOTH",
"462 877 OFFCURVE",
"474 890 OFFCURVE",
"474 907 CURVE SMOOTH",
"474 922 OFFCURVE",
"462 937 OFFCURVE",
"440 937 CURVE SMOOTH",
"419 937 OFFCURVE",
"404 921 OFFCURVE",
"396 914 CURVE SMOOTH",
"281 807 LINE",
"298 782 LINE"
);
}
);
};
components = (
{
name = O;
},
{
name = acutecomb;
transform = "{1, 0, 0, 1, 342, 280}";
}
);
layerId = "0B1DFD06-3317-40CA-B510-4969A0718C16";
width = 846;
}
);
leftKerningGroup = O;
note = Oacute;
rightKerningGroup = O;
unicode = 00D3;
},
{
color = 3;
glyphname = Obreve;
lastChange = "2018-02-16 07:20:11 +0000";
layers = (
{
background = {
paths = (
{
closed = 1;
nodes = (
"601 -10 OFFCURVE",
"719 124 OFFCURVE",
"719 350 CURVE SMOOTH",
"719 574 OFFCURVE",
"601 710 OFFCURVE",
"378 710 CURVE SMOOTH",
"154 710 OFFCURVE",
"36 574 OFFCURVE",
"36 350 CURVE SMOOTH",
"36 124 OFFCURVE",
"154 -10 OFFCURVE",
"378 -10 CURVE SMOOTH"
);
},
{
closed = 1;
nodes = (
"215 32 OFFCURVE",
"135 158 OFFCURVE",
"135 350 CURVE SMOOTH",
"135 541 OFFCURVE",
"215 668 OFFCURVE",
"377 668 CURVE SMOOTH",
"541 668 OFFCURVE",
"620 541 OFFCURVE",
"620 350 CURVE SMOOTH",
"620 158 OFFCURVE",
"541 32 OFFCURVE",
"377 32 CURVE SMOOTH"
);
},
{
closed = 1;
nodes = (
"477 774 OFFCURVE",
"519 830 OFFCURVE",
"523 905 CURVE",
"490 905 LINE",
"484 846 OFFCURVE",
"442 820 OFFCURVE",
"378 820 CURVE SMOOTH",
"314 820 OFFCURVE",
"271 846 OFFCURVE",
"264 905 CURVE",
"231 905 LINE",
"235 827 OFFCURVE",
"277 774 OFFCURVE",
"378 774 CURVE SMOOTH"
);
}
);
};
components = (
{
name = O;
},
{
name = brevecomb;
transform = "{1, 0, 0, 1, 471, 280}";
}
);
layerId = "0B1DFD06-3317-40CA-B510-4969A0718C16";
width = 846;
}
);
leftKerningGroup = O;
note = Obreve;
rightKerningGroup = O;
unicode = 014E;
},
{
color = 3;
glyphname = Ocaron;
lastChange = "2018-02-16 07:20:11 +0000";
layers = (
{
background = {
paths = (
{
closed = 1;
nodes = (
"601 -10 OFFCURVE",
"719 124 OFFCURVE",
"719 350 CURVE SMOOTH",
"719 574 OFFCURVE",
"601 710 OFFCURVE",
"378 710 CURVE SMOOTH",
"154 710 OFFCURVE",
"36 574 OFFCURVE",
"36 350 CURVE SMOOTH",
"36 124 OFFCURVE",
"154 -10 OFFCURVE",
"378 -10 CURVE SMOOTH"
);
},
{
closed = 1;
nodes = (
"215 32 OFFCURVE",
"135 158 OFFCURVE",
"135 350 CURVE SMOOTH",
"135 541 OFFCURVE",
"215 668 OFFCURVE",
"377 668 CURVE SMOOTH",
"541 668 OFFCURVE",
"620 541 OFFCURVE",
"620 350 CURVE SMOOTH",
"620 158 OFFCURVE",
"541 32 OFFCURVE",
"377 32 CURVE SMOOTH"
);
},
{
closed = 1;
nodes = (
"404 782 LINE",
"528 911 LINE",
"509 932 LINE",
"401 847 LINE",
"393 840 OFFCURVE",
"384 836 OFFCURVE",
"378 836 CURVE SMOOTH",
"372 836 OFFCURVE",
"364 840 OFFCURVE",
"354 847 CURVE",
"246 932 LINE",
"227 911 LINE",
"351 782 LINE"
);
}
);
};
components = (
{
name = O;
},
{
name = caroncomb;
transform = "{1, 0, 0, 1, 472, 280}";
}
);
layerId = "0B1DFD06-3317-40CA-B510-4969A0718C16";
width = 846;
}
);
leftKerningGroup = O;
note = Ocaron;
rightKerningGroup = O;
unicode = 01D1;
},
{
color = 3;
glyphname = Ocircumflex;
lastChange = "2018-02-16 07:20:11 +0000";
layers = (
{
background = {
paths = (
{
closed = 1;
nodes = (
"601 -10 OFFCURVE",
"719 124 OFFCURVE",
"719 350 CURVE SMOOTH",
"719 574 OFFCURVE",
"601 710 OFFCURVE",
"378 710 CURVE SMOOTH",
"154 710 OFFCURVE",
"36 574 OFFCURVE",
"36 350 CURVE SMOOTH",
"36 124 OFFCURVE",
"154 -10 OFFCURVE",
"378 -10 CURVE SMOOTH"
);
},
{
closed = 1;
nodes = (
"215 32 OFFCURVE",
"135 158 OFFCURVE",
"135 350 CURVE SMOOTH",
"135 541 OFFCURVE",
"215 668 OFFCURVE",
"377 668 CURVE SMOOTH",
"541 668 OFFCURVE",
"620 541 OFFCURVE",
"620 350 CURVE SMOOTH",
"620 158 OFFCURVE",
"541 32 OFFCURVE",
"377 32 CURVE SMOOTH"
);
},
{
closed = 1;
nodes = (
"354 868 LINE SMOOTH",
"362 874 OFFCURVE",
"372 879 OFFCURVE",
"378 879 CURVE SMOOTH",
"384 879 OFFCURVE",
"392 874 OFFCURVE",
"401 868 CURVE",
"509 782 LINE",
"528 803 LINE",
"404 932 LINE",
"351 932 LINE",
"227 803 LINE",
"246 782 LINE"
);
}
);
};
components = (
{
name = O;
},
{
name = circumflexcomb;
transform = "{1, 0, 0, 1, 467, 230}";
}
);
layerId = "0B1DFD06-3317-40CA-B510-4969A0718C16";
width = 846;
}
);
leftKerningGroup = O;
note = Ocircumflex;
rightKerningGroup = O;
unicode = 00D4;
},
{
color = 3;
glyphname = Ocircumflexacute;
lastChange = "2018-02-18 18:49:34 +0000";
layers = (
{
background = {
paths = (
{
closed = 1;
nodes = (
"601 -10 OFFCURVE",
"719 124 OFFCURVE",
"719 350 CURVE SMOOTH",
"719 574 OFFCURVE",
"601 710 OFFCURVE",
"378 710 CURVE SMOOTH",
"154 710 OFFCURVE",
"36 574 OFFCURVE",
"36 350 CURVE SMOOTH",
"36 124 OFFCURVE",
"154 -10 OFFCURVE",
"378 -10 CURVE SMOOTH"
);
},
{
closed = 1;
nodes = (
"215 32 OFFCURVE",
"135 158 OFFCURVE",
"135 350 CURVE SMOOTH",
"135 541 OFFCURVE",
"215 668 OFFCURVE",
"377 668 CURVE SMOOTH",
"541 668 OFFCURVE",
"620 541 OFFCURVE",
"620 350 CURVE SMOOTH",
"620 158 OFFCURVE",
"541 32 OFFCURVE",
"377 32 CURVE SMOOTH"
);
},
{
closed = 1;
nodes = (
"348 861 LINE SMOOTH",
"358 869 OFFCURVE",
"368 877 OFFCURVE",
"376 877 CURVE SMOOTH",
"382 877 OFFCURVE",
"390 872 OFFCURVE",
"399 866 CURVE",
"505 780 LINE",
"524 802 LINE",
"402 931 LINE",
"351 931 LINE",
"229 802 LINE",
"247 780 LINE"
);
},
{
closed = 1;
nodes = (
"613 959 LINE SMOOTH",
"636 971 OFFCURVE",
"649 987 OFFCURVE",
"649 1002 CURVE SMOOTH",
"649 1016 OFFCURVE",
"638 1033 OFFCURVE",
"615 1033 CURVE SMOOTH",
"596 1033 OFFCURVE",
"579 1017 OFFCURVE",
"569 1007 CURVE SMOOTH",
"473 914 LINE",
"491 892 LINE"
);
}
);
};
components = (
{
name = O;
},
{
name = circumflexcomb;
transform = "{1, 0, 0, 1, 467, 230}";
},
{
name = acutecomb;
transform = "{1, 0, 0, 1, 384, 516}";
}
);
layerId = "0B1DFD06-3317-40CA-B510-4969A0718C16";
width = 846;
}
);
leftKerningGroup = O;
note = Ocircumflexacute;
rightKerningGroup = O;
unicode = 1ED0;
},
{
color = 3;
glyphname = Ocircumflexdotbelow;
lastChange = "2018-02-16 07:20:11 +0000";
layers = (
{
background = {
paths = (
{
closed = 1;
nodes = (
"36 124 OFFCURVE",
"154 -10 OFFCURVE",
"378 -10 CURVE SMOOTH",
"601 -10 OFFCURVE",
"719 124 OFFCURVE",
"719 350 CURVE SMOOTH",
"719 574 OFFCURVE",
"601 710 OFFCURVE",
"378 710 CURVE SMOOTH",
"154 710 OFFCURVE",
"36 574 OFFCURVE",
"36 350 CURVE SMOOTH"
);
},
{
closed = 1;
nodes = (
"135 541 OFFCURVE",
"215 668 OFFCURVE",
"377 668 CURVE SMOOTH",
"541 668 OFFCURVE",
"620 541 OFFCURVE",
"620 350 CURVE SMOOTH",
"620 158 OFFCURVE",
"541 32 OFFCURVE",
"377 32 CURVE SMOOTH",
"215 32 OFFCURVE",
"135 158 OFFCURVE",
"135 350 CURVE SMOOTH"
);
},
{
closed = 1;
nodes = (
"245 782 LINE",
"353 868 LINE SMOOTH",
"361 874 OFFCURVE",
"371 879 OFFCURVE",
"377 879 CURVE SMOOTH",
"383 879 OFFCURVE",
"391 874 OFFCURVE",
"400 868 CURVE",
"508 782 LINE",
"527 803 LINE",
"403 932 LINE",
"350 932 LINE",
"226 803 LINE"
);
},
{
closed = 1;
nodes = (
"330 -140 OFFCURVE",
"349 -159 OFFCURVE",
"377 -159 CURVE SMOOTH",
"405 -159 OFFCURVE",
"423 -140 OFFCURVE",
"423 -112 CURVE SMOOTH",
"423 -84 OFFCURVE",
"405 -64 OFFCURVE",
"377 -64 CURVE SMOOTH",
"349 -64 OFFCURVE",
"330 -84 OFFCURVE",
"330 -112 CURVE SMOOTH"
);
}
);
};
components = (
{
name = O;
},
{
name = dotbelowcomb;
transform = "{1, 0, 0, 1, 333, 0}";
},
{
name = circumflexcomb;
transform = "{1, 0, 0, 1, 467, 230}";
}
);
layerId = "0B1DFD06-3317-40CA-B510-4969A0718C16";
width = 846;
}
);
leftKerningGroup = O;
note = Ocircumflexdotbelow;
rightKerningGroup = O;
unicode = 1ED8;
},
{
color = 3;
glyphname = Ocircumflexgrave;
lastChange = "2018-02-16 07:20:11 +0000";
layers = (
{
background = {
paths = (
{
closed = 1;
nodes = (
"601 -10 OFFCURVE",
"719 124 OFFCURVE",
"719 350 CURVE SMOOTH",
"719 574 OFFCURVE",
"601 710 OFFCURVE",
"378 710 CURVE SMOOTH",
"154 710 OFFCURVE",
"36 574 OFFCURVE",
"36 350 CURVE SMOOTH",
"36 124 OFFCURVE",
"154 -10 OFFCURVE",
"378 -10 CURVE SMOOTH"
);
},
{
closed = 1;
nodes = (
"215 32 OFFCURVE",
"135 158 OFFCURVE",
"135 350 CURVE SMOOTH",
"135 541 OFFCURVE",
"215 668 OFFCURVE",
"377 668 CURVE SMOOTH",
"541 668 OFFCURVE",
"620 541 OFFCURVE",
"620 350 CURVE SMOOTH",
"620 158 OFFCURVE",
"541 32 OFFCURVE",
"377 32 CURVE SMOOTH"
);
},
{
closed = 1;
nodes = (
"285 914 LINE",
"190 1007 LINE SMOOTH",
"180 1017 OFFCURVE",
"163 1033 OFFCURVE",
"143 1033 CURVE SMOOTH",
"121 1033 OFFCURVE",
"110 1016 OFFCURVE",
"110 1002 CURVE SMOOTH",
"110 987 OFFCURVE",
"123 971 OFFCURVE",
"146 959 CURVE SMOOTH",
"268 892 LINE"
);
},
{
closed = 1;
nodes = (
"348 861 LINE SMOOTH",
"358 869 OFFCURVE",
"368 877 OFFCURVE",
"376 877 CURVE SMOOTH",
"382 877 OFFCURVE",
"390 872 OFFCURVE",
"399 866 CURVE",
"505 780 LINE",
"524 802 LINE",
"402 931 LINE",
"351 931 LINE",
"229 802 LINE",
"247 780 LINE"
);
}
);
};
components = (
{
name = O;
},
{
name = circumflexgrave;
transform = "{1, 0, 0, 1, 467, 230}";
}
);
layerId = "0B1DFD06-3317-40CA-B510-4969A0718C16";
width = 846;
}
);
leftKerningGroup = O;
note = Ocircumflexgrave;
rightKerningGroup = O;
unicode = 1ED2;
},
{
color = 3;
glyphname = Ocircumflexhookabove;
lastChange = "2018-02-16 07:20:11 +0000";
layers = (
{
background = {
paths = (
{
closed = 1;
nodes = (
"601 -10 OFFCURVE",
"719 124 OFFCURVE",
"719 350 CURVE SMOOTH",
"719 574 OFFCURVE",
"601 710 OFFCURVE",
"378 710 CURVE SMOOTH",
"154 710 OFFCURVE",
"36 574 OFFCURVE",
"36 350 CURVE SMOOTH",
"36 124 OFFCURVE",
"154 -10 OFFCURVE",
"378 -10 CURVE SMOOTH"
);
},
{
closed = 1;
nodes = (
"215 32 OFFCURVE",
"135 158 OFFCURVE",
"135 350 CURVE SMOOTH",
"135 541 OFFCURVE",
"215 668 OFFCURVE",
"377 668 CURVE SMOOTH",
"541 668 OFFCURVE",
"620 541 OFFCURVE",
"620 350 CURVE SMOOTH",
"620 158 OFFCURVE",
"541 32 OFFCURVE",
"377 32 CURVE SMOOTH"
);
},
{
closed = 1;
nodes = (
"344 858 LINE",
"355 868 OFFCURVE",
"367 878 OFFCURVE",
"376 878 CURVE SMOOTH",
"382 878 OFFCURVE",
"390 873 OFFCURVE",
"399 867 CURVE",
"505 781 LINE",
"524 803 LINE",
"402 932 LINE",
"351 932 LINE",
"229 803 LINE",
"247 781 LINE"
);
},
{
closed = 1;
nodes = (
"551 898 LINE",
"532 905 OFFCURVE",
"522 912 OFFCURVE",
"522 926 CURVE SMOOTH",
"522 954 OFFCURVE",
"602 965 OFFCURVE",
"602 1010 CURVE SMOOTH",
"602 1047 OFFCURVE",
"560 1063 OFFCURVE",
"518 1063 CURVE SMOOTH",
"487 1063 OFFCURVE",
"442 1053 OFFCURVE",
"442 1022 CURVE SMOOTH",
"442 1010 OFFCURVE",
"453 1001 OFFCURVE",
"463 1001 CURVE SMOOTH",
"492 1001 OFFCURVE",
"479 1040 OFFCURVE",
"522 1040 CURVE SMOOTH",
"541 1040 OFFCURVE",
"552 1028 OFFCURVE",
"552 1013 CURVE SMOOTH",
"552 973 OFFCURVE",
"479 965 OFFCURVE",
"479 925 CURVE SMOOTH",
"479 901 OFFCURVE",
"495 880 OFFCURVE",
"542 880 CURVE"
);
}
);
};
components = (
{
name = O;
},
{
name = circumflexhookabove;
transform = "{1, 0, 0, 1, 467, 230}";
}
);
layerId = "0B1DFD06-3317-40CA-B510-4969A0718C16";
width = 846;
}
);
leftKerningGroup = O;
note = Ocircumflexhookabove;
rightKerningGroup = O;
unicode = 1ED4;
},
{
color = 3;
glyphname = Ocircumflextilde;
lastChange = "2018-02-16 07:20:11 +0000";
layers = (
{
background = {
paths = (
{
closed = 1;
nodes = (
"601 -10 OFFCURVE",
"719 124 OFFCURVE",
"719 350 CURVE SMOOTH",
"719 574 OFFCURVE",
"601 710 OFFCURVE",
"378 710 CURVE SMOOTH",
"154 710 OFFCURVE",
"36 574 OFFCURVE",
"36 350 CURVE SMOOTH",
"36 124 OFFCURVE",
"154 -10 OFFCURVE",
"378 -10 CURVE SMOOTH"
);
},
{
closed = 1;
nodes = (
"215 32 OFFCURVE",
"135 158 OFFCURVE",
"135 350 CURVE SMOOTH",
"135 541 OFFCURVE",
"215 668 OFFCURVE",
"377 668 CURVE SMOOTH",
"541 668 OFFCURVE",
"620 541 OFFCURVE",
"620 350 CURVE SMOOTH",
"620 158 OFFCURVE",
"541 32 OFFCURVE",
"377 32 CURVE SMOOTH"
);
},
{
closed = 1;
nodes = (
"348 862 LINE SMOOTH",
"358 870 OFFCURVE",
"368 878 OFFCURVE",
"376 878 CURVE SMOOTH",
"382 878 OFFCURVE",
"390 873 OFFCURVE",
"399 867 CURVE",
"505 781 LINE",
"524 803 LINE",
"402 932 LINE",
"351 932 LINE",
"229 803 LINE",
"247 781 LINE"
);
},
{
closed = 1;
nodes = (
"251 997 OFFCURVE",
"269 1018 OFFCURVE",
"300 1018 CURVE SMOOTH",
"349 1018 OFFCURVE",
"396 964 OFFCURVE",
"445 964 CURVE SMOOTH",
"498 964 OFFCURVE",
"527 1012 OFFCURVE",
"539 1063 CURVE",
"518 1075 LINE",
"505 1035 OFFCURVE",
"489 1012 OFFCURVE",
"456 1012 CURVE SMOOTH",
"409 1012 OFFCURVE",
"360 1065 OFFCURVE",
"311 1065 CURVE SMOOTH",
"260 1065 OFFCURVE",
"228 1021 OFFCURVE",
"218 970 CURVE",
"238 958 LINE"
);
}
);
};
components = (
{
name = O;
},
{
name = circumflextilde;
transform = "{1, 0, 0, 1, 457, 230}";
}
);
layerId = "0B1DFD06-3317-40CA-B510-4969A0718C16";
width = 846;
}
);
leftKerningGroup = O;
note = Ocircumflextilde;
rightKerningGroup = O;
unicode = 1ED6;
},
{
color = 3;
glyphname = Odieresis;
lastChange = "2018-02-16 07:20:11 +0000";
layers = (
{
background = {
paths = (
{
closed = 1;
nodes = (
"601 -10 OFFCURVE",
"719 124 OFFCURVE",
"719 350 CURVE SMOOTH",
"719 574 OFFCURVE",
"601 710 OFFCURVE",
"378 710 CURVE SMOOTH",
"154 710 OFFCURVE",
"36 574 OFFCURVE",
"36 350 CURVE SMOOTH",
"36 124 OFFCURVE",
"154 -10 OFFCURVE",
"378 -10 CURVE SMOOTH"
);
},
{
closed = 1;
nodes = (
"215 32 OFFCURVE",
"135 158 OFFCURVE",
"135 350 CURVE SMOOTH",
"135 541 OFFCURVE",
"215 668 OFFCURVE",
"377 668 CURVE SMOOTH",
"541 668 OFFCURVE",
"620 541 OFFCURVE",
"620 350 CURVE SMOOTH",
"620 158 OFFCURVE",
"541 32 OFFCURVE",
"377 32 CURVE SMOOTH"
);
},
{
closed = 1;
nodes = (
"298 781 OFFCURVE",
"316 800 OFFCURVE",
"316 827 CURVE SMOOTH",
"316 855 OFFCURVE",
"298 875 OFFCURVE",
"269 875 CURVE SMOOTH",
"241 875 OFFCURVE",
"223 855 OFFCURVE",
"223 827 CURVE SMOOTH",
"223 800 OFFCURVE",
"241 781 OFFCURVE",
"269 781 CURVE SMOOTH"
);
},
{
closed = 1;
nodes = (
"514 781 OFFCURVE",
"532 800 OFFCURVE",
"532 827 CURVE SMOOTH",
"532 855 OFFCURVE",
"514 875 OFFCURVE",
"485 875 CURVE SMOOTH",
"456 875 OFFCURVE",
"438 855 OFFCURVE",
"438 827 CURVE SMOOTH",
"438 800 OFFCURVE",
"456 781 OFFCURVE",
"485 781 CURVE SMOOTH"
);
}
);
};
components = (
{
name = O;
},
{
name = dieresiscomb;
transform = "{1, 0, 0, 1, 468, 280}";
}
);
layerId = "0B1DFD06-3317-40CA-B510-4969A0718C16";
width = 846;
}
);
leftKerningGroup = O;
note = Odieresis;
rightKerningGroup = O;
unicode = 00D6;
},
{
color = 3;
glyphname = Odotbelow;
lastChange = "2018-02-16 07:20:11 +0000";
layers = (
{
background = {
paths = (
{
closed = 1;
nodes = (
"36 124 OFFCURVE",
"154 -10 OFFCURVE",
"378 -10 CURVE SMOOTH",
"601 -10 OFFCURVE",
"719 124 OFFCURVE",
"719 350 CURVE SMOOTH",
"719 574 OFFCURVE",
"601 710 OFFCURVE",
"378 710 CURVE SMOOTH",
"154 710 OFFCURVE",
"36 574 OFFCURVE",
"36 350 CURVE SMOOTH"
);
},
{
closed = 1;
nodes = (
"135 541 OFFCURVE",
"215 668 OFFCURVE",
"377 668 CURVE SMOOTH",
"541 668 OFFCURVE",
"620 541 OFFCURVE",
"620 350 CURVE SMOOTH",
"620 158 OFFCURVE",
"541 32 OFFCURVE",
"377 32 CURVE SMOOTH",
"215 32 OFFCURVE",
"135 158 OFFCURVE",
"135 350 CURVE SMOOTH"
);
},
{
closed = 1;
nodes = (
"330 -140 OFFCURVE",
"349 -159 OFFCURVE",
"377 -159 CURVE SMOOTH",
"405 -159 OFFCURVE",
"423 -140 OFFCURVE",
"423 -112 CURVE SMOOTH",
"423 -84 OFFCURVE",
"405 -64 OFFCURVE",
"377 -64 CURVE SMOOTH",
"349 -64 OFFCURVE",
"330 -84 OFFCURVE",
"330 -112 CURVE SMOOTH"
);
}
);
};
components = (
{
name = O;
},
{
name = dotbelowcomb;
transform = "{1, 0, 0, 1, 333, 0}";
}
);
layerId = "0B1DFD06-3317-40CA-B510-4969A0718C16";
width = 846;
}
);
leftKerningGroup = O;
note = Odotbelow;
rightKerningGroup = O;
unicode = 1ECC;
},
{
color = 3;
glyphname = Ograve;
lastChange = "2018-02-16 07:20:11 +0000";
layers = (
{
background = {
paths = (
{
closed = 1;
nodes = (
"601 -10 OFFCURVE",
"719 124 OFFCURVE",
"719 350 CURVE SMOOTH",
"719 574 OFFCURVE",
"601 710 OFFCURVE",
"378 710 CURVE SMOOTH",
"154 710 OFFCURVE",
"36 574 OFFCURVE",
"36 350 CURVE SMOOTH",
"36 124 OFFCURVE",
"154 -10 OFFCURVE",
"378 -10 CURVE SMOOTH"
);
},
{
closed = 1;
nodes = (
"215 32 OFFCURVE",
"135 158 OFFCURVE",
"135 350 CURVE SMOOTH",
"135 541 OFFCURVE",
"215 668 OFFCURVE",
"377 668 CURVE SMOOTH",
"541 668 OFFCURVE",
"620 541 OFFCURVE",
"620 350 CURVE SMOOTH",
"620 158 OFFCURVE",
"541 32 OFFCURVE",
"377 32 CURVE SMOOTH"
);
},
{
closed = 1;
nodes = (
"459 807 LINE",
"344 913 LINE",
"335 922 OFFCURVE",
"319 937 OFFCURVE",
"299 937 CURVE SMOOTH",
"279 937 OFFCURVE",
"267 924 OFFCURVE",
"267 908 CURVE SMOOTH",
"267 890 OFFCURVE",
"279 876 OFFCURVE",
"298 865 CURVE SMOOTH",
"441 782 LINE"
);
}
);
};
components = (
{
name = O;
},
{
name = gravecomb;
transform = "{1, 0, 0, 1, 286, 280}";
}
);
layerId = "0B1DFD06-3317-40CA-B510-4969A0718C16";
width = 846;
}
);
leftKerningGroup = O;
note = Ograve;
rightKerningGroup = O;
unicode = 00D2;
},
{
color = 3;
glyphname = Ohookabove;
lastChange = "2018-02-18 18:25:09 +0000";
layers = (
{
background = {
paths = (
{
closed = 1;
nodes = (
"601 -10 OFFCURVE",
"719 124 OFFCURVE",
"719 350 CURVE SMOOTH",
"719 574 OFFCURVE",
"601 710 OFFCURVE",
"378 710 CURVE SMOOTH",
"154 710 OFFCURVE",
"36 574 OFFCURVE",
"36 350 CURVE SMOOTH",
"36 124 OFFCURVE",
"154 -10 OFFCURVE",
"378 -10 CURVE SMOOTH"
);
},
{
closed = 1;
nodes = (
"215 32 OFFCURVE",
"135 158 OFFCURVE",
"135 350 CURVE SMOOTH",
"135 541 OFFCURVE",
"215 668 OFFCURVE",
"377 668 CURVE SMOOTH",
"541 668 OFFCURVE",
"620 541 OFFCURVE",
"620 350 CURVE SMOOTH",
"620 158 OFFCURVE",
"541 32 OFFCURVE",
"377 32 CURVE SMOOTH"
);
},
{
closed = 1;
nodes = (
"407 798 LINE",
"388 805 OFFCURVE",
"376 811 OFFCURVE",
"376 828 CURVE SMOOTH",
"376 861 OFFCURVE",
"465 876 OFFCURVE",
"465 927 CURVE SMOOTH",
"465 969 OFFCURVE",
"429 991 OFFCURVE",
"376 991 CURVE SMOOTH",
"329 991 OFFCURVE",
"288 974 OFFCURVE",
"288 940 CURVE SMOOTH",
"288 923 OFFCURVE",
"296 915 OFFCURVE",
"311 915 CURVE SMOOTH",
"334 915 OFFCURVE",
"336 934 OFFCURVE",
"339 942 CURVE SMOOTH",
"344 956 OFFCURVE",
"361 962 OFFCURVE",
"377 962 CURVE SMOOTH",
"398 962 OFFCURVE",
"411 947 OFFCURVE",
"411 930 CURVE SMOOTH",
"411 885 OFFCURVE",
"329 874 OFFCURVE",
"329 828 CURVE SMOOTH",
"329 801 OFFCURVE",
"347 778 OFFCURVE",
"398 778 CURVE"
);
}
);
};
components = (
{
name = O;
},
{
name = hookabovecomb;
transform = "{1, 0, 0, 1, 389, 280}";
}
);
layerId = "0B1DFD06-3317-40CA-B510-4969A0718C16";
width = 846;
}
);
leftKerningGroup = O;
note = Ohookabove;
rightKerningGroup = O;
unicode = 1ECE;
},
{
color = 3;
glyphname = Ohornacute;
lastChange = "2018-02-18 18:49:34 +0000";
layers = (
{
background = {
paths = (
{
closed = 1;
nodes = (
"602 -10 OFFCURVE",
"720 124 OFFCURVE",
"720 350 CURVE SMOOTH",
"720 574 OFFCURVE",
"602 710 OFFCURVE",
"379 710 CURVE SMOOTH",
"155 710 OFFCURVE",
"37 574 OFFCURVE",
"37 350 CURVE SMOOTH",
"37 124 OFFCURVE",
"155 -10 OFFCURVE",
"379 -10 CURVE SMOOTH"
);
},
{
closed = 1;
nodes = (
"216 32 OFFCURVE",
"136 158 OFFCURVE",
"136 350 CURVE SMOOTH",
"136 541 OFFCURVE",
"216 668 OFFCURVE",
"378 668 CURVE SMOOTH",
"542 668 OFFCURVE",
"621 541 OFFCURVE",
"621 350 CURVE SMOOTH",
"621 158 OFFCURVE",
"542 32 OFFCURVE",
"378 32 CURVE SMOOTH"
);
},
{
closed = 1;
nodes = (
"424 864 LINE SMOOTH",
"446 876 OFFCURVE",
"458 889 OFFCURVE",
"458 906 CURVE SMOOTH",
"458 921 OFFCURVE",
"446 936 OFFCURVE",
"424 936 CURVE SMOOTH",
"403 936 OFFCURVE",
"388 920 OFFCURVE",
"380 913 CURVE SMOOTH",
"265 806 LINE",
"282 781 LINE"
);
},
{
closed = 1;
nodes = (
"691 567 OFFCURVE",
"756 632 OFFCURVE",
"756 705 CURVE SMOOTH",
"756 752 OFFCURVE",
"729 772 OFFCURVE",
"701 772 CURVE SMOOTH",
"672 772 OFFCURVE",
"656 752 OFFCURVE",
"656 729 CURVE SMOOTH",
"656 695 OFFCURVE",
"689 688 OFFCURVE",
"689 653 CURVE SMOOTH",
"689 617 OFFCURVE",
"658 588 OFFCURVE",
"623 568 CURVE",
"623 543 LINE"
);
}
);
};
components = (
{
name = Ohorn;
},
{
name = acutecomb;
transform = "{1, 0, 0, 1, 342, 280}";
}
);
layerId = "0B1DFD06-3317-40CA-B510-4969A0718C16";
width = 846;
}
);
leftKerningGroup = O;
note = Ohornacute;
rightKerningGroup = O;
unicode = 1EDA;
},
{
color = 3;
glyphname = Ohorndotbelow;
lastChange = "2018-02-18 18:24:40 +0000";
layers = (
{
background = {
paths = (
{
closed = 1;
nodes = (
"602 -10 OFFCURVE",
"720 124 OFFCURVE",
"720 350 CURVE SMOOTH",
"720 574 OFFCURVE",
"602 710 OFFCURVE",
"379 710 CURVE SMOOTH",
"155 710 OFFCURVE",
"37 574 OFFCURVE",
"37 350 CURVE SMOOTH",
"37 124 OFFCURVE",
"155 -10 OFFCURVE",
"379 -10 CURVE SMOOTH"
);
},
{
closed = 1;
nodes = (
"216 32 OFFCURVE",
"136 158 OFFCURVE",
"136 350 CURVE SMOOTH",
"136 541 OFFCURVE",
"216 668 OFFCURVE",
"378 668 CURVE SMOOTH",
"542 668 OFFCURVE",
"621 541 OFFCURVE",
"621 350 CURVE SMOOTH",
"621 158 OFFCURVE",
"542 32 OFFCURVE",
"378 32 CURVE SMOOTH"
);
},
{
closed = 1;
nodes = (
"691 567 OFFCURVE",
"756 632 OFFCURVE",
"756 705 CURVE SMOOTH",
"756 752 OFFCURVE",
"729 772 OFFCURVE",
"701 772 CURVE SMOOTH",
"672 772 OFFCURVE",
"656 752 OFFCURVE",
"656 729 CURVE SMOOTH",
"656 695 OFFCURVE",
"689 688 OFFCURVE",
"689 653 CURVE SMOOTH",
"689 617 OFFCURVE",
"658 588 OFFCURVE",
"623 568 CURVE",
"623 543 LINE"
);
},
{
closed = 1;
nodes = (
"395 -159 OFFCURVE",
"413 -140 OFFCURVE",
"413 -112 CURVE SMOOTH",
"413 -84 OFFCURVE",
"395 -64 OFFCURVE",
"367 -64 CURVE SMOOTH",
"339 -64 OFFCURVE",
"320 -84 OFFCURVE",
"320 -112 CURVE SMOOTH",
"320 -140 OFFCURVE",
"339 -159 OFFCURVE",
"367 -159 CURVE SMOOTH"
);
}
);
};
components = (
{
name = Ohorn;
},
{
name = dotbelowcomb;
transform = "{1, 0, 0, 1, 333, 0}";
}
);
layerId = "0B1DFD06-3317-40CA-B510-4969A0718C16";
width = 846;
}
);
leftKerningGroup = O;
note = Ohorndotbelow;
rightKerningGroup = O;
unicode = 1EE2;
},
{
color = 3;
glyphname = Ohorngrave;
lastChange = "2018-02-18 18:24:39 +0000";
layers = (
{
background = {
paths = (
{
closed = 1;
nodes = (
"602 -10 OFFCURVE",
"720 124 OFFCURVE",
"720 350 CURVE SMOOTH",
"720 574 OFFCURVE",
"602 710 OFFCURVE",
"379 710 CURVE SMOOTH",
"155 710 OFFCURVE",
"37 574 OFFCURVE",
"37 350 CURVE SMOOTH",
"37 124 OFFCURVE",
"155 -10 OFFCURVE",
"379 -10 CURVE SMOOTH"
);
},
{
closed = 1;
nodes = (
"216 32 OFFCURVE",
"136 158 OFFCURVE",
"136 350 CURVE SMOOTH",
"136 541 OFFCURVE",
"216 668 OFFCURVE",
"378 668 CURVE SMOOTH",
"542 668 OFFCURVE",
"621 541 OFFCURVE",
"621 350 CURVE SMOOTH",
"621 158 OFFCURVE",
"542 32 OFFCURVE",
"378 32 CURVE SMOOTH"
);
},
{
closed = 1;
nodes = (
"464 816 LINE",
"349 922 LINE",
"340 931 OFFCURVE",
"324 946 OFFCURVE",
"304 946 CURVE SMOOTH",
"284 946 OFFCURVE",
"272 933 OFFCURVE",
"272 917 CURVE SMOOTH",
"272 899 OFFCURVE",
"284 885 OFFCURVE",
"303 874 CURVE SMOOTH",
"446 791 LINE"
);
},
{
closed = 1;
nodes = (
"691 567 OFFCURVE",
"756 632 OFFCURVE",
"756 705 CURVE SMOOTH",
"756 752 OFFCURVE",
"729 772 OFFCURVE",
"701 772 CURVE SMOOTH",
"672 772 OFFCURVE",
"656 752 OFFCURVE",
"656 729 CURVE SMOOTH",
"656 695 OFFCURVE",
"689 688 OFFCURVE",
"689 653 CURVE SMOOTH",
"689 617 OFFCURVE",
"658 588 OFFCURVE",
"623 568 CURVE",
"623 543 LINE"
);
}
);
};
components = (
{
name = Ohorn;
},
{
name = gravecomb;
transform = "{1, 0, 0, 1, 286, 280}";
}
);
layerId = "0B1DFD06-3317-40CA-B510-4969A0718C16";
width = 846;
}
);
leftKerningGroup = O;
note = Ohorngrave;
rightKerningGroup = O;
unicode = 1EDC;
},
{
color = 3;
glyphname = Ohornhookabove;
lastChange = "2018-02-18 18:24:37 +0000";
layers = (
{
background = {
paths = (
{
closed = 1;
nodes = (
"602 -10 OFFCURVE",
"720 124 OFFCURVE",
"720 350 CURVE SMOOTH",
"720 574 OFFCURVE",
"602 710 OFFCURVE",
"379 710 CURVE SMOOTH",
"155 710 OFFCURVE",
"37 574 OFFCURVE",
"37 350 CURVE SMOOTH",
"37 124 OFFCURVE",
"155 -10 OFFCURVE",
"379 -10 CURVE SMOOTH"
);
},
{
closed = 1;
nodes = (
"216 32 OFFCURVE",
"136 158 OFFCURVE",
"136 350 CURVE SMOOTH",
"136 541 OFFCURVE",
"216 668 OFFCURVE",
"378 668 CURVE SMOOTH",
"542 668 OFFCURVE",
"621 541 OFFCURVE",
"621 350 CURVE SMOOTH",
"621 158 OFFCURVE",
"542 32 OFFCURVE",
"378 32 CURVE SMOOTH"
);
},
{
closed = 1;
nodes = (
"412 809 LINE",
"393 816 OFFCURVE",
"381 822 OFFCURVE",
"381 839 CURVE SMOOTH",
"381 872 OFFCURVE",
"470 887 OFFCURVE",
"470 938 CURVE SMOOTH",
"470 980 OFFCURVE",
"434 1002 OFFCURVE",
"381 1002 CURVE SMOOTH",
"334 1002 OFFCURVE",
"293 985 OFFCURVE",
"293 951 CURVE SMOOTH",
"293 934 OFFCURVE",
"301 926 OFFCURVE",
"316 926 CURVE SMOOTH",
"339 926 OFFCURVE",
"341 945 OFFCURVE",
"344 953 CURVE SMOOTH",
"349 967 OFFCURVE",
"366 973 OFFCURVE",
"382 973 CURVE SMOOTH",
"403 973 OFFCURVE",
"416 958 OFFCURVE",
"416 941 CURVE SMOOTH",
"416 896 OFFCURVE",
"334 885 OFFCURVE",
"334 839 CURVE SMOOTH",
"334 812 OFFCURVE",
"352 789 OFFCURVE",
"403 789 CURVE"
);
},
{
closed = 1;
nodes = (
"691 567 OFFCURVE",
"756 632 OFFCURVE",
"756 705 CURVE SMOOTH",
"756 752 OFFCURVE",
"729 772 OFFCURVE",
"701 772 CURVE SMOOTH",
"672 772 OFFCURVE",
"656 752 OFFCURVE",
"656 729 CURVE SMOOTH",
"656 695 OFFCURVE",
"689 688 OFFCURVE",
"689 653 CURVE SMOOTH",
"689 617 OFFCURVE",
"658 588 OFFCURVE",
"623 568 CURVE",
"623 543 LINE"
);
}
);
};
components = (
{
name = Ohorn;
},
{
name = hookabovecomb;
transform = "{1, 0, 0, 1, 389, 280}";
}
);
layerId = "0B1DFD06-3317-40CA-B510-4969A0718C16";
width = 846;
}
);
leftKerningGroup = O;
note = Ohornhookabove;
rightKerningGroup = O;
unicode = 1EDE;
},
{
color = 3;
glyphname = Ohorntilde;
lastChange = "2018-02-18 18:24:36 +0000";
layers = (
{
background = {
paths = (
{
closed = 1;
nodes = (
"602 -10 OFFCURVE",
"720 124 OFFCURVE",
"720 350 CURVE SMOOTH",
"720 574 OFFCURVE",
"602 710 OFFCURVE",
"379 710 CURVE SMOOTH",
"155 710 OFFCURVE",
"37 574 OFFCURVE",
"37 350 CURVE SMOOTH",
"37 124 OFFCURVE",
"155 -10 OFFCURVE",
"379 -10 CURVE SMOOTH"
);
},
{
closed = 1;
nodes = (
"216 32 OFFCURVE",
"136 158 OFFCURVE",
"136 350 CURVE SMOOTH",
"136 541 OFFCURVE",
"216 668 OFFCURVE",
"378 668 CURVE SMOOTH",
"542 668 OFFCURVE",
"621 541 OFFCURVE",
"621 350 CURVE SMOOTH",
"621 158 OFFCURVE",
"542 32 OFFCURVE",
"378 32 CURVE SMOOTH"
);
},
{
closed = 1;
nodes = (
"234 828 OFFCURVE",
"252 849 OFFCURVE",
"285 849 CURVE SMOOTH",
"336 849 OFFCURVE",
"385 795 OFFCURVE",
"436 795 CURVE SMOOTH",
"494 795 OFFCURVE",
"524 843 OFFCURVE",
"536 895 CURVE",
"515 906 LINE",
"499 866 OFFCURVE",
"483 844 OFFCURVE",
"449 844 CURVE SMOOTH",
"400 844 OFFCURVE",
"348 897 OFFCURVE",
"297 897 CURVE SMOOTH",
"243 897 OFFCURVE",
"210 853 OFFCURVE",
"198 801 CURVE",
"220 790 LINE"
);
},
{
closed = 1;
nodes = (
"691 567 OFFCURVE",
"756 632 OFFCURVE",
"756 705 CURVE SMOOTH",
"756 752 OFFCURVE",
"729 772 OFFCURVE",
"701 772 CURVE SMOOTH",
"672 772 OFFCURVE",
"656 752 OFFCURVE",
"656 729 CURVE SMOOTH",
"656 695 OFFCURVE",
"689 688 OFFCURVE",
"689 653 CURVE SMOOTH",
"689 617 OFFCURVE",
"658 588 OFFCURVE",
"623 568 CURVE",
"623 543 LINE"
);
}
);
};
components = (
{
name = Ohorn;
},
{
name = tildecomb;
transform = "{1, 0, 0, 1, 470, 280}";
}
);
layerId = "0B1DFD06-3317-40CA-B510-4969A0718C16";
width = 846;
}
);
leftKerningGroup = O;
note = Ohorntilde;
rightKerningGroup = O;
unicode = 1EE0;
},
{
color = 3;
glyphname = Ohungarumlaut;
lastChange = "2018-02-18 18:24:34 +0000";
layers = (
{
background = {
paths = (
{
closed = 1;
nodes = (
"601 -10 OFFCURVE",
"719 124 OFFCURVE",
"719 350 CURVE SMOOTH",
"719 574 OFFCURVE",
"601 710 OFFCURVE",
"378 710 CURVE SMOOTH",
"154 710 OFFCURVE",
"36 574 OFFCURVE",
"36 350 CURVE SMOOTH",
"36 124 OFFCURVE",
"154 -10 OFFCURVE",
"378 -10 CURVE SMOOTH"
);
},
{
closed = 1;
nodes = (
"215 32 OFFCURVE",
"135 158 OFFCURVE",
"135 350 CURVE SMOOTH",
"135 541 OFFCURVE",
"215 668 OFFCURVE",
"377 668 CURVE SMOOTH",
"541 668 OFFCURVE",
"620 541 OFFCURVE",
"620 350 CURVE SMOOTH",
"620 158 OFFCURVE",
"541 32 OFFCURVE",
"377 32 CURVE SMOOTH"
);
},
{
closed = 1;
nodes = (
"395 864 LINE SMOOTH",
"417 877 OFFCURVE",
"429 891 OFFCURVE",
"429 908 CURVE SMOOTH",
"429 922 OFFCURVE",
"421 937 OFFCURVE",
"399 937 CURVE SMOOTH",
"378 937 OFFCURVE",
"357 919 OFFCURVE",
"350 913 CURVE",
"236 807 LINE",
"253 782 LINE"
);
},
{
closed = 1;
nodes = (
"556 864 LINE SMOOTH",
"577 877 OFFCURVE",
"589 891 OFFCURVE",
"589 908 CURVE SMOOTH",
"589 922 OFFCURVE",
"578 937 OFFCURVE",
"556 937 CURVE SMOOTH",
"534 937 OFFCURVE",
"517 919 OFFCURVE",
"510 913 CURVE",
"396 807 LINE",
"414 782 LINE"
);
}
);
};
components = (
{
name = O;
},
{
name = hungarumlautcomb;
transform = "{1, 0, 0, 1, 470, 280}";
}
);
layerId = "0B1DFD06-3317-40CA-B510-4969A0718C16";
width = 846;
}
);
leftKerningGroup = O;
note = Ohungarumlaut;
rightKerningGroup = O;
unicode = 0150;
},
{
color = 3;
glyphname = Omacron;
lastChange = "2018-02-18 18:24:31 +0000";
layers = (
{
background = {
paths = (
{
closed = 1;
nodes = (
"601 -10 OFFCURVE",
"719 124 OFFCURVE",
"719 350 CURVE SMOOTH",
"719 574 OFFCURVE",
"601 710 OFFCURVE",
"378 710 CURVE SMOOTH",
"154 710 OFFCURVE",
"36 574 OFFCURVE",
"36 350 CURVE SMOOTH",
"36 124 OFFCURVE",
"154 -10 OFFCURVE",
"378 -10 CURVE SMOOTH"
);
},
{
closed = 1;
nodes = (
"215 32 OFFCURVE",
"135 158 OFFCURVE",
"135 350 CURVE SMOOTH",
"135 541 OFFCURVE",
"215 668 OFFCURVE",
"377 668 CURVE SMOOTH",
"541 668 OFFCURVE",
"620 541 OFFCURVE",
"620 350 CURVE SMOOTH",
"620 158 OFFCURVE",
"541 32 OFFCURVE",
"377 32 CURVE SMOOTH"
);
},
{
closed = 1;
nodes = (
"543 793 LINE",
"543 835 LINE",
"210 835 LINE",
"210 793 LINE"
);
}
);
};
components = (
{
name = O;
},
{
name = macroncomb;
transform = "{1, 0, 0, 1, 289, 280}";
}
);
layerId = "0B1DFD06-3317-40CA-B510-4969A0718C16";
width = 846;
}
);
leftKerningGroup = O;
note = Omacron;
rightKerningGroup = O;
unicode = 014C;
},
{
color = 3;
glyphname = OE;
lastChange = "2018-02-18 18:26:04 +0000";
layers = (
{
anchors = (
{
name = bottom;
position = "{872, 0}";
},
{
name = ogonek;
position = "{1185, 43}";
},
{
name = top;
position = "{1048, 700}";
},
{
name = topleft;
position = "{649, 700}";
}
);
components = (
{
name = O;
}
);
layerId = "0B1DFD06-3317-40CA-B510-4969A0718C16";
paths = (
{
closed = 1;
nodes = (
"981 -13 OFFCURVE",
"1054 -4 OFFCURVE",
"1153 21 CURVE SMOOTH",
"1173 26 OFFCURVE",
"1187 36 OFFCURVE",
"1191 50 CURVE SMOOTH",
"1194 61 OFFCURVE",
"1198 102 OFFCURVE",
"1209 114 CURVE",
"1207 121 OFFCURVE",
"1204 123 OFFCURVE",
"1201 119 CURVE",
"1120 43 OFFCURVE",
"962 32 OFFCURVE",
"873 32 CURVE SMOOTH",
"802 32 OFFCURVE",
"747 45 OFFCURVE",
"747 80 CURVE SMOOTH",
"747 146 OFFCURVE",
"823 514 OFFCURVE",
"863 645 CURVE SMOOTH",
"867 658 OFFCURVE",
"871 662 OFFCURVE",
"894 662 CURVE SMOOTH",
"971 662 OFFCURVE",
"1073 663 OFFCURVE",
"1156 652 CURVE SMOOTH",
"1179 649 OFFCURVE",
"1184 635 OFFCURVE",
"1188 620 CURVE",
"1198 619 LINE",
"1200 641 OFFCURVE",
"1222 680 OFFCURVE",
"1226 685 CURVE",
"1222 692 OFFCURVE",
"1214 700 OFFCURVE",
"1206 700 CURVE SMOOTH",
"1106 700 OFFCURVE",
"884 702 OFFCURVE",
"840 702 CURVE SMOOTH",
"812 702 OFFCURVE",
"817 689 OFFCURVE",
"809 655 CURVE SMOOTH",
"794 592 OFFCURVE",
"689 154 OFFCURVE",
"689 63 CURVE SMOOTH",
"689 23 OFFCURVE",
"726 -13 OFFCURVE",
"903 -13 CURVE SMOOTH"
);
},
{
closed = 1;
nodes = (
"830 349 OFFCURVE",
"1087 349 OFFCURVE",
"1151 349 CURVE SMOOTH",
"1160 349 OFFCURVE",
"1164 351 OFFCURVE",
"1164 355 CURVE SMOOTH",
"1164 381 OFFCURVE",
"1173 399 OFFCURVE",
"1176 408 CURVE",
"1170 413 LINE",
"1095 390 OFFCURVE",
"906 396 OFFCURVE",
"794 396 CURVE",
"782 349 LINE"
);
}
);
width = 1214;
}
);
leftMetricsKey = O;
note = OE;
rightMetricsKey = E;
unicode = 0152;
},
{
color = 3;
glyphname = Thorn;
lastChange = "2018-02-18 18:29:36 +0000";
layers = (
{
layerId = "0B1DFD06-3317-40CA-B510-4969A0718C16";
paths = (
{
closed = 1;
nodes = (
"228 117 OFFCURVE",
"266 358 OFFCURVE",
"298 461 CURVE SMOOTH",
"310 500 OFFCURVE",
"389 508 OFFCURVE",
"423 508 CURVE SMOOTH",
"531 508 OFFCURVE",
"596 471 OFFCURVE",
"596 358 CURVE SMOOTH",
"596 243 OFFCURVE",
"510 201 OFFCURVE",
"415 201 CURVE SMOOTH",
"383 201 OFFCURVE",
"333 218 OFFCURVE",
"318 228 CURVE",
"315 230 OFFCURVE",
"309 225 OFFCURVE",
"309 221 CURVE SMOOTH",
"309 218 OFFCURVE",
"321 196 OFFCURVE",
"324 179 CURVE",
"345 173 OFFCURVE",
"381 164 OFFCURVE",
"428 164 CURVE SMOOTH",
"618 164 OFFCURVE",
"656 292 OFFCURVE",
"656 361 CURVE SMOOTH",
"656 502 OFFCURVE",
"553 546 OFFCURVE",
"443 546 CURVE SMOOTH",
"377 546 OFFCURVE",
"330 534 OFFCURVE",
"293 521 CURVE",
"305 508 LINE",
"315 580 OFFCURVE",
"340 672 OFFCURVE",
"343 693 CURVE",
"341 698 OFFCURVE",
"337 700 OFFCURVE",
"328 700 CURVE",
"298 700 OFFCURVE",
"263 697 OFFCURVE",
"230 697 CURVE SMOOTH",
"195 697 OFFCURVE",
"155 700 OFFCURVE",
"132 700 CURVE",
"132 689 OFFCURVE",
"135 675 OFFCURVE",
"139 664 CURVE",
"157 664 OFFCURVE",
"188 666 OFFCURVE",
"214 666 CURVE SMOOTH",
"259 666 OFFCURVE",
"273 660 OFFCURVE",
"273 630 CURVE SMOOTH",
"273 623 OFFCURVE",
"272 614 OFFCURVE",
"271 604 CURVE SMOOTH",
"254 474 OFFCURVE",
"166 91 OFFCURVE",
"164 74 CURVE SMOOTH",
"162 60 OFFCURVE",
"159 41 OFFCURVE",
"159 27 CURVE SMOOTH",
"159 2 OFFCURVE",
"165 -12 OFFCURVE",
"193 -12 CURVE SMOOTH",
"203 -12 OFFCURVE",
"213 -11 OFFCURVE",
"225 -8 CURVE",
"220 5 OFFCURVE",
"218 16 OFFCURVE",
"218 38 CURVE SMOOTH",
"218 49 OFFCURVE",
"219 62 OFFCURVE",
"221 78 CURVE SMOOTH"
);
}
);
width = 745;
}
);
note = Thorn;
unicode = 00DE;
},
{
color = 3;
glyphname = Germandbls;
lastChange = "2018-02-18 18:24:23 +0000";
layers = (
{
layerId = "0B1DFD06-3317-40CA-B510-4969A0718C16";
paths = (
{
closed = 1;
nodes = (
"599 -9 OFFCURVE",
"675 105 OFFCURVE",
"675 205 CURVE SMOOTH",
"675 331 OFFCURVE",
"585 382 OFFCURVE",
"490 382 CURVE",
"500 367 LINE",
"555 419 OFFCURVE",
"596 447 OFFCURVE",
"671 510 CURVE",
"673 516 OFFCURVE",
"673 523 OFFCURVE",
"673 530 CURVE SMOOTH",
"673 625 OFFCURVE",
"578 707 OFFCURVE",
"465 707 CURVE SMOOTH",
"313 707 OFFCURVE",
"227 614 OFFCURVE",
"197 464 CURVE SMOOTH",
"172 338 OFFCURVE",
"141 208 OFFCURVE",
"113 82 CURVE SMOOTH",
"106 49 OFFCURVE",
"99 25 OFFCURVE",
"88 1 CURVE",
"94 -4 OFFCURVE",
"104 -7 OFFCURVE",
"117 -7 CURVE SMOOTH",
"135 -7 OFFCURVE",
"150 -4 OFFCURVE",
"165 4 CURVE",
"197 209 OFFCURVE",
"226 338 OFFCURVE",
"249 459 CURVE SMOOTH",
"277 604 OFFCURVE",
"332 660 OFFCURVE",
"455 660 CURVE SMOOTH",
"542 660 OFFCURVE",
"605 597 OFFCURVE",
"615 526 CURVE",
"554 470 OFFCURVE",
"501 434 OFFCURVE",
"423 365 CURVE SMOOTH",
"414 357 OFFCURVE",
"409 349 OFFCURVE",
"409 339 CURVE SMOOTH",
"409 327 OFFCURVE",
"418 317 OFFCURVE",
"432 310 CURVE",
"457 331 OFFCURVE",
"475 342 OFFCURVE",
"502 342 CURVE SMOOTH",
"580 342 OFFCURVE",
"616 283 OFFCURVE",
"616 206 CURVE SMOOTH",
"616 116 OFFCURVE",
"554 36 OFFCURVE",
"454 36 CURVE SMOOTH",
"370 36 OFFCURVE",
"309 74 OFFCURVE",
"309 151 CURVE SMOOTH",
"309 169 OFFCURVE",
"312 189 OFFCURVE",
"322 205 CURVE",
"284 205 OFFCURVE",
"269 171 OFFCURVE",
"269 133 CURVE SMOOTH",
"269 51 OFFCURVE",
"328 -9 OFFCURVE",
"442 -9 CURVE SMOOTH"
);
}
);
width = 743;
}
);
note = uni1E9E;
unicode = 1E9E;
},
{
color = 3;
glyphname = Schwa;
lastChange = "2018-02-18 18:24:23 +0000";
layers = (
{
layerId = "0B1DFD06-3317-40CA-B510-4969A0718C16";
paths = (
{
closed = 1;
nodes = (
"405 32 OFFCURVE",
"247 32 CURVE SMOOTH",
"150 32 OFFCURVE",
"120 85 OFFCURVE",
"120 164 CURVE SMOOTH",
"120 274 OFFCURVE",
"227 369 OFFCURVE",
"401 369 CURVE SMOOTH",
"477 369 OFFCURVE",
"546 351 OFFCURVE",
"577 341 CURVE",
"581 381 LINE",
"547 394 OFFCURVE",
"490 414 OFFCURVE",
"405 414 CURVE SMOOTH",
"156 414 OFFCURVE",
"57 273 OFFCURVE",
"57 149 CURVE SMOOTH",
"57 65 OFFCURVE",
"130 -10 OFFCURVE",
"238 -10 CURVE SMOOTH",
"454 -10 OFFCURVE",
"616 206 OFFCURVE",
"616 460 CURVE SMOOTH",
"616 595 OFFCURVE",
"526 682 OFFCURVE",
"392 682 CURVE SMOOTH",
"250 682 OFFCURVE",
"130 609 OFFCURVE",
"130 564 CURVE SMOOTH",
"130 545 OFFCURVE",
"138 529 OFFCURVE",
"153 527 CURVE",
"199 590 OFFCURVE",
"280 640 OFFCURVE",
"377 640 CURVE SMOOTH",
"507 640 OFFCURVE",
"557 552 OFFCURVE",
"557 439 CURVE SMOOTH",
"557 215 OFFCURVE"
);
}
);
width = 692;
}
);
note = uni018F;
unicode = 018F;
},
{
color = 3;
glyphname = Uacute;
lastChange = "2018-02-18 18:49:22 +0000";
layers = (
{
background = {
paths = (
{
closed = 1;
nodes = (
"539 -10 OFFCURVE",
"636 51 OFFCURVE",
"636 204 CURVE SMOOTH",
"636 637 LINE SMOOTH",
"636 662 OFFCURVE",
"660 673 OFFCURVE",
"690 673 CURVE SMOOTH",
"713 673 LINE",
"713 700 LINE",
"510 700 LINE",
"510 673 LINE",
"532 673 LINE SMOOTH",
"564 673 OFFCURVE",
"586 662 OFFCURVE",
"586 637 CURVE SMOOTH",
"586 197 LINE SMOOTH",
"586 65 OFFCURVE",
"489 31 OFFCURVE",
"397 31 CURVE SMOOTH",
"290 31 OFFCURVE",
"203 63 OFFCURVE",
"203 197 CURVE SMOOTH",
"203 637 LINE SMOOTH",
"203 662 OFFCURVE",
"226 673 OFFCURVE",
"257 673 CURVE SMOOTH",
"280 673 LINE",
"280 700 LINE",
"28 700 LINE",
"28 673 LINE",
"51 673 LINE SMOOTH",
"82 673 OFFCURVE",
"105 662 OFFCURVE",
"105 637 CURVE SMOOTH",
"105 204 LINE SMOOTH",
"105 46 OFFCURVE",
"208 -10 OFFCURVE",
"375 -10 CURVE SMOOTH"
);
},
{
closed = 1;
nodes = (
"447 865 LINE SMOOTH",
"469 877 OFFCURVE",
"481 890 OFFCURVE",
"481 907 CURVE SMOOTH",
"481 922 OFFCURVE",
"469 937 OFFCURVE",
"447 937 CURVE SMOOTH",
"426 937 OFFCURVE",
"411 921 OFFCURVE",
"403 914 CURVE SMOOTH",
"288 807 LINE",
"305 782 LINE"
);
}
);
};
components = (
{
name = U;
},
{
name = acutecomb;
transform = "{1, 0, 0, 1, 374, 240}";
}
);
layerId = "0B1DFD06-3317-40CA-B510-4969A0718C16";
width = 846;
}
);
leftKerningGroup = U;
note = Uacute;
rightKerningGroup = U;
unicode = 00DA;
},
{
color = 3;
glyphname = Ubreve;
lastChange = "2018-02-15 15:48:45 +0000";
layers = (
{
background = {
paths = (
{
closed = 1;
nodes = (
"539 -10 OFFCURVE",
"636 51 OFFCURVE",
"636 204 CURVE SMOOTH",
"636 637 LINE SMOOTH",
"636 662 OFFCURVE",
"660 673 OFFCURVE",
"690 673 CURVE SMOOTH",
"713 673 LINE",
"713 700 LINE",
"510 700 LINE",
"510 673 LINE",
"532 673 LINE SMOOTH",
"564 673 OFFCURVE",
"586 662 OFFCURVE",
"586 637 CURVE SMOOTH",
"586 197 LINE SMOOTH",
"586 65 OFFCURVE",
"489 31 OFFCURVE",
"397 31 CURVE SMOOTH",
"290 31 OFFCURVE",
"203 63 OFFCURVE",
"203 197 CURVE SMOOTH",
"203 637 LINE SMOOTH",
"203 662 OFFCURVE",
"226 673 OFFCURVE",
"257 673 CURVE SMOOTH",
"280 673 LINE",
"280 700 LINE",
"28 700 LINE",
"28 673 LINE",
"51 673 LINE SMOOTH",
"82 673 OFFCURVE",
"105 662 OFFCURVE",
"105 637 CURVE SMOOTH",
"105 204 LINE SMOOTH",
"105 46 OFFCURVE",
"208 -10 OFFCURVE",
"375 -10 CURVE SMOOTH"
);
},
{
closed = 1;
nodes = (
"483 774 OFFCURVE",
"525 830 OFFCURVE",
"529 905 CURVE",
"496 905 LINE",
"490 846 OFFCURVE",
"448 820 OFFCURVE",
"384 820 CURVE SMOOTH",
"320 820 OFFCURVE",
"277 846 OFFCURVE",
"270 905 CURVE",
"237 905 LINE",
"241 827 OFFCURVE",
"283 774 OFFCURVE",
"384 774 CURVE SMOOTH"
);
}
);
};
components = (
{
name = U;
},
{
name = brevecomb;
transform = "{1, 0, 0, 1, 503, 240}";
}
);
layerId = "0B1DFD06-3317-40CA-B510-4969A0718C16";
width = 846;
}
);
leftKerningGroup = U;
note = Ubreve;
rightKerningGroup = U;
unicode = 016C;
},
{
color = 3;
glyphname = Ucaron;
lastChange = "2018-02-15 15:48:45 +0000";
layers = (
{
background = {
paths = (
{
closed = 1;
nodes = (
"539 -10 OFFCURVE",
"636 51 OFFCURVE",
"636 204 CURVE SMOOTH",
"636 637 LINE SMOOTH",
"636 662 OFFCURVE",
"660 673 OFFCURVE",
"690 673 CURVE SMOOTH",
"713 673 LINE",
"713 700 LINE",
"510 700 LINE",
"510 673 LINE",
"532 673 LINE SMOOTH",
"564 673 OFFCURVE",
"586 662 OFFCURVE",
"586 637 CURVE SMOOTH",
"586 197 LINE SMOOTH",
"586 65 OFFCURVE",
"489 31 OFFCURVE",
"397 31 CURVE SMOOTH",
"290 31 OFFCURVE",
"203 63 OFFCURVE",
"203 197 CURVE SMOOTH",
"203 637 LINE SMOOTH",
"203 662 OFFCURVE",
"226 673 OFFCURVE",
"257 673 CURVE SMOOTH",
"280 673 LINE",
"280 700 LINE",
"28 700 LINE",
"28 673 LINE",
"51 673 LINE SMOOTH",
"82 673 OFFCURVE",
"105 662 OFFCURVE",
"105 637 CURVE SMOOTH",
"105 204 LINE SMOOTH",
"105 46 OFFCURVE",
"208 -10 OFFCURVE",
"375 -10 CURVE SMOOTH"
);
},
{
closed = 1;
nodes = (
"397 782 LINE",
"521 911 LINE",
"502 932 LINE",
"394 847 LINE",
"386 840 OFFCURVE",
"377 836 OFFCURVE",
"371 836 CURVE SMOOTH",
"365 836 OFFCURVE",
"357 840 OFFCURVE",
"347 847 CURVE",
"239 932 LINE",
"220 911 LINE",
"344 782 LINE"
);
}
);
};
components = (
{
name = U;
},
{
name = caroncomb;
transform = "{1, 0, 0, 1, 504, 240}";
}
);
layerId = "0B1DFD06-3317-40CA-B510-4969A0718C16";
width = 846;
}
);
leftKerningGroup = U;
note = Ucaron;
rightKerningGroup = U;
unicode = 01D3;
},
{
color = 3;
glyphname = Ucircumflex;
lastChange = "2018-02-15 15:48:45 +0000";
layers = (
{
background = {
paths = (
{
closed = 1;
nodes = (
"539 -10 OFFCURVE",
"636 51 OFFCURVE",
"636 204 CURVE SMOOTH",
"636 637 LINE SMOOTH",
"636 662 OFFCURVE",
"660 673 OFFCURVE",
"690 673 CURVE SMOOTH",
"713 673 LINE",
"713 700 LINE",
"510 700 LINE",
"510 673 LINE",
"532 673 LINE SMOOTH",
"564 673 OFFCURVE",
"586 662 OFFCURVE",
"586 637 CURVE SMOOTH",
"586 197 LINE SMOOTH",
"586 65 OFFCURVE",
"489 31 OFFCURVE",
"397 31 CURVE SMOOTH",
"290 31 OFFCURVE",
"203 63 OFFCURVE",
"203 197 CURVE SMOOTH",
"203 637 LINE SMOOTH",
"203 662 OFFCURVE",
"226 673 OFFCURVE",
"257 673 CURVE SMOOTH",
"280 673 LINE",
"280 700 LINE",
"28 700 LINE",
"28 673 LINE",
"51 673 LINE SMOOTH",
"82 673 OFFCURVE",
"105 662 OFFCURVE",
"105 637 CURVE SMOOTH",
"105 204 LINE SMOOTH",
"105 46 OFFCURVE",
"208 -10 OFFCURVE",
"375 -10 CURVE SMOOTH"
);
},
{
closed = 1;
nodes = (
"360 868 LINE SMOOTH",
"368 874 OFFCURVE",
"378 879 OFFCURVE",
"384 879 CURVE SMOOTH",
"390 879 OFFCURVE",
"398 874 OFFCURVE",
"407 868 CURVE",
"515 782 LINE",
"534 803 LINE",
"410 932 LINE",
"357 932 LINE",
"233 803 LINE",
"252 782 LINE"
);
}
);
};
components = (
{
name = U;
},
{
name = circumflexcomb;
transform = "{1, 0, 0, 1, 499, 190}";
}
);
layerId = "0B1DFD06-3317-40CA-B510-4969A0718C16";
width = 846;
}
);
leftKerningGroup = U;
note = Ucircumflex;
rightKerningGroup = U;
unicode = 00DB;
},
{
color = 3;
glyphname = Udieresis;
lastChange = "2018-02-15 15:48:45 +0000";
layers = (
{
background = {
paths = (
{
closed = 1;
nodes = (
"539 -10 OFFCURVE",
"636 51 OFFCURVE",
"636 204 CURVE SMOOTH",
"636 637 LINE SMOOTH",
"636 662 OFFCURVE",
"660 673 OFFCURVE",
"690 673 CURVE SMOOTH",
"713 673 LINE",
"713 700 LINE",
"510 700 LINE",
"510 673 LINE",
"532 673 LINE SMOOTH",
"564 673 OFFCURVE",
"586 662 OFFCURVE",
"586 637 CURVE SMOOTH",
"586 197 LINE SMOOTH",
"586 65 OFFCURVE",
"489 31 OFFCURVE",
"397 31 CURVE SMOOTH",
"290 31 OFFCURVE",
"203 63 OFFCURVE",
"203 197 CURVE SMOOTH",
"203 637 LINE SMOOTH",
"203 662 OFFCURVE",
"226 673 OFFCURVE",
"257 673 CURVE SMOOTH",
"280 673 LINE",
"280 700 LINE",
"28 700 LINE",
"28 673 LINE",
"51 673 LINE SMOOTH",
"82 673 OFFCURVE",
"105 662 OFFCURVE",
"105 637 CURVE SMOOTH",
"105 204 LINE SMOOTH",
"105 46 OFFCURVE",
"208 -10 OFFCURVE",
"375 -10 CURVE SMOOTH"
);
},
{
closed = 1;
nodes = (
"304 781 OFFCURVE",
"322 800 OFFCURVE",
"322 827 CURVE SMOOTH",
"322 855 OFFCURVE",
"304 875 OFFCURVE",
"275 875 CURVE SMOOTH",
"247 875 OFFCURVE",
"229 855 OFFCURVE",
"229 827 CURVE SMOOTH",
"229 800 OFFCURVE",
"247 781 OFFCURVE",
"275 781 CURVE SMOOTH"
);
},
{
closed = 1;
nodes = (
"520 781 OFFCURVE",
"538 800 OFFCURVE",
"538 827 CURVE SMOOTH",
"538 855 OFFCURVE",
"520 875 OFFCURVE",
"491 875 CURVE SMOOTH",
"462 875 OFFCURVE",
"444 855 OFFCURVE",
"444 827 CURVE SMOOTH",
"444 800 OFFCURVE",
"462 781 OFFCURVE",
"491 781 CURVE SMOOTH"
);
}
);
};
components = (
{
name = U;
},
{
name = dieresiscomb;
transform = "{1, 0, 0, 1, 500, 240}";
}
);
layerId = "0B1DFD06-3317-40CA-B510-4969A0718C16";
width = 846;
}
);
leftKerningGroup = U;
note = Udieresis;
rightKerningGroup = U;
unicode = 00DC;
},
{
color = 3;
glyphname = Udieresisacute;
lastChange = "2018-02-18 18:49:22 +0000";
layers = (
{
background = {
paths = (
{
closed = 1;
nodes = (
"539 -10 OFFCURVE",
"636 51 OFFCURVE",
"636 204 CURVE SMOOTH",
"636 637 LINE SMOOTH",
"636 662 OFFCURVE",
"660 673 OFFCURVE",
"690 673 CURVE SMOOTH",
"713 673 LINE",
"713 700 LINE",
"510 700 LINE",
"510 673 LINE",
"532 673 LINE SMOOTH",
"564 673 OFFCURVE",
"586 662 OFFCURVE",
"586 637 CURVE SMOOTH",
"586 197 LINE SMOOTH",
"586 65 OFFCURVE",
"489 31 OFFCURVE",
"397 31 CURVE SMOOTH",
"290 31 OFFCURVE",
"203 63 OFFCURVE",
"203 197 CURVE SMOOTH",
"203 637 LINE SMOOTH",
"203 662 OFFCURVE",
"226 673 OFFCURVE",
"257 673 CURVE SMOOTH",
"280 673 LINE",
"280 700 LINE",
"28 700 LINE",
"28 673 LINE",
"51 673 LINE SMOOTH",
"82 673 OFFCURVE",
"105 662 OFFCURVE",
"105 637 CURVE SMOOTH",
"105 204 LINE SMOOTH",
"105 46 OFFCURVE",
"208 -10 OFFCURVE",
"375 -10 CURVE SMOOTH"
);
},
{
closed = 1;
nodes = (
"291 780 OFFCURVE",
"310 799 OFFCURVE",
"310 827 CURVE SMOOTH",
"310 855 OFFCURVE",
"291 875 OFFCURVE",
"262 875 CURVE SMOOTH",
"235 875 OFFCURVE",
"216 855 OFFCURVE",
"216 827 CURVE SMOOTH",
"216 799 OFFCURVE",
"235 780 OFFCURVE",
"262 780 CURVE SMOOTH"
);
},
{
closed = 1;
nodes = (
"507 780 OFFCURVE",
"526 799 OFFCURVE",
"526 827 CURVE SMOOTH",
"526 855 OFFCURVE",
"507 875 OFFCURVE",
"479 875 CURVE SMOOTH",
"451 875 OFFCURVE",
"432 855 OFFCURVE",
"432 827 CURVE SMOOTH",
"432 799 OFFCURVE",
"451 780 OFFCURVE",
"479 780 CURVE SMOOTH"
);
},
{
closed = 1;
nodes = (
"481 969 LINE SMOOTH",
"502 981 OFFCURVE",
"512 993 OFFCURVE",
"512 1009 CURVE SMOOTH",
"512 1024 OFFCURVE",
"503 1037 OFFCURVE",
"481 1037 CURVE SMOOTH",
"460 1037 OFFCURVE",
"442 1020 OFFCURVE",
"435 1013 CURVE SMOOTH",
"344 924 LINE",
"362 899 LINE"
);
}
);
};
components = (
{
name = U;
},
{
name = dieresiscomb;
transform = "{1, 0, 0, 1, 500, 240}";
},
{
name = acutecomb;
transform = "{1, 0, 0, 1, 403, 420}";
}
);
layerId = "0B1DFD06-3317-40CA-B510-4969A0718C16";
width = 846;
}
);
leftKerningGroup = U;
note = Udieresisacute;
rightKerningGroup = U;
unicode = 01D7;
},
{
color = 3;
glyphname = Udieresiscaron;
lastChange = "2018-02-16 07:15:08 +0000";
layers = (
{
background = {
paths = (
{
closed = 1;
nodes = (
"539 -10 OFFCURVE",
"636 51 OFFCURVE",
"636 204 CURVE SMOOTH",
"636 637 LINE SMOOTH",
"636 662 OFFCURVE",
"660 673 OFFCURVE",
"690 673 CURVE SMOOTH",
"713 673 LINE",
"713 700 LINE",
"510 700 LINE",
"510 673 LINE",
"532 673 LINE SMOOTH",
"564 673 OFFCURVE",
"586 662 OFFCURVE",
"586 637 CURVE SMOOTH",
"586 197 LINE SMOOTH",
"586 65 OFFCURVE",
"489 31 OFFCURVE",
"397 31 CURVE SMOOTH",
"290 31 OFFCURVE",
"203 63 OFFCURVE",
"203 197 CURVE SMOOTH",
"203 637 LINE SMOOTH",
"203 662 OFFCURVE",
"226 673 OFFCURVE",
"257 673 CURVE SMOOTH",
"280 673 LINE",
"280 700 LINE",
"28 700 LINE",
"28 673 LINE",
"51 673 LINE SMOOTH",
"82 673 OFFCURVE",
"105 662 OFFCURVE",
"105 637 CURVE SMOOTH",
"105 204 LINE SMOOTH",
"105 46 OFFCURVE",
"208 -10 OFFCURVE",
"375 -10 CURVE SMOOTH"
);
},
{
closed = 1;
nodes = (
"296 780 OFFCURVE",
"315 799 OFFCURVE",
"315 827 CURVE SMOOTH",
"315 855 OFFCURVE",
"296 875 OFFCURVE",
"267 875 CURVE SMOOTH",
"240 875 OFFCURVE",
"221 855 OFFCURVE",
"221 827 CURVE SMOOTH",
"221 799 OFFCURVE",
"240 780 OFFCURVE",
"267 780 CURVE SMOOTH"
);
},
{
closed = 1;
nodes = (
"512 780 OFFCURVE",
"531 799 OFFCURVE",
"531 827 CURVE SMOOTH",
"531 855 OFFCURVE",
"512 875 OFFCURVE",
"484 875 CURVE SMOOTH",
"456 875 OFFCURVE",
"437 855 OFFCURVE",
"437 827 CURVE SMOOTH",
"437 799 OFFCURVE",
"456 780 OFFCURVE",
"484 780 CURVE SMOOTH"
);
},
{
closed = 1;
nodes = (
"401 911 LINE",
"523 1035 LINE",
"505 1056 LINE",
"404 978 LINE",
"394 971 OFFCURVE",
"385 963 OFFCURVE",
"376 963 CURVE SMOOTH",
"369 963 OFFCURVE",
"357 971 OFFCURVE",
"347 978 CURVE",
"246 1056 LINE",
"228 1035 LINE",
"350 911 LINE"
);
}
);
};
components = (
{
name = U;
},
{
name = dieresiscomb;
transform = "{1, 0, 0, 1, 500, 240}";
},
{
name = caroncomb;
transform = "{1, 0, 0, 1, 533, 420}";
}
);
layerId = "0B1DFD06-3317-40CA-B510-4969A0718C16";
width = 846;
}
);
leftKerningGroup = U;
note = Udieresiscaron;
rightKerningGroup = U;
unicode = 01D9;
},
{
color = 3;
glyphname = Udieresisgrave;
lastChange = "2018-02-16 07:15:08 +0000";
layers = (
{
background = {
paths = (
{
closed = 1;
nodes = (
"539 -10 OFFCURVE",
"636 51 OFFCURVE",
"636 204 CURVE SMOOTH",
"636 637 LINE SMOOTH",
"636 662 OFFCURVE",
"660 673 OFFCURVE",
"690 673 CURVE SMOOTH",
"713 673 LINE",
"713 700 LINE",
"510 700 LINE",
"510 673 LINE",
"532 673 LINE SMOOTH",
"564 673 OFFCURVE",
"586 662 OFFCURVE",
"586 637 CURVE SMOOTH",
"586 197 LINE SMOOTH",
"586 65 OFFCURVE",
"489 31 OFFCURVE",
"397 31 CURVE SMOOTH",
"290 31 OFFCURVE",
"203 63 OFFCURVE",
"203 197 CURVE SMOOTH",
"203 637 LINE SMOOTH",
"203 662 OFFCURVE",
"226 673 OFFCURVE",
"257 673 CURVE SMOOTH",
"280 673 LINE",
"280 700 LINE",
"28 700 LINE",
"28 673 LINE",
"51 673 LINE SMOOTH",
"82 673 OFFCURVE",
"105 662 OFFCURVE",
"105 637 CURVE SMOOTH",
"105 204 LINE SMOOTH",
"105 46 OFFCURVE",
"208 -10 OFFCURVE",
"375 -10 CURVE SMOOTH"
);
},
{
closed = 1;
nodes = (
"296 780 OFFCURVE",
"315 799 OFFCURVE",
"315 827 CURVE SMOOTH",
"315 855 OFFCURVE",
"296 875 OFFCURVE",
"267 875 CURVE SMOOTH",
"240 875 OFFCURVE",
"221 855 OFFCURVE",
"221 827 CURVE SMOOTH",
"221 799 OFFCURVE",
"240 780 OFFCURVE",
"267 780 CURVE SMOOTH"
);
},
{
closed = 1;
nodes = (
"403 924 LINE",
"312 1013 LINE SMOOTH",
"305 1020 OFFCURVE",
"288 1036 OFFCURVE",
"267 1036 CURVE SMOOTH",
"245 1036 OFFCURVE",
"235 1024 OFFCURVE",
"235 1009 CURVE SMOOTH",
"235 993 OFFCURVE",
"245 981 OFFCURVE",
"266 969 CURVE SMOOTH",
"385 899 LINE"
);
},
{
closed = 1;
nodes = (
"512 780 OFFCURVE",
"531 799 OFFCURVE",
"531 827 CURVE SMOOTH",
"531 855 OFFCURVE",
"512 875 OFFCURVE",
"484 875 CURVE SMOOTH",
"456 875 OFFCURVE",
"437 855 OFFCURVE",
"437 827 CURVE SMOOTH",
"437 799 OFFCURVE",
"456 780 OFFCURVE",
"484 780 CURVE SMOOTH"
);
}
);
};
components = (
{
name = U;
},
{
name = dieresiscomb;
transform = "{1, 0, 0, 1, 500, 240}";
},
{
name = gravecomb;
transform = "{1, 0, 0, 1, 347, 420}";
}
);
layerId = "0B1DFD06-3317-40CA-B510-4969A0718C16";
width = 846;
}
);
leftKerningGroup = U;
note = Udieresisgrave;
rightKerningGroup = U;
unicode = 01DB;
},
{
color = 3;
glyphname = Udieresismacron;
lastChange = "2018-02-16 07:15:08 +0000";
layers = (
{
background = {
paths = (
{
closed = 1;
nodes = (
"539 -10 OFFCURVE",
"636 51 OFFCURVE",
"636 204 CURVE SMOOTH",
"636 637 LINE SMOOTH",
"636 662 OFFCURVE",
"660 673 OFFCURVE",
"690 673 CURVE SMOOTH",
"713 673 LINE",
"713 700 LINE",
"510 700 LINE",
"510 673 LINE",
"532 673 LINE SMOOTH",
"564 673 OFFCURVE",
"586 662 OFFCURVE",
"586 637 CURVE SMOOTH",
"586 197 LINE SMOOTH",
"586 65 OFFCURVE",
"489 31 OFFCURVE",
"397 31 CURVE SMOOTH",
"290 31 OFFCURVE",
"203 63 OFFCURVE",
"203 197 CURVE SMOOTH",
"203 637 LINE SMOOTH",
"203 662 OFFCURVE",
"226 673 OFFCURVE",
"257 673 CURVE SMOOTH",
"280 673 LINE",
"280 700 LINE",
"28 700 LINE",
"28 673 LINE",
"51 673 LINE SMOOTH",
"82 673 OFFCURVE",
"105 662 OFFCURVE",
"105 637 CURVE SMOOTH",
"105 204 LINE SMOOTH",
"105 46 OFFCURVE",
"208 -10 OFFCURVE",
"375 -10 CURVE SMOOTH"
);
},
{
closed = 1;
nodes = (
"291 781 OFFCURVE",
"309 800 OFFCURVE",
"309 827 CURVE SMOOTH",
"309 855 OFFCURVE",
"291 875 OFFCURVE",
"262 875 CURVE SMOOTH",
"234 875 OFFCURVE",
"216 855 OFFCURVE",
"216 827 CURVE SMOOTH",
"216 800 OFFCURVE",
"234 781 OFFCURVE",
"262 781 CURVE SMOOTH"
);
},
{
closed = 1;
nodes = (
"507 781 OFFCURVE",
"525 800 OFFCURVE",
"525 827 CURVE SMOOTH",
"525 855 OFFCURVE",
"507 875 OFFCURVE",
"478 875 CURVE SMOOTH",
"449 875 OFFCURVE",
"431 855 OFFCURVE",
"431 827 CURVE SMOOTH",
"431 800 OFFCURVE",
"449 781 OFFCURVE",
"478 781 CURVE SMOOTH"
);
},
{
closed = 1;
nodes = (
"537 928 LINE",
"537 970 LINE",
"204 970 LINE",
"204 928 LINE"
);
}
);
};
components = (
{
name = U;
},
{
name = dieresiscomb;
transform = "{1, 0, 0, 1, 500, 240}";
},
{
name = macroncomb;
transform = "{1, 0, 0, 1, 350, 420}";
}
);
layerId = "0B1DFD06-3317-40CA-B510-4969A0718C16";
width = 846;
}
);
leftKerningGroup = U;
note = Udieresismacron;
rightKerningGroup = U;
unicode = 01D5;
},
{
color = 9;
glyphname = A.001;
lastChange = "2018-02-18 18:23:57 +0000";
layers = (
{
layerId = "0B1DFD06-3317-40CA-B510-4969A0718C16";
paths = (
{
closed = 1;
nodes = (
"323 -15 OFFCURVE",
"401 85 OFFCURVE",
"521 257 CURVE SMOOTH",
"528 266 OFFCURVE",
"658 459 OFFCURVE",
"727 555 CURVE SMOOTH",
"732 562 OFFCURVE",
"737 562 OFFCURVE",
"737 557 CURVE SMOOTH",
"737 530 OFFCURVE",
"722 362 OFFCURVE",
"719 286 CURVE",
"708 286 OFFCURVE",
"650 283 OFFCURVE",
"592 283 CURVE SMOOTH",
"568 283 OFFCURVE",
"546 284 OFFCURVE",
"528 285 CURVE SMOOTH",
"498 287 OFFCURVE",
"443 291 OFFCURVE",
"419 301 CURVE",
"413 296 OFFCURVE",
"402 280 OFFCURVE",
"402 265 CURVE SMOOTH",
"402 251 OFFCURVE",
"427 245 OFFCURVE",
"487 245 CURVE SMOOTH",
"562 245 OFFCURVE",
"661 246 OFFCURVE",
"685 246 CURVE SMOOTH",
"710 246 OFFCURVE",
"721 240 OFFCURVE",
"721 212 CURVE SMOOTH",
"721 137 OFFCURVE",
"733 101 OFFCURVE",
"748 57 CURVE SMOOTH",
"761 20 OFFCURVE",
"789 -6 OFFCURVE",
"819 -6 CURVE SMOOTH",
"859 -6 OFFCURVE",
"918 38 OFFCURVE",
"940 67 CURVE SMOOTH",
"950 79 OFFCURVE",
"952 100 OFFCURVE",
"946 114 CURVE",
"914 79 OFFCURVE",
"876 52 OFFCURVE",
"848 52 CURVE SMOOTH",
"826 52 OFFCURVE",
"798 75 OFFCURVE",
"789 117 CURVE SMOOTH",
"776 170 OFFCURVE",
"770 254 OFFCURVE",
"770 352 CURVE SMOOTH",
"770 430 OFFCURVE",
"774 517 OFFCURVE",
"782 607 CURVE SMOOTH",
"785 655 OFFCURVE",
"787 689 OFFCURVE",
"819 689 CURVE SMOOTH",
"836 689 OFFCURVE",
"854 679 OFFCURVE",
"864 670 CURVE",
"872 688 OFFCURVE",
"889 699 OFFCURVE",
"889 707 CURVE SMOOTH",
"889 727 OFFCURVE",
"857 745 OFFCURVE",
"823 745 CURVE SMOOTH",
"794 745 OFFCURVE",
"774 712 OFFCURVE",
"753 683 CURVE SMOOTH",
"738 660 OFFCURVE",
"711 655 OFFCURVE",
"687 655 CURVE SMOOTH",
"587 655 OFFCURVE",
"482 731 OFFCURVE",
"368 731 CURVE SMOOTH",
"243 731 OFFCURVE",
"179 665 OFFCURVE",
"179 569 CURVE SMOOTH",
"179 537 OFFCURVE",
"186 508 OFFCURVE",
"194 491 CURVE SMOOTH",
"200 478 OFFCURVE",
"214 472 OFFCURVE",
"227 475 CURVE",
"222 491 OFFCURVE",
"218 517 OFFCURVE",
"218 539 CURVE SMOOTH",
"218 647 OFFCURVE",
"271 679 OFFCURVE",
"356 679 CURVE SMOOTH",
"440 679 OFFCURVE",
"549 611 OFFCURVE",
"645 611 CURVE SMOOTH",
"696 611 OFFCURVE",
"741 630 OFFCURVE",
"755 638 CURVE",
"754 651 LINE",
"679 544 OFFCURVE",
"582 404 OFFCURVE",
"471 259 CURVE SMOOTH",
"350 100 OFFCURVE",
"271 36 OFFCURVE",
"138 36 CURVE SMOOTH",
"51 36 OFFCURVE",
"-2 94 OFFCURVE",
"-2 189 CURVE SMOOTH",
"-2 251 OFFCURVE",
"18 302 OFFCURVE",
"52 347 CURVE",
"47 356 OFFCURVE",
"26 356 OFFCURVE",
"11 344 CURVE SMOOTH",
"-29 312 OFFCURVE",
"-63 254 OFFCURVE",
"-63 191 CURVE SMOOTH",
"-63 87 OFFCURVE",
"7 -15 OFFCURVE",
"143 -15 CURVE SMOOTH"
);
}
);
width = 964;
}
);
note = A;
},
{
color = 3;
glyphname = "alpha-latin";
lastChange = "2018-02-18 18:24:23 +0000";
layers = (
{
layerId = "0B1DFD06-3317-40CA-B510-4969A0718C16";
paths = (
{
closed = 1;
nodes = (
"329 157 LINE",
"324 132 OFFCURVE",
"321 120 OFFCURVE",
"321 87 CURVE SMOOTH",
"321 29 OFFCURVE",
"348 -12 OFFCURVE",
"384 -12 CURVE SMOOTH",
"408 -12 OFFCURVE",
"419 7 OFFCURVE",
"419 19 CURVE",
"381 26 OFFCURVE",
"364 56 OFFCURVE",
"364 109 CURVE SMOOTH",
"364 166 OFFCURVE",
"384 245 OFFCURVE",
"419 377 CURVE SMOOTH",
"424 395 OFFCURVE",
"432 414 OFFCURVE",
"448 427 CURVE",
"445 429 LINE",
"396 424 LINE SMOOTH",
"382 423 OFFCURVE",
"380 416 OFFCURVE",
"367 382 CURVE SMOOTH",
"356 354 OFFCURVE",
"320 179 OFFCURVE",
"309 137 CURVE SMOOTH",
"292 75 OFFCURVE",
"225 39 OFFCURVE",
"189 39 CURVE SMOOTH",
"167 39 OFFCURVE",
"136 70 OFFCURVE",
"133 104 CURVE",
"145 163 OFFCURVE",
"158 211 OFFCURVE",
"173 282 CURVE SMOOTH",
"179 311 OFFCURVE",
"218 380 OFFCURVE",
"295 380 CURVE SMOOTH",
"328 380 OFFCURVE",
"362 355 OFFCURVE",
"377 328 CURVE",
"390 364 LINE",
"376 385 OFFCURVE",
"338 418 OFFCURVE",
"292 418 CURVE SMOOTH",
"205 418 OFFCURVE",
"134 342 OFFCURVE",
"127 303 CURVE SMOOTH",
"112 220 OFFCURVE",
"94 171 OFFCURVE",
"78 101 CURVE",
"81 53 OFFCURVE",
"132 -8 OFFCURVE",
"191 -8 CURVE SMOOTH",
"244 -8 OFFCURVE",
"342 61 OFFCURVE",
"350 158 CURVE"
);
}
);
width = 520;
}
);
leftKerningGroup = a;
note = ascript;
rightKerningGroup = a;
unicode = 0251;
},
{
color = 3;
glyphname = ae;
lastChange = "2018-02-15 18:51:23 +0000";
layers = (
{
anchors = (
{
name = bottom;
position = "{235, 0}";
},
{
name = top;
position = "{377, 420}";
}
);
layerId = "0B1DFD06-3317-40CA-B510-4969A0718C16";
paths = (
{
closed = 1;
nodes = (
"-661 -13 OFFCURVE",
"-541 112 OFFCURVE",
"-484 213 CURVE",
"-485 219 OFFCURVE",
"-508 234 OFFCURVE",
"-512 230 CURVE",
"-554 150 OFFCURVE",
"-663 37 OFFCURVE",
"-771 37 CURVE SMOOTH",
"-826 37 OFFCURVE",
"-846 56 OFFCURVE",
"-849 114 CURVE SMOOTH",
"-851 154 OFFCURVE",
"-841 180 OFFCURVE",
"-836 198 CURVE",
"-703 198 OFFCURVE",
"-604 263 OFFCURVE",
"-609 331 CURVE SMOOTH",
"-612 375 OFFCURVE",
"-635 393 OFFCURVE",
"-672 393 CURVE SMOOTH",
"-718 393 OFFCURVE",
"-762 367 OFFCURVE",
"-804 325 CURVE",
"-785 371 OFFCURVE",
"-763 428 OFFCURVE",
"-754 441 CURVE",
"-757 443 LINE",
"-804 428 LINE SMOOTH",
"-813.6 424.8 OFFCURVE",
"-817.44 417.759 OFFCURVE",
"-825.249 396.125 CURVE",
"-1015.723 395.911 OFFCURVE",
"-1146.895 253.056 OFFCURVE",
"-1141 88 CURVE",
"-1141 49 OFFCURVE",
"-1097 -6 OFFCURVE",
"-1066 -6 CURVE SMOOTH",
"-1005 -6 OFFCURVE",
"-950 37 OFFCURVE",
"-907 113 CURVE",
"-907 102 LINE",
"-904 31 OFFCURVE",
"-854 -13 OFFCURVE",
"-798 -13 CURVE SMOOTH"
);
},
{
closed = 1;
nodes = (
"-1063 39 OFFCURVE",
"-1074 67 OFFCURVE",
"-1075 100 CURVE SMOOTH",
"-1077.917 204.035 OFFCURVE",
"-990.081 360.063 OFFCURVE",
"-837.228 362.197 CURVE",
"-861.123 294.3 OFFCURVE",
"-869.759 266.44 OFFCURVE",
"-895 201 CURVE SMOOTH",
"-935 98 OFFCURVE",
"-1014 39 OFFCURVE",
"-1049 39 CURVE SMOOTH"
);
},
{
closed = 1;
nodes = (
"-787 239 OFFCURVE",
"-799 240 OFFCURVE",
"-807 243 CURVE",
"-788 305 OFFCURVE",
"-734 351 OFFCURVE",
"-686 351 CURVE SMOOTH",
"-662 351 OFFCURVE",
"-656 338 OFFCURVE",
"-656 322 CURVE SMOOTH",
"-656 274 OFFCURVE",
"-729 239 OFFCURVE",
"-779 239 CURVE SMOOTH"
);
},
{
closed = 1;
nodes = (
"373 200 OFFCURVE",
"393 288 OFFCURVE",
"402 321 CURVE SMOOTH",
"411 355 OFFCURVE",
"460 379 OFFCURVE",
"484 379 CURVE SMOOTH",
"508 379 OFFCURVE",
"546 348 OFFCURVE",
"546 325 CURVE SMOOTH",
"546 273 OFFCURVE",
"485 226 OFFCURVE",
"365 225 CURVE",
"358 190 LINE",
"509 187 OFFCURVE",
"592 251 OFFCURVE",
"592 340 CURVE SMOOTH",
"592 373 OFFCURVE",
"535 420 OFFCURVE",
"491 420 CURVE SMOOTH",
"453 420 OFFCURVE",
"430 398 OFFCURVE",
"402 372 CURVE",
"410 359 LINE",
"420 393 OFFCURVE",
"425 409 OFFCURVE",
"447 427 CURVE",
"444 429 LINE",
"395 424 LINE SMOOTH",
"378 422 OFFCURVE",
"371 395 OFFCURVE",
"358 345 CURVE SMOOTH",
"344 290 OFFCURVE",
"317 173 OFFCURVE",
"308 137 CURVE SMOOTH",
"291 71 OFFCURVE",
"225 39 OFFCURVE",
"189 39 CURVE SMOOTH",
"167 39 OFFCURVE",
"136 70 OFFCURVE",
"133 104 CURVE",
"145 163 OFFCURVE",
"157 226 OFFCURVE",
"172 297 CURVE SMOOTH",
"178 326 OFFCURVE",
"207 380 OFFCURVE",
"284 380 CURVE SMOOTH",
"302 380 OFFCURVE",
"341 358 OFFCURVE",
"363 332 CURVE",
"375 368 LINE",
"348 394 OFFCURVE",
"313 418 OFFCURVE",
"283 418 CURVE SMOOTH",
"196 418 OFFCURVE",
"130 351 OFFCURVE",
"123 312 CURVE SMOOTH",
"108 229 OFFCURVE",
"97 171 OFFCURVE",
"81 101 CURVE",
"84 53 OFFCURVE",
"132 -8 OFFCURVE",
"191 -8 CURVE SMOOTH",
"235 -8 OFFCURVE",
"305 37 OFFCURVE",
"337 98 CURVE",
"309 98 LINE",
"318 56 OFFCURVE",
"383 -5 OFFCURVE",
"437 -5 CURVE SMOOTH",
"564 -5 OFFCURVE",
"677 84 OFFCURVE",
"738 183 CURVE SMOOTH",
"746 196 OFFCURVE",
"751 206 OFFCURVE",
"751 221 CURVE SMOOTH",
"751 232 OFFCURVE",
"742 238 OFFCURVE",
"733 239 CURVE",
"689 156 OFFCURVE",
"585 38 OFFCURVE",
"444 38 CURVE SMOOTH",
"409 38 OFFCURVE",
"358 75 OFFCURVE",
"355 118 CURVE",
"361 148 OFFCURVE",
"367 174 OFFCURVE",
"373 199 CURVE"
);
}
);
width = 610;
}
);
note = ae;
rightMetricsKey = e;
unicode = 00E6;
},
{
color = 3;
glyphname = eth;
lastChange = "2018-02-15 11:34:19 +0000";
layers = (
{
components = (
{
name = d;
}
);
layerId = "0B1DFD06-3317-40CA-B510-4969A0718C16";
paths = (
{
closed = 1;
nodes = (
"339 674 OFFCURVE",
"377 691 OFFCURVE",
"453 715 CURVE SMOOTH",
"573 753 OFFCURVE",
"627 771 OFFCURVE",
"662 771 CURVE SMOOTH",
"664 771 OFFCURVE",
"665 773 OFFCURVE",
"665 777 CURVE SMOOTH",
"665 786 OFFCURVE",
"657 806 OFFCURVE",
"645 806 CURVE",
"574 786 OFFCURVE",
"509 767 OFFCURVE",
"439 745 CURVE SMOOTH",
"350 717 OFFCURVE",
"326 706 OFFCURVE",
"307 706 CURVE",
"303 702 LINE",
"303 697 OFFCURVE",
"319 671 OFFCURVE",
"334 671 CURVE"
);
}
);
width = 475;
}
);
note = eth;
rightMetricsKey = d;
unicode = 00F0;
},
{
color = 3;
glyphname = schwa;
lastChange = "2018-02-18 18:24:23 +0000";
layers = (
{
layerId = "0B1DFD06-3317-40CA-B510-4969A0718C16";
paths = (
{
closed = 1;
nodes = (
"310 226 LINE",
"291 234 OFFCURVE",
"262 245 OFFCURVE",
"220 245 CURVE SMOOTH",
"70 245 OFFCURVE",
"1 149 OFFCURVE",
"5 86 CURVE SMOOTH",
"8 33 OFFCURVE",
"46 -9 OFFCURVE",
"110 -9 CURVE SMOOTH",
"240 -9 OFFCURVE",
"334 121 OFFCURVE",
"334 275 CURVE SMOOTH",
"334 356 OFFCURVE",
"290 409 OFFCURVE",
"209 409 CURVE SMOOTH",
"123 409 OFFCURVE",
"50 353 OFFCURVE",
"50 307 CURVE SMOOTH",
"50 296 OFFCURVE",
"55 286 OFFCURVE",
"64 285 CURVE",
"92 329 OFFCURVE",
"129 362 OFFCURVE",
"188 362 CURVE SMOOTH",
"260 362 OFFCURVE",
"284 330 OFFCURVE",
"284 262 CURVE SMOOTH",
"284 147 OFFCURVE",
"210 35 OFFCURVE",
"121 35 CURVE SMOOTH",
"76 35 OFFCURVE",
"55 58 OFFCURVE",
"55 95 CURVE SMOOTH",
"55 150 OFFCURVE",
"125 209 OFFCURVE",
"230 209 CURVE SMOOTH",
"272 209 OFFCURVE",
"293 202 OFFCURVE",
"310 196 CURVE"
);
}
);
width = 368;
}
);
note = schwa;
unicode = 0259;
},
{
color = 3;
glyphname = idotless;
lastChange = "2018-02-13 17:36:22 +0000";
layers = (
{
anchors = (
{
name = bottom;
position = "{125, 0}";
},
{
name = ogonek;
position = "{195, 10}";
},
{
name = top;
position = "{199, 420}";
}
);
layerId = "0B1DFD06-3317-40CA-B510-4969A0718C16";
paths = (
{
closed = 1;
nodes = (
"246 -12 OFFCURVE",
"366 80 OFFCURVE",
"434 187 CURVE SMOOTH",
"441 198 OFFCURVE",
"444 211 OFFCURVE",
"444 218 CURVE SMOOTH",
"444 232 OFFCURVE",
"438 237 OFFCURVE",
"429 240 CURVE",
"400 187 OFFCURVE",
"274 42 OFFCURVE",
"155 42 CURVE SMOOTH",
"126 42 OFFCURVE",
"119 58 OFFCURVE",
"119 90 CURVE SMOOTH",
"119 156 OFFCURVE",
"176 298 OFFCURVE",
"211 380 CURVE SMOOTH",
"215 388 OFFCURVE",
"217 395 OFFCURVE",
"217 400 CURVE SMOOTH",
"215 405 OFFCURVE",
"210 410 OFFCURVE",
"204 410 CURVE SMOOTH",
"195 410 OFFCURVE",
"163 395 OFFCURVE",
"154 375 CURVE SMOOTH",
"130 321 OFFCURVE",
"59 160 OFFCURVE",
"59 80 CURVE SMOOTH",
"59 13 OFFCURVE",
"101 -12 OFFCURVE",
"142 -12 CURVE SMOOTH"
);
}
);
width = 324;
}
);
note = dotlessi;
unicode = 0131;
},
{
color = 3;
glyphname = jdotless;
lastChange = "2018-02-12 20:18:06 +0000";
layers = (
{
anchors = (
{
name = bottom;
position = "{151, 0}";
},
{
name = top;
position = "{201, 470}";
}
);
layerId = "0B1DFD06-3317-40CA-B510-4969A0718C16";
paths = (
{
closed = 1;
nodes = (
"39 359 OFFCURVE",
"39 317 OFFCURVE",
"48 317 CURVE SMOOTH",
"71 317 OFFCURVE",
"114 328 OFFCURVE",
"118 328 CURVE SMOOTH",
"127 328 OFFCURVE",
"133 324 OFFCURVE",
"136 313 CURVE",
"136 308 OFFCURVE",
"136 301 OFFCURVE",
"134 288 CURVE",
"74 58 OFFCURVE",
"32 -92 OFFCURVE",
"-25 -275 CURVE SMOOTH",
"-73 -413 OFFCURVE",
"-120 -378 OFFCURVE",
"-177 -491 CURVE",
"-181 -497 OFFCURVE",
"-181 -506 OFFCURVE",
"-179 -518 CURVE",
"-174 -531 OFFCURVE",
"-164 -560 OFFCURVE",
"-151 -560 CURVE SMOOTH",
"-146 -560 OFFCURVE",
"-143 -559 OFFCURVE",
"-140 -557 CURVE",
"-92 -499 OFFCURVE",
"-63 -446 OFFCURVE",
"-45 -414 CURVE SMOOTH",
"117 -129 OFFCURVE",
"405 -46 OFFCURVE",
"395 196 CURVE",
"392 242 OFFCURVE",
"358 290 OFFCURVE",
"307 300 CURVE",
"315 282 OFFCURVE",
"334 261 OFFCURVE",
"336 205 CURVE SMOOTH",
"345 4 OFFCURVE",
"89 -152 OFFCURVE",
"4 -290 CURVE",
"89 -35 OFFCURVE",
"138 106 OFFCURVE",
"214 352 CURVE",
"217 363 OFFCURVE",
"217 371 OFFCURVE",
"215 377 CURVE",
"212 390 OFFCURVE",
"205 396 OFFCURVE",
"193 396 CURVE SMOOTH",
"171 396 OFFCURVE",
"151 378 OFFCURVE",
"50 359 CURVE"
);
}
);
width = 302;
}
);
leftKerningGroup = j;
note = dotlessj;
unicode = 0237;
},
{
color = 3;
glyphname = kgreenlandic;
lastChange = "2018-02-13 17:35:52 +0000";
layers = (
{
layerId = "0B1DFD06-3317-40CA-B510-4969A0718C16";
paths = (
{
closed = 1;
nodes = (
"69 -14 OFFCURVE",
"74 -10 OFFCURVE",
"78 -4 CURVE SMOOTH",
"155 111 OFFCURVE",
"346 333 OFFCURVE",
"464 417 CURVE",
"452 430 OFFCURVE",
"426 437 OFFCURVE",
"404 437 CURVE SMOOTH",
"381 437 OFFCURVE",
"166 190 OFFCURVE",
"79 77 CURVE",
"88 69 LINE",
"141 219 OFFCURVE",
"194 356 OFFCURVE",
"235 477 CURVE SMOOTH",
"255 536 OFFCURVE",
"221 528 OFFCURVE",
"191 528 CURVE",
"119 311 OFFCURVE",
"94 246 OFFCURVE",
"56 128 CURVE",
"43 90 OFFCURVE",
"26 35 OFFCURVE",
"26 20 CURVE SMOOTH",
"26 8 OFFCURVE",
"53 -14 OFFCURVE",
"64 -14 CURVE SMOOTH"
);
},
{
closed = 1;
nodes = (
"541 -12 OFFCURVE",
"681 182 OFFCURVE",
"681 243 CURVE SMOOTH",
"681 266 OFFCURVE",
"673 281 OFFCURVE",
"662 281 CURVE",
"627 146 OFFCURVE",
"530 32 OFFCURVE",
"449 32 CURVE SMOOTH",
"353 32 OFFCURVE",
"307 177 OFFCURVE",
"287 281 CURVE",
"278 277 OFFCURVE",
"272 272 OFFCURVE",
"258 264 CURVE SMOOTH",
"244 256 OFFCURVE",
"241 243 OFFCURVE",
"244 234 CURVE SMOOTH",
"290 67 OFFCURVE",
"332 -12 OFFCURVE",
"426 -12 CURVE SMOOTH"
);
}
);
width = 591;
}
);
note = kgreenlandic;
rightKerningGroup = k;
unicode = 0138;
},
{
color = 3;
glyphname = lslash;
lastChange = "2018-02-13 11:27:28 +0000";
layers = (
{
components = (
{
name = l.001;
}
);
layerId = "0B1DFD06-3317-40CA-B510-4969A0718C16";
paths = (
{
closed = 1;
nodes = (
"81 402 OFFCURVE",
"119 419 OFFCURVE",
"195 443 CURVE SMOOTH",
"315 481 OFFCURVE",
"369 499 OFFCURVE",
"404 499 CURVE SMOOTH",
"406 499 OFFCURVE",
"407 501 OFFCURVE",
"407 505 CURVE SMOOTH",
"407 514 OFFCURVE",
"399 534 OFFCURVE",
"387 534 CURVE",
"316 514 OFFCURVE",
"251 495 OFFCURVE",
"181 473 CURVE SMOOTH",
"92 445 OFFCURVE",
"68 434 OFFCURVE",
"49 434 CURVE",
"45 430 LINE",
"45 425 OFFCURVE",
"61 399 OFFCURVE",
"76 399 CURVE"
);
}
);
width = 358;
}
);
note = lslash;
unicode = 0142;
},
{
color = 3;
glyphname = eng;
lastChange = "2018-02-18 18:24:23 +0000";
layers = (
{
layerId = "0B1DFD06-3317-40CA-B510-4969A0718C16";
paths = (
{
closed = 1;
nodes = (
"74 -496 OFFCURVE",
"170 -286 OFFCURVE",
"248 -77 CURVE SMOOTH",
"319 113 OFFCURVE",
"357 221 OFFCURVE",
"388 353 CURVE SMOOTH",
"392 370 OFFCURVE",
"394 388 OFFCURVE",
"392 394 CURVE SMOOTH",
"389 404 OFFCURVE",
"367 416 OFFCURVE",
"357 416 CURVE SMOOTH",
"320 416 OFFCURVE",
"203 299 OFFCURVE",
"125 210 CURVE",
"132 190 LINE",
"160 284 OFFCURVE",
"184 384 OFFCURVE",
"184 390 CURVE SMOOTH",
"184 400 OFFCURVE",
"159 413 OFFCURVE",
"147 413 CURVE SMOOTH",
"142 413 OFFCURVE",
"140 411 OFFCURVE",
"139 404 CURVE SMOOTH",
"125 334 OFFCURVE",
"102 237 OFFCURVE",
"79 158 CURVE",
"57 101 OFFCURVE",
"40 37 OFFCURVE",
"40 13 CURVE",
"40 6 OFFCURVE",
"74 0 OFFCURVE",
"84 0 CURVE SMOOTH",
"94 0 OFFCURVE",
"109 110 OFFCURVE",
"122 151 CURVE",
"156 208 OFFCURVE",
"269 311 OFFCURVE",
"314 351 CURVE SMOOTH",
"322 358 OFFCURVE",
"331 352 OFFCURVE",
"331 344 CURVE SMOOTH",
"331 310 OFFCURVE",
"275 126 OFFCURVE",
"210 -59 CURVE SMOOTH",
"140 -258 OFFCURVE",
"70 -419 OFFCURVE",
"-81 -451 CURVE",
"-53 -474 OFFCURVE",
"-39 -496 OFFCURVE",
"-11 -496 CURVE SMOOTH"
);
}
);
width = 440;
}
);
leftKerningGroup = m;
note = eng;
rightKerningGroup = m;
unicode = 014B;
},
{
color = 3;
glyphname = ohorn;
lastChange = "2018-02-18 18:23:41 +0000";
layers = (
{
anchors = (
{
name = bottom;
position = "{163, 0}";
},
{
name = center;
position = "{230, 210}";
},
{
name = ogonek;
position = "{210, 10}";
},
{
name = top;
position = "{267, 420}";
},
{
name = topright;
position = "{477, 420}";
}
);
layerId = "0B1DFD06-3317-40CA-B510-4969A0718C16";
paths = (
{
closed = 1;
nodes = (
"261 -8 OFFCURVE",
"322 41 OFFCURVE",
"335 71 CURVE",
"345 142 OFFCURVE",
"391 263 OFFCURVE",
"391 331 CURVE",
"376 383 OFFCURVE",
"320 420 OFFCURVE",
"281 420 CURVE SMOOTH",
"196 420 OFFCURVE",
"129 357 OFFCURVE",
"122 318 CURVE SMOOTH",
"105 223 OFFCURVE",
"94 191 OFFCURVE",
"68 111 CURVE",
"68 43 OFFCURVE",
"137 -8 OFFCURVE",
"196 -8 CURVE SMOOTH"
);
},
{
closed = 1;
nodes = (
"165 33 OFFCURVE",
"124 60 OFFCURVE",
"124 114 CURVE",
"144 170 OFFCURVE",
"157 224 OFFCURVE",
"171 307 CURVE SMOOTH",
"176 336 OFFCURVE",
"218 375 OFFCURVE",
"270 375 CURVE SMOOTH",
"296 375 OFFCURVE",
"330 346 OFFCURVE",
"338 319 CURVE",
"333 250 OFFCURVE",
"300 166 OFFCURVE",
"286 88 CURVE",
"277 65 OFFCURVE",
"232 33 OFFCURVE",
"197 33 CURVE SMOOTH"
);
},
{
closed = 1;
nodes = (
"459 321 OFFCURVE",
"506 364 OFFCURVE",
"506 425 CURVE SMOOTH",
"506 471 OFFCURVE",
"482 488 OFFCURVE",
"453 488 CURVE SMOOTH",
"451 488 OFFCURVE",
"449 487 OFFCURVE",
"447 486 CURVE",
"452 476 OFFCURVE",
"456 456 OFFCURVE",
"456 436 CURVE SMOOTH",
"456 384 OFFCURVE",
"435 352 OFFCURVE",
"411 352 CURVE SMOOTH",
"386 352 OFFCURVE",
"371 365 OFFCURVE",
"353 383 CURVE",
"337 349 LINE",
"353 336 OFFCURVE",
"369 321 OFFCURVE",
"417 321 CURVE SMOOTH"
);
}
);
width = 480;
}
);
widthMetricsKey = o;
note = ohorn;
unicode = 01A1;
},
{
color = 3;
glyphname = oslash;
lastChange = "2018-02-18 17:14:50 +0000";
layers = (
{
anchors = (
{
name = top;
position = "{277, 420}";
}
);
components = (
{
name = o;
}
);
layerId = "0B1DFD06-3317-40CA-B510-4969A0718C16";
paths = (
{
closed = 1;
nodes = (
"130 57 OFFCURVE",
"336 316 OFFCURVE",
"495 522 CURVE",
"490 539 OFFCURVE",
"478 553 OFFCURVE",
"468 553 CURVE",
"307 340 OFFCURVE",
"99 77 OFFCURVE",
"-36 -106 CURVE",
"-36 -117 OFFCURVE",
"-20 -137 OFFCURVE",
"-12 -137 CURVE"
);
}
);
width = 480;
}
);
widthMetricsKey = o;
note = oslash;
unicode = 00F8;
},
{
color = 3;
glyphname = thorn;
lastChange = "2018-02-15 19:12:24 +0000";
layers = (
{
layerId = "0B1DFD06-3317-40CA-B510-4969A0718C16";
paths = (
{
closed = 1;
nodes = (
"-87 -624 OFFCURVE",
"-48 -646 OFFCURVE",
"-28 -567 CURVE SMOOTH",
"61 -217 OFFCURVE",
"79 -50 OFFCURVE",
"159 229 CURVE SMOOTH",
"185 320 OFFCURVE",
"272 366 OFFCURVE",
"293 366 CURVE SMOOTH",
"312 366 OFFCURVE",
"348 333 OFFCURVE",
"348 315 CURVE",
"318 199 OFFCURVE",
"285 31 OFFCURVE",
"169 31 CURVE SMOOTH",
"154 31 OFFCURVE",
"141 34 OFFCURVE",
"130 36 CURVE",
"128 30 OFFCURVE",
"127 24 OFFCURVE",
"127 19 CURVE SMOOTH",
"127 2 OFFCURVE",
"140 -6 OFFCURVE",
"163 -6 CURVE SMOOTH",
"299 -6 OFFCURVE",
"450 16 OFFCURVE",
"564 135 CURVE SMOOTH",
"575 146 OFFCURVE",
"581 162 OFFCURVE",
"581 176 CURVE SMOOTH",
"581 188 OFFCURVE",
"576 199 OFFCURVE",
"566 205 CURVE",
"440 59 OFFCURVE",
"345 44 OFFCURVE",
"220 28 CURVE",
"226 17 LINE",
"360 64 OFFCURVE",
"378 213 OFFCURVE",
"408 322 CURVE",
"408 362 OFFCURVE",
"342 420 OFFCURVE",
"313 420 CURVE SMOOTH",
"268 420 OFFCURVE",
"197 365 OFFCURVE",
"167 318 CURVE",
"175 309 LINE",
"203 407 OFFCURVE",
"225 505 OFFCURVE",
"233 537 CURVE SMOOTH",
"315 866 OFFCURVE",
"466 1008 OFFCURVE",
"603 1008 CURVE SMOOTH",
"650 1008 OFFCURVE",
"681 1004 OFFCURVE",
"727 985 CURVE",
"727 994 LINE",
"716 1040 OFFCURVE",
"650 1068 OFFCURVE",
"597 1068 CURVE SMOOTH",
"406 1068 OFFCURVE",
"278 907 OFFCURVE",
"190 546 CURVE SMOOTH",
"156 399 OFFCURVE",
"28 -101 OFFCURVE",
"-56 -434 CURVE SMOOTH",
"-91 -571 OFFCURVE",
"-99 -603 OFFCURVE",
"-210 -652 CURVE",
"-199 -657 LINE"
);
}
);
width = 454;
}
);
note = thorn;
unicode = 00FE;
},
{
color = 3;
glyphname = germandbls;
lastChange = "2018-02-15 12:00:59 +0000";
layers = (
{
layerId = "0B1DFD06-3317-40CA-B510-4969A0718C16";
paths = (
{
closed = 1;
nodes = (
"72 -8 OFFCURVE",
"179 -8 CURVE SMOOTH",
"312 -8 OFFCURVE",
"397 81 OFFCURVE",
"397 150 CURVE SMOOTH",
"397 234 OFFCURVE",
"306 305 OFFCURVE",
"306 358 CURVE SMOOTH",
"306 430 OFFCURVE",
"454 472 OFFCURVE",
"454 618 CURVE SMOOTH",
"454 667 OFFCURVE",
"380 714 OFFCURVE",
"334 714 CURVE SMOOTH",
"287 714 OFFCURVE",
"211 668 OFFCURVE",
"186 585 CURVE SMOOTH",
"156 492 OFFCURVE",
"144 421 OFFCURVE",
"51 27 CURVE SMOOTH",
"-62 -375 OFFCURVE",
"-167 -537 OFFCURVE",
"-413 -537 CURVE SMOOTH",
"-450 -537 OFFCURVE",
"-503 -519 OFFCURVE",
"-538 -491 CURVE",
"-551 -544 OFFCURVE",
"-508 -601 OFFCURVE",
"-378 -601 CURVE SMOOTH",
"-179 -601 OFFCURVE",
"-19 -391 OFFCURVE",
"94 11 CURVE SMOOTH",
"177 328 OFFCURVE",
"210 490 OFFCURVE",
"234 572 CURVE SMOOTH",
"256 647 OFFCURVE",
"281 665 OFFCURVE",
"314 665 CURVE SMOOTH",
"348 665 OFFCURVE",
"400 629 OFFCURVE",
"396 584 CURVE SMOOTH",
"391 529 OFFCURVE",
"343 480 OFFCURVE",
"280 401 CURVE SMOOTH",
"255 370 OFFCURVE",
"252 339 OFFCURVE",
"252 317 CURVE SMOOTH",
"252 284 OFFCURVE",
"339 196 OFFCURVE",
"339 143 CURVE SMOOTH",
"339 88 OFFCURVE",
"277 37 OFFCURVE",
"178 37 CURVE SMOOTH",
"116 37 OFFCURVE",
"12 60 OFFCURVE",
"11 117 CURVE SMOOTH",
"10 156 OFFCURVE",
"20 181 OFFCURVE",
"38 205 CURVE",
"23 205 OFFCURVE",
"14 202 OFFCURVE",
"7 197 CURVE SMOOTH",
"-17 180 OFFCURVE",
"-31 138 OFFCURVE",
"-30 105 CURVE SMOOTH",
"-24 21 OFFCURVE"
);
}
);
width = 472;
}
);
note = germandbls;
unicode = 00DF;
},
{
color = 3;
glyphname = tbar;
lastChange = "2018-02-15 15:56:03 +0000";
layers = (
{
components = (
{
name = t;
}
);
layerId = "0B1DFD06-3317-40CA-B510-4969A0718C16";
paths = (
{
closed = 1;
nodes = (
"301 259 OFFCURVE",
"407 259 CURVE",
"411 260 OFFCURVE",
"417 276 OFFCURVE",
"417 279 CURVE",
"416 283 OFFCURVE",
"412 286 OFFCURVE",
"409 289 CURVE",
"26 286 LINE",
"18 278 OFFCURVE",
"10 262 OFFCURVE",
"10 254 CURVE",
"13 248 OFFCURVE",
"19 243 OFFCURVE",
"25 243 CURVE SMOOTH",
"31 243 OFFCURVE"
);
}
);
width = 397;
}
);
leftKerningGroup = t;
note = tbar;
rightKerningGroup = t;
unicode = 0167;
},
